<svg id="splitsvg" version="1.1" xmlns="http://www.w3.org/2000/svg" xmlns:xlink="http://www.w3.org/1999/xlink" width="1380" height="80"><g id="svgg"><path id="path0" d="M33.333 13.149 C 31.714 13.433,29.346 15.694,28.742 17.533 C 28.583 18.019,28.202 18.696,27.897 19.037 C 27.592 19.379,27.292 19.866,27.231 20.121 C 27.071 20.789,26.686 21.521,26.244 22.000 C 26.032 22.229,25.717 22.792,25.544 23.250 C 25.371 23.708,24.953 24.485,24.615 24.977 C 24.277 25.469,24.000 25.964,24.000 26.077 C 24.000 26.191,23.660 26.801,23.244 27.434 C 22.829 28.066,22.409 28.850,22.311 29.176 C 22.213 29.502,21.891 30.049,21.595 30.391 C 21.299 30.734,20.925 31.430,20.765 31.938 C 20.605 32.445,20.228 33.136,19.928 33.472 C 19.627 33.808,19.250 34.481,19.091 34.967 C 18.931 35.454,18.611 36.054,18.378 36.301 C 18.146 36.548,17.743 37.221,17.483 37.796 C 17.223 38.372,16.832 39.085,16.615 39.380 C 16.398 39.675,16.121 40.179,16.001 40.500 C 15.880 40.821,15.532 41.412,15.227 41.815 C 14.923 42.217,14.518 42.962,14.328 43.469 C 14.138 43.977,13.770 44.635,13.510 44.931 C 13.250 45.227,12.907 45.870,12.748 46.360 C 12.589 46.849,12.286 47.438,12.073 47.667 C 11.861 47.896,11.453 48.608,11.166 49.250 C 10.879 49.892,10.503 50.568,10.330 50.752 C 10.158 50.937,9.854 51.462,9.657 51.919 C 9.459 52.376,9.024 53.153,8.690 53.645 C 7.946 54.741,7.693 57.887,8.254 59.068 C 8.625 59.850,10.466 61.696,11.275 62.098 C 12.134 62.525,198.706 62.609,199.912 62.183 C 202.131 61.401,203.698 58.317,202.979 56.150 C 202.769 55.518,201.023 53.627,200.250 53.196 C 199.785 52.936,193.585 52.911,110.630 52.833 L 21.509 52.750 21.146 52.387 C 20.727 51.968,20.878 51.369,21.623 50.483 C 21.842 50.223,22.203 49.545,22.426 48.975 C 22.650 48.405,22.987 47.774,23.177 47.572 C 23.366 47.371,23.699 46.766,23.916 46.228 C 24.133 45.690,24.525 44.987,24.786 44.667 C 25.048 44.346,25.473 43.580,25.730 42.966 C 25.987 42.351,26.309 41.756,26.444 41.644 C 26.580 41.531,26.914 40.948,27.186 40.348 C 27.458 39.748,27.821 39.105,27.993 38.920 C 28.165 38.735,28.498 38.146,28.733 37.611 C 28.968 37.076,29.344 36.421,29.567 36.155 C 29.791 35.889,30.134 35.239,30.331 34.711 C 30.527 34.182,30.918 33.460,31.200 33.106 C 31.482 32.751,31.858 32.080,32.035 31.614 C 32.212 31.148,32.569 30.525,32.828 30.230 C 33.087 29.935,33.462 29.257,33.662 28.722 C 33.861 28.187,34.161 27.600,34.328 27.417 C 34.495 27.233,34.933 26.479,35.301 25.741 C 35.670 25.002,36.086 24.303,36.226 24.186 C 36.367 24.070,36.599 23.624,36.742 23.196 C 36.886 22.767,37.260 22.094,37.574 21.699 C 38.859 20.083,39.026 16.392,37.871 15.116 C 37.424 14.622,34.607 12.997,34.243 13.024 C 34.063 13.037,33.654 13.093,33.333 13.149 M237.885 45.017 C 237.588 45.103,237.188 45.409,236.979 45.711 C 236.773 46.007,236.399 46.491,236.147 46.785 C 235.869 47.109,235.645 47.615,235.576 48.072 C 235.466 48.810,235.208 49.185,234.273 49.965 C 233.749 50.403,233.784 50.743,234.445 51.625 C 235.290 52.754,235.333 53.036,235.333 57.469 C 235.333 62.194,235.289 62.042,236.763 62.321 C 237.436 62.449,237.673 62.425,238.083 62.188 L 238.583 61.898 238.667 57.658 C 238.761 52.875,238.739 52.964,240.045 52.084 C 241.300 51.239,242.245 51.252,242.946 52.125 C 243.967 53.396,244.000 53.544,244.000 56.888 L 244.000 59.960 244.586 60.933 C 244.909 61.469,245.302 61.980,245.461 62.069 C 246.673 62.750,249.501 62.213,249.267 61.347 C 249.228 61.202,249.151 60.818,249.097 60.493 C 249.020 60.033,248.814 59.766,248.166 59.282 L 247.333 58.660 247.333 56.022 C 247.333 53.389,247.334 53.382,247.806 52.733 C 249.203 50.809,250.339 52.073,251.079 56.377 C 251.536 59.029,251.495 58.872,252.211 60.717 C 252.852 62.368,253.220 62.615,254.481 62.240 C 255.485 61.942,255.592 61.775,255.928 59.965 C 256.253 58.213,256.683 56.641,256.819 56.702 C 258.199 57.327,258.864 58.442,259.099 60.522 C 259.383 63.036,262.172 63.281,262.653 60.834 C 262.763 60.278,263.028 59.357,263.242 58.787 C 263.457 58.216,263.794 56.775,263.992 55.583 C 264.189 54.392,264.578 52.754,264.855 51.944 C 265.449 50.205,265.365 49.983,264.011 49.715 C 262.566 49.429,262.224 49.824,261.818 52.250 C 261.644 53.285,261.546 53.487,260.950 54.042 C 259.855 55.060,259.677 54.844,259.246 51.974 C 258.964 50.098,258.736 49.811,257.443 49.704 C 256.336 49.612,256.126 49.845,255.832 51.493 C 255.589 52.851,255.389 53.225,254.369 54.221 L 253.546 55.026 253.361 54.291 C 253.259 53.886,253.090 52.812,252.985 51.903 C 252.699 49.419,252.573 49.345,249.321 49.753 C 248.222 49.891,247.359 49.147,247.299 48.009 C 247.250 47.083,247.250 47.083,246.444 46.684 L 245.637 46.284 244.860 46.605 L 244.083 46.926 244.033 47.889 C 243.947 49.545,242.223 50.273,240.071 49.562 C 238.484 49.038,238.463 48.609,239.986 47.840 C 240.995 47.331,241.248 47.045,241.516 46.111 C 241.848 44.953,240.015 44.401,237.885 45.017 M329.707 45.119 L 329.330 45.421 329.373 53.659 L 329.417 61.898 329.917 62.187 C 330.503 62.527,331.838 62.365,332.362 61.890 C 332.825 61.471,332.834 45.911,332.372 45.339 C 331.954 44.823,330.252 44.682,329.707 45.119 M355.772 45.179 C 355.221 45.613,355.129 47.097,355.626 47.546 C 356.171 48.039,357.616 48.106,358.090 47.660 C 359.628 46.216,357.437 43.870,355.772 45.179 M349.050 46.655 C 348.564 46.956,348.513 47.069,348.467 47.940 L 348.417 48.895 347.364 49.614 C 346.573 50.155,346.241 50.296,346.028 50.182 C 345.400 49.845,343.284 49.515,342.930 49.698 C 341.972 50.191,342.000 50.048,342.000 54.505 C 342.000 59.067,342.076 58.765,340.789 59.316 L 340.007 59.652 339.295 59.109 L 338.583 58.567 338.539 54.452 L 338.494 50.337 338.101 50.080 C 337.295 49.551,336.733 49.501,335.966 49.889 L 335.250 50.250 335.199 54.000 C 335.131 59.049,335.196 59.589,336.015 60.816 C 337.071 62.397,339.201 62.929,340.970 62.053 C 341.588 61.747,341.611 61.748,342.155 62.065 C 342.797 62.440,344.079 62.473,344.791 62.133 L 345.250 61.913 345.348 57.248 C 345.445 52.663,345.509 52.111,346.074 51.018 L 346.357 50.471 346.820 51.194 C 347.074 51.592,347.451 52.066,347.657 52.248 C 348.366 52.876,348.414 53.140,348.500 56.833 L 348.583 60.417 349.088 61.163 C 349.952 62.445,352.272 62.901,353.262 61.984 C 353.889 61.403,353.575 60.102,352.610 59.287 L 351.833 58.632 351.833 56.055 C 351.833 53.326,351.886 53.090,352.678 52.250 C 353.855 51.002,353.839 50.136,352.626 49.469 C 351.937 49.090,351.914 49.050,351.833 48.098 C 351.708 46.617,350.296 45.886,349.050 46.655 M214.073 49.644 C 211.088 50.031,209.483 54.450,211.796 55.917 C 212.085 56.100,212.669 56.467,213.094 56.732 C 213.519 56.997,214.349 57.315,214.939 57.439 C 217.300 57.934,217.752 58.691,216.168 59.499 C 215.280 59.952,215.138 59.931,213.417 59.091 C 210.168 57.504,209.918 60.477,213.158 62.167 C 213.875 62.542,216.952 62.457,217.750 62.041 C 219.777 60.984,220.975 58.809,220.154 57.676 C 219.886 57.306,219.667 56.941,219.667 56.866 C 219.667 56.411,216.697 54.672,215.904 54.663 C 215.479 54.658,214.303 54.116,214.047 53.807 C 213.814 53.526,214.424 52.462,214.930 52.268 C 215.224 52.155,217.054 52.814,217.941 53.353 C 218.554 53.726,219.134 53.590,219.567 52.973 C 220.791 51.226,217.456 49.205,214.073 49.644 M226.410 49.659 C 221.256 50.451,220.280 59.353,225.064 61.939 C 226.759 62.854,229.341 62.591,230.769 61.357 C 234.597 58.048,234.011 52.268,229.606 49.892 C 229.115 49.627,227.422 49.504,226.410 49.659 M270.284 49.674 C 269.720 49.768,269.291 49.983,268.826 50.404 C 268.463 50.732,268.096 51.000,268.011 51.000 C 267.926 51.000,267.692 51.230,267.492 51.511 L 267.129 52.021 267.510 52.427 C 268.023 52.973,269.601 53.005,270.564 52.489 C 271.599 51.934,273.118 52.392,273.422 53.350 C 273.625 53.990,273.082 54.332,271.849 54.341 C 269.995 54.353,269.452 54.531,268.345 55.490 C 265.004 58.384,267.746 63.498,271.966 62.245 C 272.452 62.100,272.980 62.024,273.140 62.075 C 274.702 62.571,276.807 62.407,276.846 61.787 C 276.904 60.888,276.803 53.263,276.726 52.704 C 276.656 52.198,276.481 51.859,276.122 51.537 C 275.844 51.288,275.339 50.811,275.001 50.478 C 274.093 49.585,272.463 49.307,270.284 49.674 M279.986 49.879 L 279.250 50.250 279.250 56.000 L 279.250 61.750 279.966 62.111 C 280.734 62.499,281.295 62.449,282.104 61.919 C 282.498 61.660,282.500 61.646,282.500 58.426 C 282.500 53.565,282.718 53.010,284.732 52.747 C 286.316 52.539,286.577 52.057,286.064 50.295 C 285.940 49.871,284.952 49.672,283.167 49.713 C 282.296 49.734,281.390 49.695,281.153 49.629 C 280.851 49.544,280.502 49.618,279.986 49.879 M290.990 49.645 C 289.899 49.808,288.383 51.174,287.451 52.833 L 286.750 54.083 286.750 56.000 L 286.750 57.917 287.479 59.218 C 288.169 60.451,289.096 61.375,290.383 62.114 C 291.924 62.998,294.659 62.498,296.120 61.065 C 297.365 59.845,297.355 59.736,295.930 59.025 L 295.190 58.655 294.387 59.142 C 292.899 60.044,291.061 59.402,290.638 57.833 C 290.576 57.604,290.476 57.258,290.416 57.065 C 290.253 56.540,291.329 56.333,294.227 56.333 C 297.487 56.333,297.823 56.119,297.583 54.185 C 297.192 51.024,294.443 49.131,290.990 49.645 M307.979 49.662 C 306.642 49.901,305.140 51.268,304.568 52.768 C 304.131 53.912,305.075 55.613,306.563 56.360 C 306.941 56.550,307.362 56.799,307.500 56.914 C 307.637 57.029,308.280 57.249,308.927 57.405 C 309.574 57.560,310.318 57.858,310.580 58.067 L 311.056 58.447 310.356 59.206 L 309.655 59.966 308.664 59.666 C 308.118 59.501,307.369 59.125,306.998 58.832 C 305.100 57.328,303.862 59.309,305.625 61.028 C 306.807 62.180,307.444 62.404,309.503 62.392 C 313.947 62.365,315.985 57.549,312.333 55.702 C 311.737 55.401,311.063 55.046,310.833 54.913 C 310.604 54.780,310.267 54.670,310.083 54.669 C 309.731 54.666,308.474 54.212,307.924 53.890 C 307.425 53.597,307.818 52.932,308.781 52.443 L 309.574 52.040 310.108 52.447 C 310.924 53.069,312.824 53.715,313.119 53.471 C 314.077 52.676,313.970 51.798,312.794 50.798 C 311.439 49.646,309.985 49.302,307.979 49.662 M319.969 49.724 C 319.218 49.909,318.566 50.341,317.412 51.417 C 316.436 52.327,315.615 55.677,315.995 57.202 C 316.523 59.323,316.917 60.214,317.555 60.732 C 317.907 61.017,318.420 61.447,318.696 61.688 C 319.965 62.798,323.279 62.748,324.500 61.600 C 324.821 61.299,325.323 60.889,325.615 60.688 C 326.683 59.958,327.615 56.207,327.090 54.756 C 326.956 54.386,326.690 53.538,326.499 52.872 C 326.198 51.825,326.067 51.607,325.534 51.265 C 325.194 51.048,324.664 50.641,324.356 50.361 C 323.469 49.558,321.693 49.300,319.969 49.724 M355.606 49.845 L 355.167 50.191 355.167 56.000 L 355.167 61.809 355.606 62.155 C 356.258 62.668,357.547 62.635,358.091 62.091 L 358.500 61.682 358.500 56.000 L 358.500 50.318 358.091 49.909 C 357.547 49.365,356.258 49.332,355.606 49.845 M364.635 49.723 C 363.954 49.915,363.338 50.342,362.114 51.471 C 361.686 51.867,361.061 53.497,360.819 54.849 C 360.505 56.607,361.205 59.680,362.114 60.534 C 363.763 62.081,364.662 62.500,366.333 62.500 C 368.107 62.500,368.855 62.136,370.750 60.350 C 370.933 60.177,371.258 59.446,371.472 58.726 C 371.686 58.006,371.893 57.315,371.932 57.191 C 372.005 56.957,372.771 57.049,373.055 57.325 C 373.313 57.576,373.492 58.746,373.496 60.204 C 373.501 62.162,374.479 62.896,376.034 62.111 L 376.750 61.750 376.839 57.684 L 376.928 53.618 377.628 52.997 L 378.328 52.376 379.246 52.632 C 380.710 53.039,380.715 53.056,380.803 57.805 C 380.890 62.526,380.881 62.500,382.419 62.500 C 384.043 62.500,384.044 62.497,383.964 57.139 C 383.884 51.799,383.948 52.050,382.161 50.066 C 381.720 49.576,380.344 49.465,378.378 49.760 C 377.016 49.964,376.674 49.966,376.009 49.768 C 375.370 49.578,375.122 49.575,374.614 49.750 C 373.536 50.120,373.500 50.196,373.500 52.093 C 373.500 54.370,373.261 54.991,372.381 54.997 C 371.928 55.001,371.794 54.754,371.396 53.189 C 371.072 51.917,370.922 51.704,369.667 50.741 C 368.183 49.602,366.367 49.235,364.635 49.723 M228.928 53.095 C 231.239 54.949,229.819 60.029,227.157 59.429 C 225.897 59.145,225.566 58.687,225.419 57.021 C 225.168 54.194,225.665 52.911,227.141 52.572 C 228.026 52.368,228.018 52.365,228.928 53.095 M293.016 52.604 C 294.773 53.179,294.537 54.333,292.662 54.333 C 290.528 54.333,289.818 53.759,290.939 52.937 C 291.875 52.250,291.913 52.244,293.016 52.604 M322.795 52.910 C 324.888 54.671,323.941 59.500,321.501 59.500 C 320.122 59.500,319.341 58.265,319.336 56.071 C 319.329 53.201,321.156 51.531,322.795 52.910 M367.619 52.902 C 368.202 53.393,368.667 54.767,368.667 56.000 C 368.667 59.747,365.338 61.040,364.338 57.682 C 363.343 54.341,365.534 51.148,367.619 52.902 M273.169 56.671 C 274.474 59.109,271.625 60.959,270.272 58.553 C 270.143 58.324,270.602 57.052,270.968 56.625 C 271.349 56.181,272.924 56.214,273.169 56.671  M -25 0 L -5 0 L -5 20 L -25 20 Z M 405 0 L 425 0 L 425 20 L 405 20 Z" stroke="none" fill="#f04306" fill-rule="evenodd" transform="translate(30,0)"></path><path id="path1" d="M45.190 13.226 C 44.733 13.711,44.883 14.616,45.668 16.123 C 45.943 16.651,46.313 17.753,46.491 18.571 C 46.668 19.389,47.044 20.514,47.326 21.071 C 47.608 21.628,47.959 22.683,48.105 23.417 C 48.302 24.409,48.488 24.878,48.832 25.250 C 49.480 25.952,49.667 26.377,49.667 27.148 C 49.667 28.245,50.010 29.555,50.414 30.000 C 50.977 30.619,51.121 30.980,51.248 32.083 C 51.422 33.598,51.656 34.374,52.077 34.833 C 52.639 35.446,52.833 35.902,52.835 36.614 C 52.838 37.617,53.241 38.875,53.810 39.661 C 54.098 40.058,54.333 40.488,54.333 40.616 C 54.333 41.915,60.777 42.189,61.818 40.935 C 61.968 40.755,62.141 39.853,62.438 37.717 C 62.479 37.424,62.762 36.884,63.069 36.517 C 63.542 35.952,63.655 35.642,63.819 34.467 C 64.111 32.365,64.147 32.248,64.682 31.650 C 64.955 31.344,65.220 30.903,65.271 30.672 C 65.611 29.118,66.069 27.692,66.418 27.095 C 66.643 26.713,66.939 25.803,67.077 25.075 C 67.216 24.337,67.583 23.233,67.906 22.583 C 68.225 21.942,68.567 20.948,68.667 20.375 C 68.900 19.033,69.189 18.227,69.714 17.455 C 69.953 17.101,70.186 16.455,70.253 15.958 C 70.318 15.477,70.507 14.723,70.673 14.282 L 70.975 13.480 70.446 13.157 C 69.980 12.873,69.593 12.835,67.229 12.834 C 64.231 12.833,64.411 12.767,63.713 14.132 C 63.493 14.563,63.172 15.179,63.000 15.500 C 62.828 15.821,62.603 16.721,62.500 17.500 C 62.366 18.509,62.123 19.328,61.656 20.349 C 61.295 21.136,61.000 22.002,61.000 22.272 C 61.000 22.986,60.551 24.622,60.091 25.583 C 59.608 26.594,59.397 27.405,59.244 28.833 C 59.130 29.894,58.639 31.167,58.345 31.167 C 58.172 31.167,57.544 30.422,57.131 29.729 C 56.974 29.466,56.681 29.047,56.479 28.799 C 56.198 28.454,56.063 27.942,55.902 26.619 C 55.739 25.276,55.541 24.536,55.013 23.300 C 54.639 22.425,54.333 21.491,54.333 21.223 C 54.333 20.399,53.840 18.782,53.390 18.130 C 53.085 17.688,52.914 17.139,52.793 16.214 C 52.359 12.880,52.324 12.853,48.321 12.841 C 45.630 12.834,45.548 12.844,45.190 13.226 M73.250 13.167 C 72.890 13.350,72.497 13.500,72.376 13.500 C 72.194 13.500,72.193 13.567,72.369 13.875 C 72.538 14.170,72.593 17.101,72.630 27.608 L 72.676 40.967 73.296 41.275 C 73.877 41.564,74.494 41.583,82.941 41.583 C 93.717 41.583,92.667 41.844,92.667 39.167 C 92.667 36.625,93.217 36.833,86.487 36.833 C 81.228 36.832,80.886 36.814,80.375 36.502 L 79.833 36.172 79.833 32.788 L 79.833 29.405 80.317 29.119 C 80.740 28.870,81.339 28.833,85.026 28.829 C 91.075 28.824,91.000 28.855,91.000 26.327 C 91.000 23.945,91.375 24.102,85.416 24.000 C 79.292 23.895,79.833 24.211,79.833 20.743 C 79.833 17.378,79.163 17.700,86.295 17.635 C 93.202 17.572,92.667 17.780,92.667 15.167 C 92.667 13.652,92.621 13.344,92.362 13.109 C 91.844 12.641,74.177 12.694,73.250 13.167 M102.666 13.058 C 101.814 13.288,100.602 14.091,99.570 15.110 C 99.184 15.491,98.669 15.933,98.426 16.093 C 98.182 16.252,97.864 16.615,97.719 16.900 C 97.573 17.184,97.240 17.690,96.978 18.023 C 96.505 18.624,95.878 20.273,95.083 23.000 C 94.297 25.699,94.611 31.361,95.655 33.312 C 95.753 33.495,95.950 34.155,96.094 34.780 C 96.288 35.625,96.498 36.066,96.910 36.500 C 97.215 36.821,97.615 37.383,97.800 37.750 C 98.151 38.449,99.566 39.833,99.929 39.833 C 100.046 39.833,100.503 40.110,100.946 40.449 C 102.194 41.405,102.744 41.533,106.000 41.624 C 109.120 41.712,111.458 41.514,112.362 41.086 C 114.163 40.235,116.213 38.663,116.605 37.833 C 116.756 37.512,117.163 36.940,117.508 36.562 C 118.059 35.959,118.151 35.736,118.257 34.746 C 118.452 32.924,118.424 32.454,118.078 31.750 L 117.750 31.083 116.333 31.031 C 112.845 30.900,112.464 31.102,111.909 33.365 C 111.721 34.131,111.509 34.597,111.272 34.761 C 108.507 36.683,108.057 36.893,106.902 36.797 C 106.280 36.746,105.815 36.581,105.324 36.237 C 104.941 35.969,104.244 35.523,103.776 35.246 C 102.314 34.381,101.751 31.837,101.881 26.691 C 102.013 21.490,102.324 20.353,103.896 19.302 C 104.458 18.927,105.125 18.427,105.381 18.190 C 106.380 17.264,108.241 17.482,109.907 18.719 C 110.300 19.011,110.846 19.372,111.121 19.521 C 111.544 19.750,111.665 19.972,111.912 20.979 C 112.418 23.047,113.013 23.385,115.991 23.300 L 117.732 23.250 118.062 22.685 C 118.655 21.667,118.298 18.805,117.486 18.071 C 117.290 17.894,116.942 17.375,116.711 16.917 C 116.157 15.818,115.436 15.077,114.417 14.556 C 113.958 14.322,113.396 13.955,113.167 13.741 C 112.248 12.881,105.055 12.414,102.666 13.058 M120.280 13.134 C 120.055 13.382,120.000 13.788,120.000 15.192 C 120.000 17.745,119.874 17.667,124.015 17.667 C 126.682 17.667,127.325 17.713,127.630 17.926 L 128.000 18.186 128.000 29.478 C 128.000 38.374,128.045 40.831,128.213 41.061 C 128.756 41.804,133.390 41.959,134.091 41.258 L 134.500 40.848 134.500 29.533 C 134.500 18.968,134.519 18.201,134.792 17.957 C 135.034 17.740,135.731 17.687,138.946 17.640 C 143.884 17.568,143.728 17.645,143.797 15.222 C 143.870 12.660,145.216 12.925,131.846 12.871 C 121.032 12.826,120.548 12.837,120.280 13.134 M152.990 12.988 C 152.664 13.052,151.942 13.380,151.385 13.719 C 150.828 14.057,150.282 14.333,150.170 14.333 C 149.944 14.333,147.567 16.714,146.687 17.820 C 146.284 18.328,145.970 19.056,145.580 20.389 C 145.280 21.413,144.916 22.527,144.770 22.865 C 143.927 24.816,144.037 29.251,145.002 32.167 C 145.350 33.221,145.684 34.318,145.743 34.605 C 146.080 36.236,148.861 39.289,151.247 40.648 C 153.602 41.989,161.587 42.051,162.678 40.736 C 162.798 40.591,163.315 40.262,163.826 40.004 C 164.715 39.555,166.333 38.046,166.333 37.667 C 166.333 37.567,166.663 37.133,167.067 36.701 C 167.655 36.072,167.825 35.751,167.922 35.083 C 168.061 34.120,168.225 33.745,168.758 33.167 C 169.287 32.592,169.500 30.872,169.500 27.167 C 169.500 23.462,169.287 21.742,168.758 21.167 C 168.219 20.582,168.051 20.204,167.910 19.264 C 167.813 18.618,167.654 18.317,167.158 17.847 C 166.813 17.519,166.392 16.972,166.223 16.633 C 165.907 15.998,164.300 14.500,163.933 14.500 C 163.820 14.500,163.331 14.205,162.847 13.844 C 162.317 13.448,161.640 13.117,161.142 13.010 C 160.243 12.817,153.949 12.800,152.990 12.988 M173.196 13.219 L 172.833 13.605 172.833 27.201 C 172.833 40.306,172.845 40.811,173.150 41.187 C 173.575 41.712,178.026 41.906,178.751 41.431 L 179.167 41.159 179.167 36.194 C 179.167 30.079,178.983 30.500,181.647 30.500 C 183.729 30.500,183.836 30.561,184.158 31.941 C 184.277 32.452,184.528 32.957,184.778 33.191 C 185.328 33.704,185.600 34.252,185.748 35.144 C 185.828 35.626,186.063 36.086,186.443 36.507 C 187.026 37.153,187.333 37.902,187.333 38.681 C 187.333 39.250,188.598 41.123,189.188 41.428 C 190.450 42.080,195.500 41.612,195.500 40.842 C 195.500 40.461,194.755 38.714,194.420 38.312 C 194.220 38.071,193.880 37.396,193.666 36.812 C 193.451 36.228,193.067 35.450,192.813 35.083 C 192.558 34.717,192.185 33.967,191.983 33.417 C 191.780 32.867,191.434 32.177,191.212 31.885 C 189.840 30.075,189.945 29.511,192.001 27.644 C 194.832 25.074,196.025 19.947,194.245 18.000 C 194.036 17.771,193.741 17.283,193.591 16.917 C 193.250 16.086,192.130 14.914,191.250 14.468 C 190.883 14.283,190.356 13.915,190.078 13.651 C 189.292 12.906,188.461 12.833,180.673 12.833 L 173.558 12.833 173.196 13.219 M204.556 12.982 C 204.174 13.048,203.574 13.292,203.222 13.524 C 202.871 13.757,202.155 14.198,201.632 14.504 C 200.680 15.062,199.083 16.989,198.668 18.080 C 198.291 19.070,198.460 23.061,198.904 23.684 C 199.126 23.995,199.533 24.632,199.807 25.099 C 200.418 26.137,201.133 26.760,202.017 27.025 C 202.385 27.135,203.011 27.511,203.408 27.860 C 203.914 28.306,204.396 28.552,205.023 28.687 C 205.515 28.792,206.479 29.171,207.167 29.530 C 208.047 29.991,208.712 30.212,209.417 30.281 C 213.268 30.659,214.299 35.159,210.862 36.595 C 209.984 36.962,207.385 36.916,206.750 36.522 C 205.993 36.052,204.500 34.553,204.500 34.263 C 204.500 32.382,202.087 31.535,198.572 32.182 C 197.047 32.463,196.748 33.405,197.757 34.750 C 197.964 35.025,198.282 35.752,198.464 36.365 C 198.877 37.755,200.343 39.330,202.008 40.171 C 202.588 40.464,203.255 40.845,203.490 41.018 C 204.984 42.118,214.530 41.794,215.647 40.604 C 215.854 40.383,216.347 40.080,216.741 39.929 C 218.629 39.208,221.005 33.733,219.952 32.530 C 219.528 32.046,219.217 31.279,219.109 30.448 C 218.939 29.152,215.797 26.290,213.957 25.755 C 213.459 25.610,212.716 25.279,212.306 25.019 C 211.404 24.447,210.725 24.221,209.454 24.073 C 208.845 24.002,208.293 23.816,207.954 23.568 C 207.658 23.352,207.047 22.967,206.596 22.713 C 204.489 21.525,204.210 20.090,205.850 18.881 C 207.173 17.905,207.501 17.787,209.115 17.702 L 210.649 17.622 211.732 18.662 C 212.649 19.543,212.861 19.858,213.119 20.722 C 213.498 21.988,213.857 22.135,216.619 22.154 C 219.541 22.174,220.680 21.172,219.674 19.466 C 219.483 19.142,219.214 18.447,219.077 17.920 C 218.664 16.334,216.776 14.524,214.167 13.214 C 213.538 12.899,206.084 12.719,204.556 12.982 M230.345 13.006 C 229.911 13.096,229.396 13.361,229.095 13.647 C 228.814 13.916,228.081 14.361,227.467 14.637 C 226.613 15.020,226.241 15.302,225.884 15.834 C 225.627 16.217,225.184 16.805,224.900 17.140 C 224.616 17.476,224.158 18.200,223.883 18.750 C 223.608 19.300,223.214 20.069,223.007 20.459 C 222.106 22.159,222.087 32.037,222.981 33.833 C 224.723 37.333,226.564 39.638,227.842 39.918 C 228.100 39.975,228.638 40.309,229.037 40.660 C 230.457 41.911,238.061 42.098,239.845 40.926 C 240.172 40.711,240.884 40.307,241.428 40.028 C 242.570 39.441,244.200 37.729,245.057 36.214 C 245.357 35.684,245.730 35.057,245.885 34.821 C 246.064 34.548,246.232 33.740,246.347 32.600 C 246.472 31.353,246.650 30.545,246.929 29.945 C 247.523 28.668,247.522 25.713,246.926 24.448 C 246.643 23.847,246.464 23.054,246.341 21.847 C 246.221 20.660,246.062 19.948,245.841 19.597 C 245.664 19.314,245.246 18.584,244.913 17.973 C 244.170 16.611,242.446 14.906,241.081 14.183 C 240.532 13.892,239.821 13.489,239.500 13.286 C 238.854 12.877,231.979 12.667,230.345 13.006 M251.426 13.204 C 251.196 13.532,251.167 15.143,251.167 27.258 L 251.167 40.942 251.572 41.323 C 251.964 41.691,252.064 41.702,254.390 41.642 C 257.799 41.554,257.500 42.088,257.500 36.089 C 257.500 32.159,257.545 31.169,257.736 30.907 C 257.959 30.602,258.268 30.578,262.969 30.500 C 269.099 30.398,268.667 30.587,268.667 28.000 C 268.667 25.413,269.099 25.602,262.969 25.500 C 256.858 25.398,257.500 25.858,257.500 21.581 C 257.500 17.254,256.746 17.706,264.083 17.634 C 269.107 17.585,270.004 17.538,270.542 17.297 C 271.137 17.030,271.202 17.032,271.875 17.338 C 272.499 17.621,272.986 17.660,275.952 17.663 C 280.567 17.668,280.000 15.986,280.000 29.669 L 280.000 40.942 280.406 41.323 C 280.797 41.691,280.897 41.702,283.224 41.642 C 286.743 41.551,286.333 43.130,286.333 29.647 L 286.333 18.346 286.688 18.016 C 287.015 17.711,287.322 17.681,290.563 17.634 C 293.608 17.590,294.169 17.541,294.714 17.270 L 295.344 16.957 295.297 15.187 L 295.250 13.417 294.667 13.125 C 293.812 12.698,272.677 12.675,271.785 13.100 C 271.273 13.345,271.161 13.345,270.441 13.100 C 269.759 12.869,268.468 12.833,260.670 12.833 L 251.686 12.833 251.426 13.204 M335.417 12.974 C 333.439 13.336,330.041 16.326,329.677 18.026 C 329.572 18.513,329.321 19.175,329.118 19.497 C 328.756 20.074,328.749 20.202,328.667 27.667 C 328.578 35.750,328.580 35.730,327.742 36.568 C 327.373 36.937,327.184 36.900,327.003 36.425 C 326.668 35.544,326.341 35.500,320.133 35.499 L 314.417 35.498 313.917 35.098 L 313.417 34.699 313.333 24.391 C 313.273 16.884,313.196 13.990,313.052 13.739 C 312.631 13.005,308.544 12.685,307.336 13.292 C 306.132 13.896,306.159 13.538,306.207 28.052 L 306.250 40.917 307.000 41.295 L 307.750 41.674 316.917 41.629 C 325.265 41.587,326.134 41.557,326.651 41.292 C 327.377 40.918,328.623 40.918,329.349 41.292 C 330.191 41.725,333.823 41.713,334.706 41.274 L 335.328 40.964 335.377 31.191 C 335.437 19.222,335.448 19.167,337.570 19.167 C 339.731 19.167,339.716 19.091,339.826 31.083 L 339.917 40.917 340.667 41.302 C 341.698 41.832,345.060 41.793,346.000 41.241 L 346.583 40.898 346.671 30.907 C 346.776 18.865,346.719 19.167,348.882 19.167 C 350.901 19.167,350.894 19.124,350.997 31.000 L 351.083 40.917 351.827 41.292 C 352.465 41.613,352.834 41.667,354.417 41.667 C 356.000 41.667,356.369 41.613,357.006 41.292 L 357.750 40.917 357.750 30.653 L 357.750 20.389 357.312 19.569 C 357.071 19.119,356.780 18.349,356.666 17.858 C 356.388 16.664,354.698 14.924,352.667 13.741 L 351.250 12.917 348.833 12.917 C 346.660 12.917,346.349 12.953,345.750 13.282 C 343.109 14.729,343.132 14.727,341.154 13.549 C 340.113 12.929,337.239 12.641,335.417 12.974 M362.872 13.114 C 361.694 13.275,361.755 12.521,361.704 27.504 L 361.657 40.940 362.013 41.262 C 362.352 41.567,362.678 41.583,368.644 41.583 L 374.918 41.583 375.751 41.144 C 376.209 40.903,377.060 40.457,377.643 40.153 C 378.225 39.849,378.820 39.421,378.965 39.200 C 379.109 38.980,379.498 38.628,379.828 38.420 C 380.159 38.211,380.613 37.772,380.838 37.443 C 381.063 37.115,381.424 36.752,381.639 36.637 C 381.854 36.522,382.170 36.154,382.340 35.819 C 382.511 35.485,382.842 34.984,383.075 34.707 C 383.513 34.187,384.179 32.402,384.951 29.685 C 385.515 27.695,385.359 25.225,384.613 24.338 C 384.235 23.889,383.833 22.608,383.833 21.850 C 383.833 21.685,383.622 21.258,383.365 20.900 C 383.107 20.543,382.683 19.858,382.423 19.379 C 381.858 18.335,380.072 16.573,378.917 15.918 C 378.458 15.658,377.896 15.279,377.667 15.077 C 377.438 14.874,376.725 14.538,376.083 14.331 C 375.442 14.123,374.542 13.759,374.083 13.521 L 373.250 13.089 368.333 13.064 C 365.629 13.050,363.171 13.073,362.872 13.114 M158.651 18.232 C 158.889 18.458,159.462 18.832,159.926 19.064 C 161.094 19.648,161.242 19.859,161.813 21.750 C 162.090 22.667,162.486 23.867,162.693 24.417 C 163.297 26.018,163.268 29.866,162.646 30.682 C 162.405 30.999,162.047 31.844,161.850 32.561 C 161.354 34.368,161.110 34.769,160.205 35.255 C 159.771 35.487,159.110 35.906,158.736 36.184 C 157.503 37.102,156.001 37.047,154.841 36.040 C 152.064 33.627,152.115 33.708,151.665 31.071 C 151.128 27.931,151.340 23.013,152.090 21.228 C 153.091 18.845,157.282 16.931,158.651 18.232 M185.634 18.004 C 188.592 19.807,188.503 23.665,185.467 25.263 C 184.642 25.697,179.936 25.596,179.506 25.135 C 178.967 24.556,178.986 18.630,179.529 18.052 C 180.052 17.496,184.741 17.459,185.634 18.004 M236.487 18.435 C 237.709 19.029,238.667 19.737,238.667 20.046 C 238.667 20.128,238.889 20.508,239.161 20.889 C 240.633 22.953,240.610 31.495,239.128 33.642 C 237.049 36.653,234.795 37.383,232.250 35.870 C 231.700 35.543,231.088 35.179,230.890 35.061 C 230.688 34.939,230.406 34.469,230.243 33.980 C 230.085 33.503,229.726 32.787,229.445 32.388 C 228.289 30.749,228.344 23.660,229.528 21.726 C 229.857 21.189,230.181 20.563,230.249 20.333 C 230.438 19.697,230.823 19.345,231.916 18.809 C 232.466 18.539,233.179 18.168,233.500 17.984 C 234.253 17.554,234.861 17.645,236.487 18.435 M371.293 19.417 C 371.866 19.553,372.616 19.845,372.959 20.067 C 373.303 20.290,374.013 20.558,374.538 20.664 C 375.276 20.812,375.579 20.968,375.872 21.351 C 376.080 21.623,376.457 22.097,376.710 22.405 C 377.324 23.152,377.742 24.133,378.353 26.266 L 378.863 28.044 378.348 29.347 C 378.065 30.064,377.833 30.732,377.833 30.832 C 377.833 31.586,375.392 34.271,374.083 34.957 C 373.761 35.126,372.760 35.277,371.263 35.384 L 368.943 35.550 368.472 35.023 L 368.000 34.495 368.000 27.240 L 368.000 19.985 368.409 19.576 C 368.897 19.088,369.706 19.043,371.293 19.417  M -25 0 L -5 0 L -5 20 L -25 20 Z M 405 0 L 425 0 L 425 20 L 405 20 Z" stroke="none" fill="#f1f0d9" fill-rule="evenodd" transform="translate(490,0)"></path><path id="path2" d="M0.000 40.000 L 0.000 80.000 200.000 80.000 L 400.000 80.000 400.000 40.000 L 400.000 0.000 200.000 0.000 L 0.000 0.000 0.000 40.000 M51.661 13.133 C 52.315 13.454,52.499 13.955,52.793 16.214 C 52.914 17.139,53.085 17.688,53.390 18.130 C 53.840 18.782,54.333 20.399,54.333 21.223 C 54.333 21.491,54.639 22.425,55.013 23.300 C 55.541 24.536,55.739 25.276,55.902 26.619 C 56.063 27.942,56.198 28.454,56.479 28.799 C 56.681 29.047,56.974 29.466,57.131 29.729 C 57.544 30.422,58.172 31.167,58.345 31.167 C 58.639 31.167,59.130 29.894,59.244 28.833 C 59.397 27.405,59.608 26.594,60.091 25.583 C 60.551 24.622,61.000 22.986,61.000 22.272 C 61.000 22.002,61.295 21.136,61.656 20.349 C 62.123 19.328,62.366 18.509,62.500 17.500 C 62.603 16.721,62.828 15.821,63.000 15.500 C 63.172 15.179,63.493 14.563,63.713 14.132 C 64.411 12.767,64.231 12.833,67.229 12.834 C 69.593 12.835,69.980 12.873,70.446 13.157 L 70.975 13.480 70.673 14.282 C 70.507 14.723,70.318 15.477,70.253 15.958 C 70.186 16.455,69.953 17.101,69.714 17.455 C 69.189 18.227,68.900 19.033,68.667 20.375 C 68.567 20.948,68.225 21.942,67.906 22.583 C 67.583 23.233,67.216 24.337,67.077 25.075 C 66.939 25.803,66.643 26.713,66.418 27.095 C 66.069 27.692,65.611 29.118,65.271 30.672 C 65.220 30.903,64.955 31.344,64.682 31.650 C 64.147 32.248,64.111 32.365,63.819 34.467 C 63.655 35.642,63.542 35.952,63.069 36.517 C 62.762 36.884,62.479 37.424,62.438 37.717 C 62.141 39.853,61.968 40.755,61.818 40.935 C 60.777 42.189,54.333 41.915,54.333 40.616 C 54.333 40.488,54.098 40.058,53.810 39.661 C 53.241 38.875,52.838 37.617,52.835 36.614 C 52.833 35.902,52.639 35.446,52.077 34.833 C 51.656 34.374,51.422 33.598,51.248 32.083 C 51.121 30.980,50.977 30.619,50.414 30.000 C 50.010 29.555,49.667 28.245,49.667 27.148 C 49.667 26.377,49.480 25.952,48.832 25.250 C 48.488 24.878,48.302 24.409,48.105 23.417 C 47.959 22.683,47.608 21.628,47.326 21.071 C 47.044 20.514,46.668 19.389,46.491 18.571 C 46.313 17.753,45.943 16.651,45.668 16.123 C 44.883 14.616,44.733 13.711,45.190 13.226 C 45.680 12.704,50.642 12.633,51.661 13.133 M92.362 13.109 C 92.621 13.344,92.667 13.652,92.667 15.167 C 92.667 17.780,93.202 17.572,86.295 17.635 C 79.163 17.700,79.833 17.378,79.833 20.743 C 79.833 24.211,79.292 23.895,85.416 24.000 C 91.375 24.102,91.000 23.945,91.000 26.327 C 91.000 28.855,91.075 28.824,85.026 28.829 C 81.339 28.833,80.740 28.870,80.317 29.119 L 79.833 29.405 79.833 32.788 L 79.833 36.172 80.375 36.502 C 80.886 36.814,81.228 36.832,86.487 36.833 C 93.217 36.833,92.667 36.625,92.667 39.167 C 92.667 41.844,93.717 41.583,82.941 41.583 C 74.494 41.583,73.877 41.564,73.296 41.275 L 72.676 40.967 72.630 27.608 C 72.593 17.101,72.538 14.170,72.369 13.875 C 72.193 13.567,72.194 13.500,72.376 13.500 C 72.497 13.500,72.890 13.350,73.250 13.167 C 74.177 12.694,91.844 12.641,92.362 13.109 M111.757 13.092 C 112.303 13.234,112.937 13.526,113.167 13.741 C 113.396 13.955,113.958 14.322,114.417 14.556 C 115.436 15.077,116.157 15.818,116.711 16.917 C 116.942 17.375,117.290 17.894,117.486 18.071 C 118.298 18.805,118.655 21.667,118.062 22.685 L 117.732 23.250 115.991 23.300 C 113.013 23.385,112.418 23.047,111.912 20.979 C 111.665 19.972,111.544 19.750,111.121 19.521 C 110.846 19.372,110.300 19.011,109.907 18.719 C 108.241 17.482,106.380 17.264,105.381 18.190 C 105.125 18.427,104.458 18.927,103.896 19.302 C 102.324 20.353,102.013 21.490,101.881 26.691 C 101.751 31.837,102.314 34.381,103.776 35.246 C 104.244 35.523,104.941 35.969,105.324 36.237 C 105.815 36.581,106.280 36.746,106.902 36.797 C 108.057 36.893,108.507 36.683,111.272 34.761 C 111.509 34.597,111.721 34.131,111.909 33.365 C 112.464 31.102,112.845 30.900,116.333 31.031 L 117.750 31.083 118.078 31.750 C 118.424 32.454,118.452 32.924,118.257 34.746 C 118.151 35.736,118.059 35.959,117.508 36.562 C 117.163 36.940,116.756 37.512,116.605 37.833 C 116.213 38.663,114.163 40.235,112.362 41.086 C 111.458 41.514,109.120 41.712,106.000 41.624 C 102.744 41.533,102.194 41.405,100.946 40.449 C 100.503 40.110,100.046 39.833,99.929 39.833 C 99.566 39.833,98.151 38.449,97.800 37.750 C 97.615 37.383,97.215 36.821,96.910 36.500 C 96.498 36.066,96.288 35.625,96.094 34.780 C 95.950 34.155,95.753 33.495,95.655 33.312 C 94.611 31.361,94.297 25.699,95.083 23.000 C 95.878 20.273,96.505 18.624,96.978 18.023 C 97.240 17.690,97.573 17.184,97.719 16.900 C 97.864 16.615,98.182 16.252,98.426 16.093 C 98.669 15.933,99.184 15.491,99.570 15.110 C 100.602 14.091,101.814 13.288,102.666 13.058 C 103.843 12.741,110.503 12.765,111.757 13.092 M143.488 13.239 C 143.814 13.534,143.840 13.705,143.797 15.222 C 143.728 17.645,143.884 17.568,138.946 17.640 C 135.731 17.687,135.034 17.740,134.792 17.957 C 134.519 18.201,134.500 18.968,134.500 29.533 L 134.500 40.848 134.091 41.258 C 133.390 41.959,128.756 41.804,128.213 41.061 C 128.045 40.831,128.000 38.374,128.000 29.478 L 128.000 18.186 127.630 17.926 C 127.325 17.713,126.682 17.667,124.015 17.667 C 119.874 17.667,120.000 17.745,120.000 15.192 C 120.000 12.537,118.573 12.816,131.846 12.871 C 142.737 12.915,143.144 12.928,143.488 13.239 M161.142 13.010 C 161.640 13.117,162.317 13.448,162.847 13.844 C 163.331 14.205,163.820 14.500,163.933 14.500 C 164.300 14.500,165.907 15.998,166.223 16.633 C 166.392 16.972,166.813 17.519,167.158 17.847 C 167.654 18.317,167.813 18.618,167.910 19.264 C 168.051 20.204,168.219 20.582,168.758 21.167 C 169.287 21.742,169.500 23.462,169.500 27.167 C 169.500 30.872,169.287 32.592,168.758 33.167 C 168.225 33.745,168.061 34.120,167.922 35.083 C 167.825 35.751,167.655 36.072,167.067 36.701 C 166.663 37.133,166.333 37.567,166.333 37.667 C 166.333 38.046,164.715 39.555,163.826 40.004 C 163.315 40.262,162.798 40.591,162.678 40.736 C 161.587 42.051,153.602 41.989,151.247 40.648 C 148.861 39.289,146.080 36.236,145.743 34.605 C 145.684 34.318,145.350 33.221,145.002 32.167 C 144.037 29.251,143.927 24.816,144.770 22.865 C 144.916 22.527,145.280 21.413,145.580 20.389 C 145.970 19.056,146.284 18.328,146.687 17.820 C 147.567 16.714,149.944 14.333,150.170 14.333 C 150.282 14.333,150.828 14.057,151.385 13.719 C 151.942 13.380,152.664 13.052,152.990 12.988 C 153.949 12.800,160.243 12.817,161.142 13.010 M188.680 13.003 C 189.278 13.116,189.740 13.330,190.078 13.651 C 190.356 13.915,190.883 14.283,191.250 14.468 C 192.130 14.914,193.250 16.086,193.591 16.917 C 193.741 17.283,194.036 17.771,194.245 18.000 C 196.025 19.947,194.832 25.074,192.001 27.644 C 189.945 29.511,189.840 30.075,191.212 31.885 C 191.434 32.177,191.780 32.867,191.983 33.417 C 192.185 33.967,192.558 34.717,192.813 35.083 C 193.067 35.450,193.451 36.228,193.666 36.812 C 193.880 37.396,194.220 38.071,194.420 38.312 C 194.755 38.714,195.500 40.461,195.500 40.842 C 195.500 41.612,190.450 42.080,189.188 41.428 C 188.598 41.123,187.333 39.250,187.333 38.681 C 187.333 37.902,187.026 37.153,186.443 36.507 C 186.063 36.086,185.828 35.626,185.748 35.144 C 185.600 34.252,185.328 33.704,184.778 33.191 C 184.528 32.957,184.277 32.452,184.158 31.941 C 183.836 30.561,183.729 30.500,181.647 30.500 C 178.983 30.500,179.167 30.079,179.167 36.194 L 179.167 41.159 178.751 41.431 C 178.026 41.906,173.575 41.712,173.150 41.187 C 172.845 40.811,172.833 40.306,172.833 27.201 L 172.833 13.605 173.196 13.219 L 173.558 12.833 180.673 12.833 C 184.792 12.833,188.164 12.905,188.680 13.003 M214.167 13.214 C 216.776 14.524,218.664 16.334,219.077 17.920 C 219.214 18.447,219.483 19.142,219.674 19.466 C 220.680 21.172,219.541 22.174,216.619 22.154 C 213.857 22.135,213.498 21.988,213.119 20.722 C 212.861 19.858,212.649 19.543,211.732 18.662 L 210.649 17.622 209.115 17.702 C 207.501 17.787,207.173 17.905,205.850 18.881 C 204.210 20.090,204.489 21.525,206.596 22.713 C 207.047 22.967,207.658 23.352,207.954 23.568 C 208.293 23.816,208.845 24.002,209.454 24.073 C 210.725 24.221,211.404 24.447,212.306 25.019 C 212.716 25.279,213.459 25.610,213.957 25.755 C 215.797 26.290,218.939 29.152,219.109 30.448 C 219.217 31.279,219.528 32.046,219.952 32.530 C 221.005 33.733,218.629 39.208,216.741 39.929 C 216.347 40.080,215.854 40.383,215.647 40.604 C 214.530 41.794,204.984 42.118,203.490 41.018 C 203.255 40.845,202.588 40.464,202.008 40.171 C 200.343 39.330,198.877 37.755,198.464 36.365 C 198.282 35.752,197.964 35.025,197.757 34.750 C 196.748 33.405,197.047 32.463,198.572 32.182 C 202.087 31.535,204.500 32.382,204.500 34.263 C 204.500 34.553,205.993 36.052,206.750 36.522 C 207.385 36.916,209.984 36.962,210.862 36.595 C 214.299 35.159,213.268 30.659,209.417 30.281 C 208.712 30.212,208.047 29.991,207.167 29.530 C 206.479 29.171,205.515 28.792,205.023 28.687 C 204.396 28.552,203.914 28.306,203.408 27.860 C 203.011 27.511,202.385 27.135,202.017 27.025 C 201.133 26.760,200.418 26.137,199.807 25.099 C 199.533 24.632,199.126 23.995,198.904 23.684 C 198.460 23.061,198.291 19.070,198.668 18.080 C 199.083 16.989,200.680 15.062,201.632 14.504 C 202.155 14.198,202.871 13.757,203.222 13.524 C 204.133 12.922,204.750 12.859,209.417 12.892 C 213.021 12.917,213.662 12.961,214.167 13.214 M239.500 13.286 C 239.821 13.489,240.532 13.892,241.081 14.183 C 242.446 14.906,244.170 16.611,244.913 17.973 C 245.246 18.584,245.664 19.314,245.841 19.597 C 246.062 19.948,246.221 20.660,246.341 21.847 C 246.464 23.054,246.643 23.847,246.926 24.448 C 247.522 25.713,247.523 28.668,246.929 29.945 C 246.650 30.545,246.472 31.353,246.347 32.600 C 246.232 33.740,246.064 34.548,245.885 34.821 C 245.730 35.057,245.357 35.684,245.057 36.214 C 244.200 37.729,242.570 39.441,241.428 40.028 C 240.884 40.307,240.172 40.711,239.845 40.926 C 238.061 42.098,230.457 41.911,229.037 40.660 C 228.638 40.309,228.100 39.975,227.842 39.918 C 226.564 39.638,224.723 37.333,222.981 33.833 C 222.087 32.037,222.106 22.159,223.007 20.459 C 223.214 20.069,223.608 19.300,223.883 18.750 C 224.158 18.200,224.616 17.476,224.900 17.140 C 225.184 16.805,225.627 16.217,225.884 15.834 C 226.241 15.302,226.613 15.020,227.467 14.637 C 228.081 14.361,228.814 13.916,229.095 13.647 C 229.830 12.947,230.586 12.849,235.000 12.885 C 238.727 12.915,238.945 12.935,239.500 13.286 M270.441 13.100 C 271.161 13.345,271.273 13.345,271.785 13.100 C 272.677 12.675,293.812 12.698,294.667 13.125 L 295.250 13.417 295.297 15.187 L 295.344 16.957 294.714 17.270 C 294.169 17.541,293.608 17.590,290.563 17.634 C 287.322 17.681,287.015 17.711,286.688 18.016 L 286.333 18.346 286.333 29.647 C 286.333 43.130,286.743 41.551,283.224 41.642 C 280.897 41.702,280.797 41.691,280.406 41.323 L 280.000 40.942 280.000 29.669 C 280.000 15.986,280.567 17.668,275.952 17.663 C 272.986 17.660,272.499 17.621,271.875 17.338 C 271.202 17.032,271.137 17.030,270.542 17.297 C 270.004 17.538,269.107 17.585,264.083 17.634 C 256.746 17.706,257.500 17.254,257.500 21.581 C 257.500 25.858,256.858 25.398,262.969 25.500 C 269.099 25.602,268.667 25.413,268.667 28.000 C 268.667 30.587,269.099 30.398,262.969 30.500 C 258.268 30.578,257.959 30.602,257.736 30.907 C 257.545 31.169,257.500 32.159,257.500 36.089 C 257.500 42.088,257.799 41.554,254.390 41.642 C 252.064 41.702,251.964 41.691,251.572 41.323 L 251.167 40.942 251.167 27.258 C 251.167 15.143,251.196 13.532,251.426 13.204 L 251.686 12.833 260.670 12.833 C 268.468 12.833,269.759 12.869,270.441 13.100 M341.154 13.549 C 343.132 14.727,343.109 14.729,345.750 13.282 C 346.349 12.953,346.660 12.917,348.833 12.917 L 351.250 12.917 352.667 13.741 C 354.698 14.924,356.388 16.664,356.666 17.858 C 356.780 18.349,357.071 19.119,357.312 19.569 L 357.750 20.389 357.750 30.653 L 357.750 40.917 357.006 41.292 C 356.369 41.613,356.000 41.667,354.417 41.667 C 352.834 41.667,352.465 41.613,351.827 41.292 L 351.083 40.917 350.997 31.000 C 350.894 19.124,350.901 19.167,348.882 19.167 C 346.719 19.167,346.776 18.865,346.671 30.907 L 346.583 40.898 346.000 41.241 C 345.060 41.793,341.698 41.832,340.667 41.302 L 339.917 40.917 339.826 31.083 C 339.716 19.091,339.731 19.167,337.570 19.167 C 335.448 19.167,335.437 19.222,335.377 31.191 L 335.328 40.964 334.706 41.274 C 333.823 41.713,330.191 41.725,329.349 41.292 C 328.623 40.918,327.377 40.918,326.651 41.292 C 326.134 41.557,325.265 41.587,316.917 41.629 L 307.750 41.674 307.000 41.295 L 306.250 40.917 306.207 28.052 C 306.159 13.538,306.132 13.896,307.336 13.292 C 308.544 12.685,312.631 13.005,313.052 13.739 C 313.196 13.990,313.273 16.884,313.333 24.391 L 313.417 34.699 313.917 35.098 L 314.417 35.498 320.133 35.499 C 326.341 35.500,326.668 35.544,327.003 36.425 C 327.184 36.900,327.373 36.937,327.742 36.568 C 328.580 35.730,328.578 35.750,328.667 27.667 C 328.749 20.202,328.756 20.074,329.118 19.497 C 329.321 19.175,329.572 18.513,329.677 18.026 C 330.041 16.326,333.439 13.336,335.417 12.974 C 337.239 12.641,340.113 12.929,341.154 13.549 M36.077 13.900 C 36.906 14.395,37.713 14.942,37.871 15.116 C 39.026 16.392,38.859 20.083,37.574 21.699 C 37.260 22.094,36.886 22.767,36.742 23.196 C 36.599 23.624,36.367 24.070,36.226 24.186 C 36.086 24.303,35.670 25.002,35.301 25.741 C 34.933 26.479,34.495 27.233,34.328 27.417 C 34.161 27.600,33.861 28.187,33.662 28.722 C 33.462 29.257,33.087 29.935,32.828 30.230 C 32.569 30.525,32.212 31.148,32.035 31.614 C 31.858 32.080,31.482 32.751,31.200 33.106 C 30.918 33.460,30.527 34.182,30.331 34.711 C 30.134 35.239,29.791 35.889,29.567 36.155 C 29.344 36.421,28.968 37.076,28.733 37.611 C 28.498 38.146,28.165 38.735,27.993 38.920 C 27.821 39.105,27.458 39.748,27.186 40.348 C 26.914 40.948,26.580 41.531,26.444 41.644 C 26.309 41.756,25.987 42.351,25.730 42.966 C 25.473 43.580,25.048 44.346,24.786 44.667 C 24.525 44.987,24.133 45.690,23.916 46.228 C 23.699 46.766,23.366 47.371,23.177 47.572 C 22.987 47.774,22.650 48.405,22.426 48.975 C 22.203 49.545,21.842 50.223,21.623 50.483 C 20.878 51.369,20.727 51.968,21.146 52.387 L 21.509 52.750 110.630 52.833 C 193.585 52.911,199.785 52.936,200.250 53.196 C 201.023 53.627,202.769 55.518,202.979 56.150 C 203.698 58.317,202.131 61.401,199.912 62.183 C 198.706 62.609,12.134 62.525,11.275 62.098 C 10.466 61.696,8.625 59.850,8.254 59.068 C 7.693 57.887,7.946 54.741,8.690 53.645 C 9.024 53.153,9.459 52.376,9.657 51.919 C 9.854 51.462,10.158 50.937,10.330 50.752 C 10.503 50.568,10.879 49.892,11.166 49.250 C 11.453 48.608,11.861 47.896,12.073 47.667 C 12.286 47.438,12.589 46.849,12.748 46.360 C 12.907 45.870,13.250 45.227,13.510 44.931 C 13.770 44.635,14.138 43.977,14.328 43.469 C 14.518 42.962,14.923 42.217,15.227 41.815 C 15.532 41.412,15.880 40.821,16.001 40.500 C 16.121 40.179,16.398 39.675,16.615 39.380 C 16.832 39.085,17.223 38.372,17.483 37.796 C 17.743 37.221,18.146 36.548,18.378 36.301 C 18.611 36.054,18.931 35.454,19.091 34.967 C 19.250 34.481,19.627 33.808,19.928 33.472 C 20.228 33.136,20.605 32.445,20.765 31.938 C 20.925 31.430,21.299 30.734,21.595 30.391 C 21.891 30.049,22.213 29.502,22.311 29.176 C 22.409 28.850,22.829 28.066,23.244 27.434 C 23.660 26.801,24.000 26.191,24.000 26.077 C 24.000 25.964,24.277 25.469,24.615 24.977 C 24.953 24.485,25.371 23.708,25.544 23.250 C 25.717 22.792,26.032 22.229,26.244 22.000 C 26.686 21.521,27.071 20.789,27.231 20.121 C 27.292 19.866,27.592 19.379,27.897 19.037 C 28.202 18.696,28.583 18.019,28.742 17.533 C 29.346 15.694,31.714 13.433,33.333 13.149 C 34.421 12.959,34.567 12.999,36.077 13.900 M374.083 13.521 C 374.542 13.759,375.442 14.123,376.083 14.331 C 376.725 14.538,377.438 14.874,377.667 15.077 C 377.896 15.279,378.458 15.658,378.917 15.918 C 380.072 16.573,381.858 18.335,382.423 19.379 C 382.683 19.858,383.107 20.543,383.365 20.900 C 383.622 21.258,383.833 21.685,383.833 21.850 C 383.833 22.608,384.235 23.889,384.613 24.338 C 385.359 25.225,385.515 27.695,384.951 29.685 C 384.179 32.402,383.513 34.187,383.075 34.707 C 382.842 34.984,382.511 35.485,382.340 35.819 C 382.170 36.154,381.854 36.522,381.639 36.637 C 381.424 36.752,381.063 37.115,380.838 37.443 C 380.613 37.772,380.159 38.211,379.828 38.420 C 379.498 38.628,379.109 38.980,378.965 39.200 C 378.820 39.421,378.225 39.849,377.643 40.153 C 377.060 40.457,376.209 40.903,375.751 41.144 L 374.918 41.583 368.644 41.583 C 362.678 41.583,362.352 41.567,362.013 41.262 L 361.657 40.940 361.704 27.504 C 361.746 15.093,361.772 14.035,362.038 13.628 C 362.421 13.045,362.542 13.034,368.333 13.064 L 373.250 13.089 374.083 13.521 M156.333 17.887 C 154.730 18.343,152.596 20.023,152.090 21.228 C 151.340 23.013,151.128 27.931,151.665 31.071 C 152.115 33.708,152.064 33.627,154.841 36.040 C 156.001 37.047,157.503 37.102,158.736 36.184 C 159.110 35.906,159.771 35.487,160.205 35.255 C 161.110 34.769,161.354 34.368,161.850 32.561 C 162.047 31.844,162.405 30.999,162.646 30.682 C 163.268 29.866,163.297 26.018,162.693 24.417 C 162.486 23.867,162.090 22.667,161.813 21.750 C 161.242 19.859,161.094 19.648,159.926 19.064 C 159.462 18.832,158.889 18.458,158.651 18.232 C 158.119 17.726,157.320 17.607,156.333 17.887 M179.529 18.052 C 178.986 18.630,178.967 24.556,179.506 25.135 C 179.936 25.596,184.642 25.697,185.467 25.263 C 188.503 23.665,188.592 19.807,185.634 18.004 C 184.741 17.459,180.052 17.496,179.529 18.052 M233.500 17.984 C 233.179 18.168,232.466 18.539,231.916 18.809 C 230.823 19.345,230.438 19.697,230.249 20.333 C 230.181 20.563,229.857 21.189,229.528 21.726 C 228.344 23.660,228.289 30.749,229.445 32.388 C 229.726 32.787,230.085 33.503,230.243 33.980 C 230.406 34.469,230.688 34.939,230.890 35.061 C 231.088 35.179,231.700 35.543,232.250 35.870 C 234.795 37.383,237.049 36.653,239.128 33.642 C 240.610 31.495,240.633 22.953,239.161 20.889 C 238.889 20.508,238.667 20.128,238.667 20.046 C 238.667 19.011,234.565 17.375,233.500 17.984 M368.409 19.576 L 368.000 19.985 368.000 27.240 L 368.000 34.495 368.472 35.023 L 368.943 35.550 371.263 35.384 C 372.760 35.277,373.761 35.126,374.083 34.957 C 375.392 34.271,377.833 31.586,377.833 30.832 C 377.833 30.732,378.065 30.064,378.348 29.347 L 378.863 28.044 378.353 26.266 C 377.742 24.133,377.324 23.152,376.710 22.405 C 376.457 22.097,376.080 21.623,375.872 21.351 C 375.579 20.968,375.276 20.812,374.538 20.664 C 374.013 20.558,373.303 20.290,372.959 20.067 C 371.583 19.176,369.079 18.905,368.409 19.576 M241.411 45.217 C 241.594 45.498,241.623 45.738,241.516 46.111 C 241.248 47.045,240.995 47.331,239.986 47.840 C 238.463 48.609,238.484 49.038,240.071 49.562 C 242.223 50.273,243.947 49.545,244.033 47.889 L 244.083 46.926 244.860 46.605 L 245.637 46.284 246.444 46.684 C 247.250 47.083,247.250 47.083,247.299 48.009 C 247.359 49.147,248.222 49.891,249.321 49.753 C 252.573 49.345,252.699 49.419,252.985 51.903 C 253.090 52.812,253.259 53.886,253.361 54.291 L 253.546 55.026 254.369 54.221 C 255.389 53.225,255.589 52.851,255.832 51.493 C 256.126 49.845,256.336 49.612,257.443 49.704 C 258.736 49.811,258.964 50.098,259.246 51.974 C 259.677 54.844,259.855 55.060,260.950 54.042 C 261.546 53.487,261.644 53.285,261.818 52.250 C 262.224 49.824,262.566 49.429,264.011 49.715 C 265.365 49.983,265.449 50.205,264.855 51.944 C 264.578 52.754,264.189 54.392,263.992 55.583 C 263.794 56.775,263.457 58.216,263.242 58.787 C 263.028 59.357,262.763 60.278,262.653 60.834 C 262.172 63.281,259.383 63.036,259.099 60.522 C 258.864 58.442,258.199 57.327,256.819 56.702 C 256.683 56.641,256.253 58.213,255.928 59.965 C 255.592 61.775,255.485 61.942,254.481 62.240 C 253.220 62.615,252.852 62.368,252.211 60.717 C 251.495 58.872,251.536 59.029,251.079 56.377 C 250.530 53.183,249.403 51.156,248.563 51.848 C 247.465 52.753,247.333 53.199,247.333 56.022 L 247.333 58.660 248.166 59.282 C 248.814 59.766,249.020 60.033,249.097 60.493 C 249.151 60.818,249.228 61.202,249.267 61.347 C 249.501 62.213,246.673 62.750,245.461 62.069 C 245.302 61.980,244.909 61.469,244.586 60.933 L 244.000 59.960 244.000 56.888 C 244.000 53.544,243.967 53.396,242.946 52.125 C 242.245 51.252,241.300 51.239,240.045 52.084 C 238.739 52.964,238.761 52.875,238.667 57.658 L 238.583 61.898 238.083 62.188 C 237.673 62.425,237.436 62.449,236.763 62.321 C 235.289 62.042,235.333 62.194,235.333 57.469 C 235.333 53.036,235.290 52.754,234.445 51.625 C 233.784 50.743,233.749 50.403,234.273 49.965 C 235.208 49.185,235.466 48.810,235.576 48.072 C 235.645 47.615,235.869 47.109,236.147 46.785 C 236.399 46.491,236.773 46.007,236.979 45.711 C 237.630 44.772,240.882 44.410,241.411 45.217 M332.372 45.339 C 332.834 45.911,332.825 61.471,332.362 61.890 C 331.838 62.365,330.503 62.527,329.917 62.187 L 329.417 61.898 329.373 53.659 L 329.330 45.421 329.707 45.119 C 330.252 44.682,331.954 44.823,332.372 45.339 M358.114 45.196 C 359.255 46.267,358.356 48.134,356.800 47.928 C 355.599 47.769,355.333 47.492,355.333 46.403 C 355.333 44.950,357.057 44.202,358.114 45.196 M351.333 46.821 C 351.675 47.063,351.765 47.294,351.833 48.098 C 351.914 49.050,351.937 49.090,352.626 49.469 C 353.839 50.136,353.855 51.002,352.678 52.250 C 351.886 53.090,351.833 53.326,351.833 56.055 L 351.833 58.632 352.610 59.287 C 353.575 60.102,353.889 61.403,353.262 61.984 C 352.272 62.901,349.952 62.445,349.088 61.163 L 348.583 60.417 348.500 56.833 C 348.414 53.140,348.366 52.876,347.657 52.248 C 347.451 52.066,347.074 51.592,346.820 51.194 L 346.357 50.471 346.074 51.018 C 345.509 52.111,345.445 52.663,345.348 57.248 L 345.250 61.913 344.791 62.133 C 344.079 62.473,342.797 62.440,342.155 62.065 C 341.611 61.748,341.588 61.747,340.970 62.053 C 339.201 62.929,337.071 62.397,336.015 60.816 C 335.196 59.589,335.131 59.049,335.199 54.000 L 335.250 50.250 335.966 49.889 C 336.733 49.501,337.295 49.551,338.101 50.080 L 338.494 50.337 338.539 54.452 L 338.583 58.567 339.295 59.109 L 340.007 59.652 340.789 59.316 C 342.076 58.765,342.000 59.067,342.000 54.505 C 342.000 50.048,341.972 50.191,342.930 49.698 C 343.284 49.515,345.400 49.845,346.028 50.182 C 346.241 50.296,346.573 50.155,347.364 49.614 L 348.417 48.895 348.467 47.940 C 348.546 46.429,349.989 45.866,351.333 46.821 M217.855 50.013 C 218.617 50.400,219.833 51.766,219.833 52.236 C 219.833 53.222,218.763 53.854,217.941 53.353 C 217.054 52.814,215.224 52.155,214.930 52.268 C 214.424 52.462,213.814 53.526,214.047 53.807 C 214.303 54.116,215.479 54.658,215.904 54.663 C 216.697 54.672,219.667 56.411,219.667 56.866 C 219.667 56.941,219.886 57.306,220.154 57.676 C 220.975 58.809,219.777 60.984,217.750 62.041 C 216.952 62.457,213.875 62.542,213.158 62.167 C 211.622 61.366,210.673 60.111,210.983 59.294 C 211.356 58.313,211.756 58.280,213.417 59.091 C 215.138 59.931,215.280 59.952,216.168 59.499 C 217.752 58.691,217.300 57.934,214.939 57.439 C 214.349 57.315,213.519 56.997,213.094 56.732 C 212.669 56.467,212.085 56.100,211.796 55.917 C 210.625 55.174,210.326 53.238,211.145 51.708 C 212.150 49.828,215.716 48.928,217.855 50.013 M229.606 49.892 C 234.011 52.268,234.597 58.048,230.769 61.357 C 229.341 62.591,226.759 62.854,225.064 61.939 C 220.916 59.697,220.924 52.296,225.077 50.055 C 226.070 49.519,228.736 49.423,229.606 49.892 M273.517 49.686 C 274.140 49.819,274.558 50.043,275.001 50.478 C 275.339 50.811,275.844 51.288,276.122 51.537 C 276.481 51.859,276.656 52.198,276.726 52.704 C 276.803 53.263,276.904 60.888,276.846 61.787 C 276.807 62.407,274.702 62.571,273.140 62.075 C 272.980 62.024,272.452 62.100,271.966 62.245 C 267.746 63.498,265.004 58.384,268.345 55.490 C 269.452 54.531,269.995 54.353,271.849 54.341 C 273.082 54.332,273.625 53.990,273.422 53.350 C 273.118 52.392,271.599 51.934,270.564 52.489 C 269.601 53.005,268.023 52.973,267.510 52.427 L 267.129 52.021 267.492 51.511 C 267.692 51.230,267.926 51.000,268.011 51.000 C 268.096 51.000,268.463 50.732,268.826 50.404 C 269.747 49.572,271.636 49.283,273.517 49.686 M283.167 49.713 C 284.952 49.672,285.940 49.871,286.064 50.295 C 286.577 52.057,286.316 52.539,284.732 52.747 C 282.718 53.010,282.500 53.565,282.500 58.426 C 282.500 61.646,282.498 61.660,282.104 61.919 C 281.295 62.449,280.734 62.499,279.966 62.111 L 279.250 61.750 279.250 56.000 L 279.250 50.250 279.986 49.879 C 280.502 49.618,280.851 49.544,281.153 49.629 C 281.390 49.695,282.296 49.734,283.167 49.713 M294.667 50.006 C 296.729 51.069,298.226 54.102,297.439 55.623 C 297.084 56.309,296.975 56.333,294.227 56.333 C 291.329 56.333,290.253 56.540,290.416 57.065 C 290.476 57.258,290.576 57.604,290.638 57.833 C 291.061 59.402,292.899 60.044,294.387 59.142 L 295.190 58.655 295.930 59.025 C 297.355 59.736,297.365 59.845,296.120 61.065 C 294.659 62.498,291.924 62.998,290.383 62.114 C 289.096 61.375,288.169 60.451,287.479 59.218 L 286.750 57.917 286.750 56.000 L 286.750 54.083 287.451 52.833 C 288.383 51.174,289.899 49.808,290.990 49.645 C 292.113 49.478,294.001 49.663,294.667 50.006 M311.583 49.877 C 313.602 50.937,314.275 52.511,313.119 53.471 C 312.824 53.715,310.924 53.069,310.108 52.447 L 309.574 52.040 308.781 52.443 C 307.818 52.932,307.425 53.597,307.924 53.890 C 308.474 54.212,309.731 54.666,310.083 54.669 C 310.267 54.670,310.604 54.780,310.833 54.913 C 311.063 55.046,311.737 55.401,312.333 55.702 C 315.067 57.085,314.674 60.461,311.586 62.116 C 308.967 63.519,303.523 60.874,304.921 58.877 C 305.373 58.233,306.218 58.214,306.998 58.832 C 307.369 59.125,308.118 59.501,308.664 59.666 L 309.655 59.966 310.356 59.206 L 311.056 58.447 310.580 58.067 C 310.318 57.858,309.574 57.560,308.927 57.405 C 308.280 57.249,307.637 57.029,307.500 56.914 C 307.362 56.799,306.941 56.550,306.563 56.360 C 305.075 55.613,304.131 53.912,304.568 52.768 C 304.864 51.992,306.256 50.309,306.876 49.977 C 307.739 49.515,310.772 49.450,311.583 49.877 M322.973 49.676 C 323.477 49.785,324.012 50.049,324.356 50.361 C 324.664 50.641,325.194 51.048,325.534 51.265 C 326.067 51.607,326.198 51.825,326.499 52.872 C 326.690 53.538,326.956 54.386,327.090 54.756 C 327.615 56.207,326.683 59.958,325.615 60.688 C 325.323 60.889,324.821 61.299,324.500 61.600 C 323.279 62.748,319.965 62.798,318.696 61.688 C 318.420 61.447,317.907 61.017,317.555 60.732 C 316.917 60.214,316.523 59.323,315.995 57.202 C 315.615 55.677,316.436 52.327,317.412 51.417 C 319.331 49.628,320.720 49.193,322.973 49.676 M358.091 49.909 L 358.500 50.318 358.500 56.000 L 358.500 61.682 358.091 62.091 C 357.547 62.635,356.258 62.668,355.606 62.155 L 355.167 61.809 355.167 56.000 L 355.167 50.191 355.606 49.845 C 356.258 49.332,357.547 49.365,358.091 49.909 M368.333 49.892 C 368.923 50.168,370.138 51.046,370.750 51.639 C 370.933 51.817,371.224 52.514,371.396 53.189 C 371.794 54.754,371.928 55.001,372.381 54.997 C 373.261 54.991,373.500 54.370,373.500 52.093 C 373.500 50.196,373.536 50.120,374.614 49.750 C 375.122 49.575,375.370 49.578,376.009 49.768 C 376.674 49.966,377.016 49.964,378.378 49.760 C 380.344 49.465,381.720 49.576,382.161 50.066 C 383.948 52.050,383.884 51.799,383.964 57.139 C 384.044 62.497,384.043 62.500,382.419 62.500 C 380.881 62.500,380.890 62.526,380.803 57.805 C 380.715 53.056,380.710 53.039,379.246 52.632 L 378.328 52.376 377.628 52.997 L 376.928 53.618 376.839 57.684 L 376.750 61.750 376.034 62.111 C 374.479 62.896,373.501 62.162,373.496 60.204 C 373.492 58.746,373.313 57.576,373.055 57.325 C 372.771 57.049,372.005 56.957,371.932 57.191 C 371.893 57.315,371.686 58.006,371.472 58.726 C 371.258 59.446,370.933 60.177,370.750 60.350 C 367.624 63.296,365.115 63.350,362.114 60.534 C 361.205 59.680,360.505 56.607,360.819 54.849 C 361.061 53.497,361.686 51.867,362.114 51.471 C 363.338 50.342,363.954 49.915,364.635 49.723 C 365.623 49.445,367.568 49.533,368.333 49.892 M227.141 52.572 C 225.665 52.911,225.168 54.194,225.419 57.021 C 225.566 58.687,225.897 59.145,227.157 59.429 C 230.375 60.154,231.200 53.955,228.083 52.472 C 227.992 52.429,227.568 52.473,227.141 52.572 M290.939 52.937 C 289.818 53.759,290.528 54.333,292.662 54.333 C 294.537 54.333,294.773 53.179,293.016 52.604 C 291.913 52.244,291.875 52.250,290.939 52.937 M320.303 52.958 C 319.048 54.309,319.008 57.712,320.231 59.009 C 321.664 60.527,324.000 58.662,324.000 56.000 C 324.000 53.385,321.680 51.476,320.303 52.958 M365.128 52.958 C 363.175 55.018,364.008 59.500,366.343 59.500 C 367.780 59.500,368.667 58.164,368.667 56.000 C 368.667 53.189,366.596 51.410,365.128 52.958 M270.968 56.625 C 270.602 57.052,270.143 58.324,270.272 58.553 C 271.320 60.416,273.687 59.852,273.443 57.797 C 273.272 56.354,271.799 55.656,270.968 56.625  M -25 0 L -5 0 L -5 20 L -25 20 Z M 405 0 L 425 0 L 425 20 L 405 20 Z" stroke="none" fill="#343433" fill-rule="evenodd" transform="translate(950,0)"></path></g></svg>