<svg id="splitsvg" version="1.1" xmlns="http://www.w3.org/2000/svg" xmlns:xlink="http://www.w3.org/1999/xlink" width="1380" height="80"><g id="svgg"><path id="path0" d="M46.018 12.978 C 45.246 13.194,45.110 13.678,45.576 14.553 C 45.803 14.980,46.170 16.066,46.393 16.968 C 46.615 17.869,46.986 18.980,47.218 19.436 C 47.449 19.893,47.793 20.917,47.982 21.714 C 48.171 22.510,48.548 23.602,48.820 24.140 C 49.092 24.678,49.467 25.719,49.654 26.452 C 49.841 27.185,50.218 28.264,50.492 28.851 C 50.766 29.437,51.106 30.474,51.249 31.154 C 51.391 31.835,51.762 32.960,52.072 33.654 C 52.382 34.349,52.723 35.367,52.829 35.917 C 52.935 36.467,53.277 37.442,53.589 38.083 C 53.901 38.725,54.268 39.662,54.405 40.167 C 54.746 41.422,54.947 41.514,57.563 41.611 C 60.810 41.731,61.474 41.162,62.393 37.470 C 62.606 36.616,62.949 35.586,63.156 35.182 C 63.364 34.778,63.702 33.766,63.909 32.932 C 64.116 32.099,64.521 30.949,64.810 30.378 C 65.099 29.807,65.480 28.720,65.656 27.962 C 65.833 27.204,66.206 26.096,66.484 25.500 C 66.762 24.904,67.104 23.872,67.243 23.207 C 67.382 22.541,67.686 21.622,67.918 21.163 C 68.151 20.705,68.517 19.674,68.732 18.873 C 68.947 18.072,69.358 16.967,69.645 16.417 C 71.158 13.518,70.785 12.933,67.381 12.871 C 64.337 12.815,64.300 12.834,63.842 14.667 C 63.670 15.354,63.341 16.292,63.111 16.750 C 62.880 17.208,62.569 18.290,62.419 19.154 C 62.269 20.018,61.973 21.143,61.761 21.654 C 61.236 22.922,60.890 24.061,60.669 25.250 C 60.567 25.800,60.255 26.758,59.976 27.380 C 59.698 28.001,59.358 29.163,59.222 29.963 C 58.796 32.467,58.255 32.772,57.082 31.170 C 56.635 30.558,56.137 29.059,55.850 27.457 C 55.755 26.929,55.457 25.992,55.187 25.374 C 54.918 24.756,54.572 23.575,54.419 22.750 C 54.266 21.925,53.910 20.725,53.628 20.083 C 53.346 19.442,52.946 18.129,52.739 17.167 C 52.309 15.166,51.673 13.660,51.050 13.171 C 50.608 12.823,47.058 12.687,46.018 12.978 M73.742 13.242 L 73.333 13.652 73.333 27.150 L 73.333 40.648 73.735 41.116 L 74.138 41.583 82.081 41.631 C 92.751 41.696,92.500 41.752,92.500 39.297 C 92.500 36.778,92.656 36.836,85.878 36.834 C 78.794 36.833,79.167 37.055,79.167 32.833 C 79.167 28.668,78.779 28.944,84.780 28.833 C 90.491 28.728,90.250 28.835,90.250 26.417 C 90.250 23.998,90.493 24.105,84.763 24.000 C 78.945 23.893,79.167 24.017,79.167 20.874 C 79.167 17.542,78.928 17.667,85.302 17.667 C 92.389 17.667,92.500 17.630,92.500 15.297 C 92.500 12.685,93.107 12.835,82.534 12.834 L 74.152 12.833 73.742 13.242 M104.083 13.067 C 101.494 13.763,98.607 15.917,97.469 18.000 C 96.105 20.497,96.012 20.736,95.837 22.167 C 95.742 22.946,95.552 23.952,95.415 24.401 C 95.034 25.657,95.080 28.949,95.500 30.417 C 95.683 31.058,95.835 31.808,95.836 32.083 C 95.852 34.780,98.460 38.773,101.000 39.990 C 101.504 40.231,102.272 40.639,102.706 40.896 C 104.459 41.932,109.484 41.866,111.729 40.776 C 112.382 40.459,113.214 40.098,113.578 39.975 C 115.960 39.165,119.159 33.555,118.032 32.165 C 117.709 31.767,117.620 31.750,115.806 31.753 C 112.883 31.759,112.466 32.000,112.006 33.956 C 111.574 35.795,109.276 36.983,106.539 36.781 C 104.693 36.645,102.873 35.501,102.397 34.178 C 102.247 33.759,101.892 32.817,101.609 32.083 C 100.528 29.286,100.837 24.456,102.355 20.396 C 103.826 16.465,111.065 16.789,112.131 20.833 C 112.521 22.312,113.002 22.561,115.618 22.639 C 118.482 22.725,119.066 21.756,117.612 19.333 C 117.309 18.829,116.921 18.091,116.749 17.694 C 116.150 16.310,114.454 14.864,112.228 13.841 L 110.250 12.932 107.583 12.887 C 105.745 12.857,104.658 12.912,104.083 13.067 M120.567 12.959 C 120.157 13.237,120.000 13.886,120.000 15.304 C 120.000 17.647,119.856 17.565,124.146 17.667 C 127.224 17.740,127.692 17.787,127.953 18.048 C 128.231 18.326,128.253 19.059,128.295 29.566 C 128.346 42.371,128.186 41.194,129.927 41.516 C 130.468 41.616,131.522 41.672,132.271 41.641 C 134.548 41.545,134.319 42.853,134.372 29.661 C 134.426 16.015,133.906 17.667,138.151 17.666 C 142.854 17.664,143.167 17.510,143.167 15.196 C 143.167 13.830,143.136 13.696,142.737 13.321 L 142.307 12.917 131.528 12.876 C 125.600 12.853,120.667 12.890,120.567 12.959 M154.162 13.060 C 153.655 13.169,152.905 13.450,152.495 13.684 C 152.085 13.918,151.387 14.243,150.944 14.407 C 150.061 14.734,148.325 16.245,147.636 17.286 C 146.138 19.550,145.807 20.297,145.495 22.118 C 145.325 23.107,145.107 24.321,145.010 24.814 C 144.631 26.744,144.785 28.683,145.684 33.283 C 145.777 33.760,146.039 34.423,146.265 34.757 C 146.492 35.090,146.897 35.799,147.165 36.331 C 147.635 37.261,149.618 39.277,150.555 39.776 C 154.644 41.956,158.292 42.256,161.569 40.682 C 162.310 40.326,163.089 39.983,163.299 39.920 C 163.976 39.718,165.952 37.789,166.842 36.461 C 169.818 32.023,169.994 22.673,167.178 18.587 C 166.861 18.127,166.448 17.481,166.259 17.152 C 165.510 15.845,161.731 13.470,159.667 13.009 C 158.656 12.783,155.302 12.814,154.162 13.060 M174.059 12.949 C 173.033 13.149,173.088 12.398,173.033 26.809 C 173.000 35.643,173.041 40.114,173.159 40.522 C 173.413 41.398,173.975 41.577,176.472 41.581 C 179.372 41.584,179.167 41.998,179.167 36.159 C 179.167 30.172,179.151 30.203,182.050 30.371 C 183.716 30.467,184.641 31.422,185.603 34.035 C 185.797 34.562,186.146 35.244,186.379 35.549 C 186.612 35.854,187.006 36.699,187.256 37.427 C 187.506 38.155,187.849 38.948,188.020 39.189 C 188.190 39.431,188.475 39.969,188.653 40.386 C 189.123 41.481,189.390 41.576,192.000 41.576 C 195.168 41.576,195.735 41.065,194.484 39.337 C 194.200 38.946,193.823 38.203,193.647 37.687 C 193.470 37.172,193.113 36.450,192.854 36.083 C 192.594 35.717,192.219 34.977,192.020 34.440 C 191.821 33.903,191.449 33.153,191.193 32.774 C 190.767 32.140,190.086 30.558,189.890 29.748 C 189.783 29.302,190.726 28.078,191.821 27.243 C 194.977 24.837,195.192 18.566,192.220 15.609 C 191.607 14.999,191.026 14.500,190.928 14.499 C 190.830 14.499,190.225 14.233,189.583 13.907 C 187.522 12.861,187.264 12.831,180.507 12.856 C 177.157 12.869,174.256 12.910,174.059 12.949 M205.667 13.071 C 205.254 13.190,204.340 13.560,203.636 13.893 C 202.932 14.227,202.292 14.500,202.214 14.500 C 201.961 14.500,200.042 16.569,199.742 17.167 C 199.580 17.487,199.291 17.962,199.099 18.222 C 198.565 18.945,198.583 22.121,199.127 23.083 C 199.334 23.450,199.654 24.062,199.836 24.443 C 200.265 25.338,201.834 26.690,203.186 27.332 C 203.771 27.610,204.489 28.013,204.781 28.228 C 205.073 28.443,205.786 28.710,206.364 28.821 C 206.943 28.932,207.829 29.234,208.333 29.492 C 208.838 29.751,209.813 30.129,210.500 30.333 C 213.119 31.110,214.181 33.279,212.948 35.333 C 212.210 36.563,211.837 36.717,209.401 36.802 C 205.983 36.921,205.379 36.586,203.507 33.539 C 202.801 32.390,202.665 32.333,200.594 32.333 C 198.073 32.333,197.643 33.094,198.499 36.037 C 198.744 36.879,201.597 39.734,202.467 40.007 C 202.806 40.114,203.615 40.459,204.266 40.774 C 206.759 41.983,211.549 41.932,214.381 40.666 C 215.226 40.288,216.145 39.880,216.424 39.759 C 216.703 39.638,217.365 39.007,217.897 38.358 C 220.719 34.908,219.625 29.165,215.777 27.223 C 215.304 26.985,214.617 26.579,214.250 26.322 C 213.883 26.065,213.133 25.727,212.583 25.572 C 212.033 25.417,211.149 25.072,210.617 24.805 C 210.086 24.539,209.140 24.205,208.516 24.064 C 207.361 23.803,207.104 23.673,205.814 22.697 C 204.233 21.499,204.207 19.834,205.749 18.449 C 206.442 17.826,207.105 17.667,209.001 17.667 C 211.386 17.667,211.827 17.874,212.985 19.539 C 214.224 21.320,214.702 21.583,216.694 21.583 C 222.026 21.583,218.348 14.545,212.250 13.079 C 210.974 12.772,206.725 12.767,205.667 13.071 M232.000 12.943 C 231.771 12.988,230.783 13.394,229.804 13.846 C 228.825 14.297,227.962 14.668,227.887 14.670 C 227.676 14.674,225.661 16.681,224.935 17.611 C 224.562 18.087,224.090 19.005,223.827 19.762 C 223.575 20.489,223.213 21.507,223.022 22.024 C 222.031 24.710,222.207 30.865,223.345 33.292 C 223.614 33.865,223.833 34.432,223.833 34.551 C 223.833 34.874,224.674 36.500,224.841 36.500 C 224.921 36.500,225.173 36.819,225.402 37.208 C 227.637 41.010,234.578 42.760,239.161 40.679 C 239.943 40.323,240.751 39.983,240.955 39.923 C 241.651 39.717,244.352 36.834,244.785 35.834 C 245.004 35.330,245.407 34.488,245.682 33.963 C 247.230 31.007,246.976 23.047,245.223 19.521 C 244.241 17.548,241.764 14.698,240.779 14.408 C 240.580 14.349,239.742 13.991,238.917 13.613 L 237.417 12.925 234.917 12.893 C 233.542 12.876,232.229 12.898,232.000 12.943 M251.509 13.276 C 251.017 13.902,251.040 40.778,251.533 41.271 C 251.902 41.640,253.996 41.771,255.586 41.525 C 257.407 41.243,257.333 41.478,257.333 35.991 L 257.333 31.352 257.735 30.884 L 258.137 30.417 262.968 30.333 C 268.869 30.232,268.500 30.387,268.500 28.000 C 268.500 25.614,268.865 25.768,262.996 25.667 C 258.194 25.583,258.193 25.583,257.763 25.179 L 257.333 24.775 257.333 21.580 C 257.333 17.324,256.632 17.771,263.475 17.667 C 268.487 17.590,268.969 17.557,269.583 17.250 L 270.250 16.917 270.297 15.309 C 270.374 12.709,270.890 12.835,260.220 12.834 L 251.858 12.833 251.509 13.276 M272.384 13.033 C 271.895 13.269,271.663 13.998,271.683 15.233 C 271.721 17.552,271.933 17.666,276.208 17.666 C 280.526 17.667,280.000 16.015,280.000 29.565 C 280.000 43.027,279.677 41.585,282.694 41.581 C 284.973 41.577,285.764 41.371,286.014 40.713 C 286.101 40.485,286.167 35.584,286.167 29.352 L 286.167 18.391 286.542 18.041 C 286.893 17.712,287.130 17.687,290.362 17.637 C 294.728 17.569,294.667 17.603,294.667 15.213 C 294.667 13.777,294.634 13.619,294.258 13.242 L 293.848 12.833 283.299 12.845 C 276.222 12.852,272.629 12.914,272.384 13.033 M336.340 13.182 C 334.067 13.628,330.981 15.975,329.873 18.101 C 329.416 18.977,329.333 20.899,329.333 30.629 L 329.333 40.648 329.736 41.116 C 330.319 41.794,333.534 41.840,334.237 41.179 L 334.667 40.775 334.667 31.088 L 334.667 21.401 335.220 20.524 C 336.530 18.445,338.747 18.410,339.945 20.448 L 340.417 21.250 340.500 31.037 C 340.583 40.782,340.585 40.826,340.942 41.183 C 341.564 41.805,344.608 41.840,345.417 41.235 C 345.742 40.992,345.752 40.742,345.833 31.118 L 345.917 21.250 346.355 20.583 C 347.752 18.459,349.872 18.402,351.161 20.454 L 351.660 21.250 351.680 30.750 C 351.691 35.975,351.751 40.438,351.813 40.667 C 352.132 41.840,356.241 42.108,356.837 40.993 C 357.105 40.493,357.047 20.139,356.775 18.981 C 355.854 15.071,349.867 11.943,346.417 13.570 C 345.867 13.830,344.897 14.211,344.263 14.418 L 343.109 14.794 341.958 14.402 C 341.325 14.187,340.569 13.865,340.278 13.687 C 339.351 13.117,337.730 12.910,336.340 13.182 M307.792 13.847 C 306.989 14.314,307.000 14.115,307.000 27.908 C 307.000 40.450,307.010 40.843,307.321 41.155 C 307.822 41.655,308.531 41.689,317.445 41.634 L 325.807 41.583 326.237 41.179 C 326.749 40.698,326.872 38.148,326.434 37.100 C 325.971 35.991,326.022 36.000,319.955 36.000 C 311.994 36.000,312.835 37.305,312.834 24.942 C 312.833 14.456,312.852 14.645,311.763 13.981 C 311.184 13.628,308.333 13.531,307.792 13.847 M363.083 13.900 C 361.825 14.456,361.922 13.362,361.871 27.579 C 361.841 35.814,361.884 40.446,361.993 40.732 C 362.272 41.466,362.784 41.554,367.200 41.630 C 372.363 41.718,373.752 41.560,375.583 40.678 C 376.317 40.324,377.054 39.990,377.222 39.934 C 378.574 39.487,381.549 36.636,382.406 34.966 C 382.721 34.351,383.136 33.635,383.329 33.375 C 383.713 32.855,384.162 31.363,384.165 30.594 C 384.166 30.325,384.290 29.614,384.440 29.015 C 384.845 27.400,384.194 23.200,383.327 21.832 C 383.064 21.418,382.697 20.734,382.509 20.310 C 382.106 19.398,379.288 16.487,378.340 16.003 C 377.994 15.827,377.487 15.494,377.212 15.263 C 375.627 13.929,365.279 12.931,363.083 13.900 M159.250 18.054 C 160.223 18.610,161.253 19.449,161.451 19.847 C 161.562 20.069,161.971 20.962,162.361 21.833 L 163.070 23.417 163.137 26.675 C 163.217 30.536,163.111 31.179,162.037 33.362 C 160.012 37.481,155.851 38.088,152.618 34.738 C 152.435 34.548,152.064 33.798,151.794 33.071 C 151.524 32.345,151.162 31.375,150.990 30.917 C 150.133 28.633,150.599 24.016,152.025 20.656 C 152.400 19.773,154.036 18.239,154.977 17.889 C 155.839 17.568,158.584 17.674,159.250 18.054 M186.117 17.841 C 189.317 18.957,189.033 24.530,185.730 25.450 C 184.695 25.738,179.873 25.610,179.548 25.286 C 179.045 24.784,179.007 18.748,179.503 18.118 L 179.858 17.667 182.737 17.667 C 184.321 17.667,185.842 17.745,186.117 17.841 M236.782 17.991 C 238.639 18.834,239.646 20.312,240.253 23.083 C 241.102 26.962,241.043 28.514,239.879 33.000 C 239.158 35.777,234.908 37.767,232.450 36.477 C 230.595 35.504,229.114 33.374,228.757 31.167 C 228.304 28.365,228.545 22.495,229.160 21.346 C 230.807 18.269,234.151 16.797,236.782 17.991 M373.544 19.745 C 374.024 19.994,374.756 20.370,375.171 20.581 C 376.073 21.040,377.150 22.168,377.746 23.277 C 377.984 23.720,378.322 24.308,378.496 24.583 C 379.948 26.877,378.716 31.653,376.063 34.015 C 373.834 36.001,368.902 36.669,368.236 35.075 C 367.937 34.360,367.884 20.362,368.178 19.813 C 368.620 18.986,371.996 18.944,373.544 19.745 M163.533 70.700 C 163.084 71.149,163.434 71.833,164.113 71.833 C 164.381 71.833,164.525 71.709,164.599 71.415 C 164.779 70.696,164.036 70.198,163.533 70.700  M -25 0 L -5 0 L -5 20 L -25 20 Z M 405 0 L 425 0 L 425 20 L 405 20 Z" stroke="none" fill="#7d7d7d" fill-rule="evenodd" transform="translate(30,0)"></path><path id="path1" d="M32.719 13.377 C 31.264 14.200,30.500 14.687,30.500 14.794 C 30.500 14.863,30.170 15.322,29.766 15.814 C 29.362 16.307,28.938 17.043,28.824 17.450 C 28.710 17.858,28.347 18.518,28.017 18.918 C 27.687 19.318,27.284 20.021,27.121 20.481 C 26.958 20.941,26.638 21.540,26.410 21.811 C 26.181 22.083,25.804 22.735,25.572 23.260 C 25.340 23.785,24.938 24.523,24.680 24.899 C 24.421 25.275,24.043 25.972,23.840 26.446 C 23.636 26.921,23.332 27.433,23.165 27.585 C 22.998 27.736,22.694 28.285,22.490 28.805 C 22.286 29.325,21.898 30.036,21.626 30.386 C 21.355 30.736,20.953 31.482,20.733 32.044 C 20.512 32.606,20.142 33.265,19.910 33.507 C 19.678 33.749,19.334 34.353,19.147 34.849 C 18.959 35.344,18.606 36.012,18.361 36.331 C 17.940 36.883,17.389 37.879,16.151 40.333 C 15.850 40.929,15.405 41.679,15.161 42.000 C 14.917 42.321,14.561 42.975,14.369 43.455 C 14.178 43.934,13.803 44.609,13.536 44.955 C 13.269 45.300,12.917 45.958,12.755 46.417 C 12.593 46.875,12.257 47.512,12.009 47.833 C 11.761 48.154,11.360 48.852,11.117 49.384 C 10.875 49.916,10.517 50.553,10.322 50.800 C 10.127 51.048,9.745 51.700,9.473 52.250 C 9.201 52.800,8.758 53.657,8.489 54.155 C 7.910 55.227,7.779 57.814,8.247 58.935 C 8.631 59.854,10.578 61.771,11.481 62.120 C 12.539 62.528,198.592 62.590,199.750 62.182 C 200.591 61.886,202.446 60.132,202.852 59.250 C 203.755 57.290,202.534 54.447,200.250 53.192 C 199.788 52.937,193.038 52.910,110.750 52.833 C 38.676 52.766,21.679 52.709,21.375 52.536 C 20.836 52.228,20.898 51.564,21.562 50.534 C 21.870 50.054,22.257 49.307,22.420 48.873 C 22.584 48.439,22.939 47.800,23.210 47.453 C 23.481 47.107,23.850 46.432,24.031 45.953 C 24.211 45.475,24.535 44.896,24.750 44.667 C 24.966 44.438,25.414 43.688,25.747 43.000 C 26.500 41.444,27.637 39.387,28.102 38.740 C 28.296 38.470,28.610 37.895,28.800 37.461 C 28.990 37.027,29.343 36.413,29.585 36.096 C 29.827 35.779,30.175 35.122,30.359 34.635 C 30.544 34.148,30.878 33.508,31.102 33.213 C 31.326 32.918,31.721 32.205,31.980 31.630 C 32.238 31.054,32.645 30.352,32.883 30.069 C 33.121 29.787,33.469 29.167,33.656 28.693 C 33.843 28.219,34.259 27.448,34.581 26.980 C 34.903 26.512,35.167 26.034,35.167 25.917 C 35.167 25.800,35.439 25.309,35.771 24.825 C 36.104 24.342,36.525 23.602,36.708 23.181 C 36.891 22.761,37.208 22.192,37.412 21.917 C 38.702 20.182,39.038 17.264,38.136 15.628 C 37.268 14.055,33.956 12.679,32.719 13.377 M238.046 45.019 C 237.287 45.238,235.911 46.980,235.570 48.154 C 235.381 48.805,235.120 49.234,234.653 49.661 C 233.852 50.392,233.845 50.615,234.585 51.813 C 235.446 53.210,235.500 53.558,235.500 57.765 C 235.500 62.195,235.485 62.150,237.006 62.296 C 237.721 62.365,237.910 62.319,238.258 61.993 L 238.667 61.609 238.667 57.679 C 238.667 53.143,238.718 52.939,240.061 52.042 C 241.402 51.145,242.525 51.364,243.429 52.697 L 243.917 53.417 244.000 56.750 C 244.117 61.413,244.586 62.250,247.083 62.250 C 249.432 62.250,250.008 60.713,248.168 59.359 C 246.759 58.322,246.715 53.869,248.099 52.338 C 249.407 50.891,250.432 52.377,251.167 56.784 C 251.738 60.206,252.737 62.333,253.774 62.333 C 255.130 62.333,255.545 61.807,256.007 59.504 C 256.546 56.814,256.792 56.514,257.759 57.363 C 258.544 58.053,258.759 58.508,259.069 60.141 C 259.462 62.213,259.568 62.333,261.007 62.333 C 261.990 62.333,262.422 61.957,262.592 60.950 C 262.655 60.577,262.915 59.667,263.171 58.928 C 263.426 58.188,263.791 56.643,263.982 55.494 C 264.173 54.344,264.518 52.850,264.748 52.173 C 265.388 50.292,265.202 49.851,263.710 49.710 C 262.640 49.608,262.285 50.001,261.946 51.667 C 261.606 53.332,261.442 53.724,260.907 54.145 C 259.990 54.866,259.626 54.437,259.266 52.213 C 258.969 50.375,258.834 50.091,258.145 49.851 C 256.833 49.393,256.108 49.848,255.912 51.250 C 255.701 52.765,254.236 54.935,253.662 54.581 C 253.414 54.427,253.026 52.868,252.900 51.518 C 252.732 49.706,252.581 49.598,250.392 49.709 C 248.092 49.827,247.176 49.261,247.169 47.720 C 247.165 46.905,246.483 46.445,245.427 46.545 C 244.485 46.635,244.000 47.076,244.000 47.844 C 244.000 49.411,242.193 50.254,240.149 49.642 C 238.649 49.192,238.575 48.592,239.928 47.857 C 242.831 46.281,241.359 44.061,238.046 45.019 M329.792 45.162 L 329.333 45.524 329.333 53.566 L 329.333 61.609 329.742 61.993 C 330.239 62.459,331.616 62.415,332.168 61.915 C 332.669 61.462,332.690 45.723,332.190 45.271 C 331.662 44.793,330.334 44.733,329.792 45.162 M356.067 45.071 C 355.038 45.519,355.057 47.507,356.092 47.767 C 357.718 48.175,358.500 47.728,358.500 46.391 C 358.500 45.057,357.431 44.477,356.067 45.071 M348.845 46.939 C 348.655 47.181,348.500 47.624,348.500 47.926 C 348.500 48.767,348.366 48.965,347.322 49.675 C 346.334 50.345,346.024 50.446,345.742 50.189 C 345.513 49.981,344.119 49.667,343.426 49.667 C 342.211 49.667,342.167 49.827,342.167 54.175 C 342.167 58.554,342.113 58.785,341.003 59.229 C 340.052 59.610,339.760 59.572,339.089 58.983 L 338.500 58.465 338.500 54.744 C 338.500 52.697,338.428 50.833,338.340 50.602 C 337.985 49.668,336.520 49.391,335.679 50.098 L 335.167 50.530 335.167 54.507 C 335.167 59.713,335.509 60.966,337.214 62.006 C 337.899 62.423,339.853 62.456,340.824 62.067 C 341.439 61.822,341.546 61.823,342.241 62.089 C 343.143 62.433,344.551 62.354,344.971 61.934 C 345.214 61.692,345.263 61.052,345.346 57.036 C 345.476 50.820,345.736 50.056,347.172 51.667 C 348.484 53.139,348.500 53.199,348.500 56.825 C 348.500 60.593,348.741 61.340,350.200 62.099 C 350.819 62.421,352.656 62.405,353.130 62.074 C 353.869 61.556,353.547 60.107,352.492 59.204 L 351.833 58.641 351.833 55.917 L 351.833 53.193 352.415 52.471 C 353.727 50.844,353.788 50.150,352.673 49.523 C 352.286 49.306,351.971 48.991,351.930 48.781 C 351.891 48.581,351.797 48.081,351.721 47.672 C 351.495 46.450,349.608 45.969,348.845 46.939 M270.540 49.660 C 269.570 49.812,269.293 49.968,268.102 51.031 C 266.513 52.451,268.206 53.471,270.508 52.481 C 271.526 52.043,272.350 52.158,273.025 52.833 C 273.965 53.773,273.464 54.239,271.351 54.389 C 269.625 54.511,269.434 54.586,268.211 55.627 C 266.523 57.063,266.482 59.949,268.130 61.433 C 269.052 62.263,269.433 62.374,270.981 62.261 C 272.896 62.122,273.187 62.122,274.796 62.259 C 276.939 62.442,276.834 62.687,276.829 57.516 C 276.824 52.296,276.807 52.210,275.553 51.036 C 274.113 49.690,272.748 49.315,270.540 49.660 M320.279 49.666 C 319.837 49.745,319.340 49.908,319.175 50.030 C 316.533 51.973,316.085 52.839,316.084 56.000 C 316.083 58.609,316.606 60.018,317.964 61.062 C 321.461 63.750,325.459 62.503,326.813 58.301 C 328.403 53.366,324.971 48.830,320.279 49.666 M356.043 49.610 C 355.193 49.790,355.167 49.979,355.167 55.965 C 355.167 62.494,355.258 62.779,357.229 62.410 C 358.438 62.183,358.417 62.300,358.417 55.987 C 358.417 49.388,358.320 49.129,356.043 49.610 M365.667 49.583 C 365.529 49.617,365.147 49.688,364.816 49.742 C 360.654 50.417,359.346 58.348,362.932 61.167 C 366.103 63.658,370.145 62.483,371.491 58.679 C 372.525 55.755,373.263 56.133,373.488 59.700 C 373.630 61.964,374.221 62.649,375.711 62.275 C 376.782 62.006,376.833 61.814,376.834 58.035 C 376.836 52.949,377.408 51.866,379.625 52.753 C 380.703 53.184,380.728 53.294,380.803 57.783 C 380.882 62.486,380.853 62.405,382.447 62.405 C 384.048 62.405,384.042 62.427,383.974 57.171 C 383.909 52.145,383.868 51.966,382.417 50.408 L 381.683 49.620 379.633 49.742 C 377.030 49.897,376.588 49.898,375.653 49.750 C 374.038 49.495,373.504 50.141,373.491 52.364 C 373.470 55.787,372.340 56.257,371.398 53.236 C 371.063 52.162,370.841 51.735,370.470 51.453 C 370.202 51.250,369.699 50.843,369.354 50.549 C 368.465 49.793,366.698 49.330,365.667 49.583 M213.250 49.866 C 210.409 51.480,209.824 54.976,212.194 56.179 C 212.592 56.381,213.090 56.681,213.302 56.847 C 213.514 57.012,214.114 57.235,214.635 57.343 C 216.598 57.748,217.248 58.226,216.848 58.972 C 216.279 60.037,214.403 59.927,212.564 58.722 C 211.976 58.337,211.362 58.558,211.069 59.258 C 210.743 60.039,211.010 60.543,212.267 61.513 L 213.221 62.250 215.111 62.306 C 217.822 62.386,219.736 61.216,220.323 59.120 C 220.795 57.433,218.948 55.596,215.848 54.670 C 213.916 54.093,213.570 53.571,214.504 52.637 C 215.109 52.032,215.331 52.061,217.197 52.981 C 219.387 54.062,220.561 52.876,219.085 51.075 C 218.041 49.801,214.614 49.091,213.250 49.866 M225.408 49.901 C 224.668 50.224,222.862 51.954,222.538 52.651 C 222.131 53.527,222.132 58.476,222.540 59.354 C 224.322 63.192,230.364 63.387,232.236 59.667 C 232.444 59.254,232.757 58.654,232.932 58.333 C 234.283 55.856,232.604 51.630,229.606 49.959 C 228.955 49.596,226.196 49.558,225.408 49.901 M279.651 50.122 L 279.167 50.530 279.167 56.008 C 279.167 62.111,279.143 61.989,280.356 62.255 C 282.150 62.649,282.399 62.151,282.509 57.941 C 282.630 53.354,282.770 53.020,284.691 52.735 C 286.507 52.465,286.887 49.904,285.125 49.814 C 281.624 49.637,280.127 49.721,279.651 50.122 M290.366 49.842 C 289.733 50.096,288.159 51.543,287.836 52.167 C 287.671 52.487,287.358 53.087,287.143 53.500 C 286.688 54.368,286.576 57.375,286.968 58.167 C 288.057 60.363,288.215 60.552,290.112 61.926 C 290.865 62.471,293.432 62.589,294.667 62.135 C 295.231 61.927,296.833 60.331,296.833 59.976 C 296.833 59.083,295.399 58.662,294.280 59.226 C 292.856 59.944,291.291 59.469,290.767 58.160 C 290.131 56.570,290.569 56.333,294.152 56.333 C 296.533 56.333,296.669 56.315,297.105 55.941 C 298.485 54.753,296.745 50.889,294.380 49.893 C 293.768 49.635,290.971 49.599,290.366 49.842 M307.038 50.019 C 305.869 50.598,304.500 52.431,304.500 53.418 C 304.500 54.930,306.585 56.848,308.758 57.335 C 310.598 57.747,311.122 58.293,310.507 59.157 C 309.877 60.042,308.724 60.019,307.349 59.094 C 306.268 58.366,306.150 58.334,305.532 58.594 C 304.842 58.884,304.582 59.521,304.903 60.134 C 306.272 62.741,310.629 63.243,312.942 61.060 C 315.408 58.733,313.879 55.543,309.872 54.653 C 307.957 54.228,307.287 53.408,308.282 52.707 C 309.151 52.095,309.394 52.106,310.879 52.825 C 314.183 54.424,314.936 51.963,311.750 49.979 C 310.988 49.505,308.027 49.530,307.038 50.019 M293.066 52.603 C 294.732 53.171,294.391 54.333,292.560 54.333 C 290.649 54.333,289.957 53.585,291.125 52.783 C 291.873 52.269,292.040 52.254,293.066 52.603 M229.061 53.208 C 231.202 55.277,229.990 59.716,227.358 59.447 C 225.989 59.307,225.572 58.797,225.407 57.057 C 225.178 54.646,225.724 52.812,226.729 52.615 C 227.905 52.384,228.316 52.489,229.061 53.208 M322.921 53.004 C 323.376 53.431,324.000 55.205,324.000 56.069 C 324.000 59.859,320.233 60.873,319.421 57.301 C 318.664 53.976,320.958 51.160,322.921 53.004 M367.764 53.021 C 368.969 54.227,369.014 57.566,367.843 58.877 C 366.757 60.092,364.818 59.553,364.343 57.904 C 363.305 54.293,365.665 50.923,367.764 53.021 M273.077 56.660 C 273.826 57.487,273.547 59.025,272.575 59.431 C 270.905 60.129,269.847 58.986,270.568 57.262 C 270.968 56.305,272.437 55.952,273.077 56.660  M -25 0 L -5 0 L -5 20 L -25 20 Z M 405 0 L 425 0 L 425 20 L 405 20 Z" stroke="none" fill="#fc4c0e" fill-rule="evenodd" transform="translate(490,0)"></path><path id="path2" d="M0.000 40.000 L 0.000 80.000 200.000 80.000 L 400.000 80.000 400.000 40.000 L 400.000 0.000 200.000 0.000 L 0.000 0.000 0.000 40.000 M51.050 13.171 C 51.673 13.660,52.309 15.166,52.739 17.167 C 52.946 18.129,53.346 19.442,53.628 20.083 C 53.910 20.725,54.266 21.925,54.419 22.750 C 54.572 23.575,54.918 24.756,55.187 25.374 C 55.457 25.992,55.755 26.929,55.850 27.457 C 56.137 29.059,56.635 30.558,57.082 31.170 C 58.255 32.772,58.796 32.467,59.222 29.963 C 59.358 29.163,59.698 28.001,59.976 27.380 C 60.255 26.758,60.567 25.800,60.669 25.250 C 60.890 24.061,61.236 22.922,61.761 21.654 C 61.973 21.143,62.269 20.018,62.419 19.154 C 62.569 18.290,62.880 17.208,63.111 16.750 C 63.341 16.292,63.670 15.354,63.842 14.667 C 64.300 12.834,64.337 12.815,67.381 12.871 C 70.785 12.933,71.158 13.518,69.645 16.417 C 69.358 16.967,68.947 18.072,68.732 18.873 C 68.517 19.674,68.151 20.705,67.918 21.163 C 67.686 21.622,67.382 22.541,67.243 23.207 C 67.104 23.872,66.762 24.904,66.484 25.500 C 66.206 26.096,65.833 27.204,65.656 27.962 C 65.480 28.720,65.099 29.807,64.810 30.378 C 64.521 30.949,64.116 32.099,63.909 32.932 C 63.702 33.766,63.364 34.778,63.156 35.182 C 62.949 35.586,62.606 36.616,62.393 37.470 C 61.474 41.162,60.810 41.731,57.563 41.611 C 54.947 41.514,54.746 41.422,54.405 40.167 C 54.268 39.662,53.901 38.725,53.589 38.083 C 53.277 37.442,52.935 36.467,52.829 35.917 C 52.723 35.367,52.382 34.349,52.072 33.654 C 51.762 32.960,51.391 31.835,51.249 31.154 C 51.106 30.474,50.766 29.437,50.492 28.851 C 50.218 28.264,49.841 27.185,49.654 26.452 C 49.467 25.719,49.092 24.678,48.820 24.140 C 48.548 23.602,48.171 22.510,47.982 21.714 C 47.793 20.917,47.449 19.893,47.218 19.436 C 46.986 18.980,46.615 17.869,46.393 16.968 C 46.170 16.066,45.803 14.980,45.576 14.553 C 44.829 13.149,45.303 12.875,48.519 12.850 C 50.392 12.835,50.669 12.870,51.050 13.171 M91.540 13.008 C 92.371 13.239,92.500 13.546,92.500 15.297 C 92.500 17.630,92.389 17.667,85.302 17.667 C 78.928 17.667,79.167 17.542,79.167 20.874 C 79.167 24.017,78.945 23.893,84.763 24.000 C 90.493 24.105,90.250 23.998,90.250 26.417 C 90.250 28.835,90.491 28.728,84.780 28.833 C 78.779 28.944,79.167 28.668,79.167 32.833 C 79.167 37.055,78.794 36.833,85.878 36.834 C 92.656 36.836,92.500 36.778,92.500 39.297 C 92.500 41.752,92.751 41.696,82.081 41.631 L 74.138 41.583 73.735 41.116 L 73.333 40.648 73.333 27.150 L 73.333 13.652 73.742 13.242 L 74.152 12.833 82.534 12.834 C 87.814 12.835,91.147 12.899,91.540 13.008 M112.228 13.841 C 114.454 14.864,116.150 16.310,116.749 17.694 C 116.921 18.091,117.309 18.829,117.612 19.333 C 119.066 21.756,118.482 22.725,115.618 22.639 C 113.002 22.561,112.521 22.312,112.131 20.833 C 111.065 16.789,103.826 16.465,102.355 20.396 C 100.837 24.456,100.528 29.286,101.609 32.083 C 101.892 32.817,102.247 33.759,102.397 34.178 C 102.873 35.501,104.693 36.645,106.539 36.781 C 109.276 36.983,111.574 35.795,112.006 33.956 C 112.466 32.000,112.883 31.759,115.806 31.753 C 117.620 31.750,117.709 31.767,118.032 32.165 C 119.159 33.555,115.960 39.165,113.578 39.975 C 113.214 40.098,112.382 40.459,111.729 40.776 C 109.484 41.866,104.459 41.932,102.706 40.896 C 102.272 40.639,101.504 40.231,101.000 39.990 C 98.460 38.773,95.852 34.780,95.836 32.083 C 95.835 31.808,95.683 31.058,95.500 30.417 C 95.080 28.949,95.034 25.657,95.415 24.401 C 95.552 23.952,95.742 22.946,95.837 22.167 C 96.012 20.736,96.105 20.497,97.469 18.000 C 99.318 14.615,102.891 12.809,107.583 12.887 L 110.250 12.932 112.228 13.841 M142.737 13.321 C 143.136 13.696,143.167 13.830,143.167 15.196 C 143.167 17.510,142.854 17.664,138.151 17.666 C 133.906 17.667,134.426 16.015,134.372 29.661 C 134.319 42.853,134.548 41.545,132.271 41.641 C 131.522 41.672,130.468 41.616,129.927 41.516 C 128.186 41.194,128.346 42.371,128.295 29.566 C 128.253 19.059,128.231 18.326,127.953 18.048 C 127.692 17.787,127.224 17.740,124.146 17.667 C 119.856 17.565,120.000 17.647,120.000 15.304 C 120.000 13.886,120.157 13.237,120.567 12.959 C 120.667 12.890,125.600 12.853,131.528 12.876 L 142.307 12.917 142.737 13.321 M159.667 13.009 C 161.731 13.470,165.510 15.845,166.259 17.152 C 166.448 17.481,166.861 18.127,167.178 18.587 C 169.994 22.673,169.818 32.023,166.842 36.461 C 165.952 37.789,163.976 39.718,163.299 39.920 C 163.089 39.983,162.310 40.326,161.569 40.682 C 158.292 42.256,154.644 41.956,150.555 39.776 C 149.618 39.277,147.635 37.261,147.165 36.331 C 146.897 35.799,146.492 35.090,146.265 34.757 C 146.039 34.423,145.777 33.760,145.684 33.283 C 144.785 28.683,144.631 26.744,145.010 24.814 C 145.107 24.321,145.325 23.107,145.495 22.118 C 145.807 20.297,146.138 19.550,147.636 17.286 C 148.325 16.245,150.061 14.734,150.944 14.407 C 151.387 14.243,152.085 13.918,152.495 13.684 C 153.847 12.912,157.637 12.556,159.667 13.009 M187.507 13.074 C 188.007 13.207,188.942 13.581,189.583 13.907 C 190.225 14.233,190.830 14.499,190.928 14.499 C 191.026 14.500,191.607 14.999,192.220 15.609 C 195.192 18.566,194.977 24.837,191.821 27.243 C 190.726 28.078,189.783 29.302,189.890 29.748 C 190.086 30.558,190.767 32.140,191.193 32.774 C 191.449 33.153,191.821 33.903,192.020 34.440 C 192.219 34.977,192.594 35.717,192.854 36.083 C 193.113 36.450,193.470 37.172,193.647 37.687 C 193.823 38.203,194.200 38.946,194.484 39.337 C 195.735 41.065,195.168 41.576,192.000 41.576 C 189.390 41.576,189.123 41.481,188.653 40.386 C 188.475 39.969,188.190 39.431,188.020 39.189 C 187.849 38.948,187.506 38.155,187.256 37.427 C 187.006 36.699,186.612 35.854,186.379 35.549 C 186.146 35.244,185.797 34.562,185.603 34.035 C 184.641 31.422,183.716 30.467,182.050 30.371 C 179.151 30.203,179.167 30.172,179.167 36.159 C 179.167 41.998,179.372 41.584,176.472 41.581 C 173.975 41.577,173.413 41.398,173.159 40.522 C 173.041 40.114,173.000 35.643,173.033 26.809 C 173.088 12.398,173.033 13.149,174.059 12.949 C 175.134 12.738,186.643 12.846,187.507 13.074 M212.250 13.079 C 216.806 14.174,220.835 19.210,218.734 21.182 C 218.342 21.549,218.168 21.583,216.694 21.583 C 214.702 21.583,214.224 21.320,212.985 19.539 C 211.827 17.874,211.386 17.667,209.001 17.667 C 207.105 17.667,206.442 17.826,205.749 18.449 C 204.207 19.834,204.233 21.499,205.814 22.697 C 207.104 23.673,207.361 23.803,208.516 24.064 C 209.140 24.205,210.086 24.539,210.617 24.805 C 211.149 25.072,212.033 25.417,212.583 25.572 C 213.133 25.727,213.883 26.065,214.250 26.322 C 214.617 26.579,215.304 26.985,215.777 27.223 C 219.625 29.165,220.719 34.908,217.897 38.358 C 217.365 39.007,216.703 39.638,216.424 39.759 C 216.145 39.880,215.226 40.288,214.381 40.666 C 211.549 41.932,206.759 41.983,204.266 40.774 C 203.615 40.459,202.806 40.114,202.467 40.007 C 201.597 39.734,198.744 36.879,198.499 36.037 C 197.643 33.094,198.073 32.333,200.594 32.333 C 202.665 32.333,202.801 32.390,203.507 33.539 C 205.379 36.586,205.983 36.921,209.401 36.802 C 211.837 36.717,212.210 36.563,212.948 35.333 C 214.181 33.279,213.119 31.110,210.500 30.333 C 209.813 30.129,208.838 29.751,208.333 29.492 C 207.829 29.234,206.943 28.932,206.364 28.821 C 205.786 28.710,205.073 28.443,204.781 28.228 C 204.489 28.013,203.771 27.610,203.186 27.332 C 201.834 26.690,200.265 25.338,199.836 24.443 C 199.654 24.062,199.334 23.450,199.127 23.083 C 198.583 22.121,198.565 18.945,199.099 18.222 C 199.291 17.962,199.580 17.487,199.742 17.167 C 200.042 16.569,201.961 14.500,202.214 14.500 C 202.292 14.500,202.932 14.227,203.636 13.893 C 205.935 12.804,209.649 12.453,212.250 13.079 M238.917 13.613 C 239.742 13.991,240.580 14.349,240.779 14.408 C 241.764 14.698,244.241 17.548,245.223 19.521 C 246.976 23.047,247.230 31.007,245.682 33.963 C 245.407 34.488,245.004 35.330,244.785 35.834 C 244.352 36.834,241.651 39.717,240.955 39.923 C 240.751 39.983,239.943 40.323,239.161 40.679 C 234.578 42.760,227.637 41.010,225.402 37.208 C 225.173 36.819,224.921 36.500,224.841 36.500 C 224.674 36.500,223.833 34.874,223.833 34.551 C 223.833 34.432,223.614 33.865,223.345 33.292 C 222.207 30.865,222.031 24.710,223.022 22.024 C 223.213 21.507,223.575 20.489,223.827 19.762 C 224.090 19.005,224.562 18.087,224.935 17.611 C 225.661 16.681,227.676 14.674,227.887 14.670 C 227.962 14.668,228.825 14.297,229.804 13.846 C 231.999 12.832,231.878 12.855,234.917 12.893 L 237.417 12.925 238.917 13.613 M269.203 13.007 C 270.258 13.300,270.351 13.496,270.297 15.309 L 270.250 16.917 269.583 17.250 C 268.969 17.557,268.487 17.590,263.475 17.667 C 256.632 17.771,257.333 17.324,257.333 21.580 L 257.333 24.775 257.763 25.179 C 258.193 25.583,258.194 25.583,262.996 25.667 C 268.865 25.768,268.500 25.614,268.500 28.000 C 268.500 30.387,268.869 30.232,262.968 30.333 L 258.137 30.417 257.735 30.884 L 257.333 31.352 257.333 35.991 C 257.333 41.478,257.407 41.243,255.586 41.525 C 253.996 41.771,251.902 41.640,251.533 41.271 C 251.040 40.778,251.017 13.902,251.509 13.276 L 251.858 12.833 260.220 12.834 C 265.455 12.835,268.815 12.900,269.203 13.007 M294.258 13.242 C 294.634 13.619,294.667 13.777,294.667 15.213 C 294.667 17.603,294.728 17.569,290.362 17.637 C 287.130 17.687,286.893 17.712,286.542 18.041 L 286.167 18.391 286.167 29.352 C 286.167 35.584,286.101 40.485,286.014 40.713 C 285.764 41.371,284.973 41.577,282.694 41.581 C 279.677 41.585,280.000 43.027,280.000 29.565 C 280.000 16.015,280.526 17.667,276.208 17.666 C 271.933 17.666,271.721 17.552,271.683 15.233 C 271.642 12.691,270.831 12.858,283.299 12.845 L 293.848 12.833 294.258 13.242 M338.761 13.181 C 339.305 13.281,339.988 13.508,340.278 13.687 C 340.569 13.865,341.325 14.187,341.958 14.402 L 343.109 14.794 344.263 14.418 C 344.897 14.211,345.867 13.830,346.417 13.570 C 349.867 11.943,355.854 15.071,356.775 18.981 C 357.047 20.139,357.105 40.493,356.837 40.993 C 356.241 42.108,352.132 41.840,351.813 40.667 C 351.751 40.438,351.691 35.975,351.680 30.750 L 351.660 21.250 351.161 20.454 C 349.872 18.402,347.752 18.459,346.355 20.583 L 345.917 21.250 345.833 31.118 C 345.752 40.742,345.742 40.992,345.417 41.235 C 344.608 41.840,341.564 41.805,340.942 41.183 C 340.585 40.826,340.583 40.782,340.500 31.037 L 340.417 21.250 339.945 20.448 C 338.747 18.410,336.530 18.445,335.220 20.524 L 334.667 21.401 334.667 31.088 L 334.667 40.775 334.237 41.179 C 333.534 41.840,330.319 41.794,329.736 41.116 L 329.333 40.648 329.333 30.629 C 329.333 18.539,329.315 18.712,330.765 16.851 C 332.891 14.124,336.032 12.681,338.761 13.181 M36.256 14.046 C 39.047 15.691,39.541 19.054,37.412 21.917 C 37.208 22.192,36.891 22.761,36.708 23.181 C 36.525 23.602,36.104 24.342,35.771 24.825 C 35.439 25.309,35.167 25.800,35.167 25.917 C 35.167 26.034,34.903 26.512,34.581 26.980 C 34.259 27.448,33.843 28.219,33.656 28.693 C 33.469 29.167,33.121 29.787,32.883 30.069 C 32.645 30.352,32.238 31.054,31.980 31.630 C 31.721 32.205,31.326 32.918,31.102 33.213 C 30.878 33.508,30.544 34.148,30.359 34.635 C 30.175 35.122,29.827 35.779,29.585 36.096 C 29.343 36.413,28.990 37.027,28.800 37.461 C 28.610 37.895,28.296 38.470,28.102 38.740 C 27.637 39.387,26.500 41.444,25.747 43.000 C 25.414 43.688,24.966 44.438,24.750 44.667 C 24.535 44.896,24.211 45.475,24.031 45.953 C 23.850 46.432,23.481 47.107,23.210 47.453 C 22.939 47.800,22.584 48.439,22.420 48.873 C 22.257 49.307,21.870 50.054,21.562 50.534 C 20.898 51.564,20.836 52.228,21.375 52.536 C 21.679 52.709,38.676 52.766,110.750 52.833 C 193.038 52.910,199.788 52.937,200.250 53.192 C 202.534 54.447,203.755 57.290,202.852 59.250 C 202.446 60.132,200.591 61.886,199.750 62.182 C 198.592 62.590,12.539 62.528,11.481 62.120 C 10.578 61.771,8.631 59.854,8.247 58.935 C 7.779 57.814,7.910 55.227,8.489 54.155 C 8.758 53.657,9.201 52.800,9.473 52.250 C 9.745 51.700,10.127 51.048,10.322 50.800 C 10.517 50.553,10.875 49.916,11.117 49.384 C 11.360 48.852,11.761 48.154,12.009 47.833 C 12.257 47.512,12.593 46.875,12.755 46.417 C 12.917 45.958,13.269 45.300,13.536 44.955 C 13.803 44.609,14.178 43.934,14.369 43.455 C 14.561 42.975,14.917 42.321,15.161 42.000 C 15.405 41.679,15.850 40.929,16.151 40.333 C 17.389 37.879,17.940 36.883,18.361 36.331 C 18.606 36.012,18.959 35.344,19.147 34.849 C 19.334 34.353,19.678 33.749,19.910 33.507 C 20.142 33.265,20.512 32.606,20.733 32.044 C 20.953 31.482,21.355 30.736,21.626 30.386 C 21.898 30.036,22.286 29.325,22.490 28.805 C 22.694 28.285,22.998 27.736,23.165 27.585 C 23.332 27.433,23.636 26.921,23.840 26.446 C 24.043 25.972,24.421 25.275,24.680 24.899 C 24.938 24.523,25.340 23.785,25.572 23.260 C 25.804 22.735,26.181 22.083,26.410 21.811 C 26.638 21.540,26.958 20.941,27.121 20.481 C 27.284 20.021,27.687 19.318,28.017 18.918 C 28.347 18.518,28.710 17.858,28.824 17.450 C 28.938 17.043,29.362 16.307,29.766 15.814 C 30.170 15.322,30.500 14.863,30.500 14.794 C 30.500 14.687,31.264 14.200,32.719 13.377 C 33.564 12.900,34.665 13.108,36.256 14.046 M311.763 13.981 C 312.852 14.645,312.833 14.456,312.834 24.942 C 312.835 37.305,311.994 36.000,319.955 36.000 C 326.022 36.000,325.971 35.991,326.434 37.100 C 326.872 38.148,326.749 40.698,326.237 41.179 L 325.807 41.583 317.445 41.634 C 308.531 41.689,307.822 41.655,307.321 41.155 C 306.880 40.713,306.812 15.347,307.250 14.500 C 307.719 13.592,310.586 13.263,311.763 13.981 M373.968 14.091 C 376.238 14.602,376.569 14.722,377.212 15.263 C 377.487 15.494,377.994 15.827,378.340 16.003 C 379.288 16.487,382.106 19.398,382.509 20.310 C 382.697 20.734,383.064 21.418,383.327 21.832 C 384.194 23.200,384.845 27.400,384.440 29.015 C 384.290 29.614,384.166 30.325,384.165 30.594 C 384.162 31.363,383.713 32.855,383.329 33.375 C 383.136 33.635,382.721 34.351,382.406 34.966 C 381.549 36.636,378.574 39.487,377.222 39.934 C 377.054 39.990,376.317 40.324,375.583 40.678 C 373.752 41.560,372.363 41.718,367.200 41.630 C 362.784 41.554,362.272 41.466,361.993 40.732 C 361.625 39.764,361.868 14.922,362.250 14.495 C 363.144 13.493,370.230 13.249,373.968 14.091 M154.977 17.889 C 154.036 18.239,152.400 19.773,152.025 20.656 C 150.599 24.016,150.133 28.633,150.990 30.917 C 151.162 31.375,151.524 32.345,151.794 33.071 C 152.064 33.798,152.435 34.548,152.618 34.738 C 155.851 38.088,160.012 37.481,162.037 33.362 C 163.111 31.179,163.217 30.536,163.137 26.675 L 163.070 23.417 162.361 21.833 C 161.971 20.962,161.562 20.069,161.451 19.847 C 161.253 19.449,160.223 18.610,159.250 18.054 C 158.584 17.674,155.839 17.568,154.977 17.889 M179.503 18.118 C 179.007 18.748,179.045 24.784,179.548 25.286 C 179.873 25.610,184.695 25.738,185.730 25.450 C 188.307 24.732,189.336 21.161,187.558 19.105 C 186.358 17.717,186.191 17.667,182.737 17.667 L 179.858 17.667 179.503 18.118 M232.815 17.827 C 231.778 18.141,229.915 19.934,229.160 21.346 C 228.545 22.495,228.304 28.365,228.757 31.167 C 229.612 36.451,234.858 38.644,238.361 35.182 C 239.753 33.806,239.627 34.080,240.499 30.527 C 241.142 27.908,240.547 22.334,239.419 20.407 C 238.128 18.201,235.269 17.084,232.815 17.827 M368.719 19.323 C 368.021 19.627,368.000 19.855,368.000 27.328 C 368.000 36.296,367.947 36.105,370.396 35.968 C 372.623 35.844,374.886 35.064,376.063 34.015 C 378.716 31.653,379.948 26.877,378.496 24.583 C 378.322 24.308,377.984 23.720,377.746 23.277 C 377.150 22.168,376.073 21.040,375.171 20.581 C 374.756 20.370,374.024 19.994,373.544 19.745 C 372.595 19.254,369.502 18.983,368.719 19.323 M241.195 45.109 C 241.911 45.757,241.282 47.122,239.928 47.857 C 238.575 48.592,238.649 49.192,240.149 49.642 C 242.193 50.254,244.000 49.411,244.000 47.844 C 244.000 47.076,244.485 46.635,245.427 46.545 C 246.483 46.445,247.165 46.905,247.169 47.720 C 247.176 49.261,248.092 49.827,250.392 49.709 C 252.581 49.598,252.732 49.706,252.900 51.518 C 253.026 52.868,253.414 54.427,253.662 54.581 C 254.236 54.935,255.701 52.765,255.912 51.250 C 256.108 49.848,256.833 49.393,258.145 49.851 C 258.834 50.091,258.969 50.375,259.266 52.213 C 259.806 55.551,261.212 55.264,261.946 51.667 C 262.285 50.001,262.640 49.608,263.710 49.710 C 265.202 49.851,265.388 50.292,264.748 52.173 C 264.518 52.850,264.173 54.344,263.982 55.494 C 263.791 56.643,263.426 58.188,263.171 58.928 C 262.915 59.667,262.655 60.577,262.592 60.950 C 262.422 61.957,261.990 62.333,261.007 62.333 C 259.568 62.333,259.462 62.213,259.069 60.141 C 258.759 58.508,258.544 58.053,257.759 57.363 C 256.792 56.514,256.546 56.814,256.007 59.504 C 255.545 61.807,255.130 62.333,253.774 62.333 C 252.737 62.333,251.738 60.206,251.167 56.784 C 250.432 52.377,249.407 50.891,248.099 52.338 C 246.715 53.869,246.759 58.322,248.168 59.359 C 250.008 60.713,249.432 62.250,247.083 62.250 C 244.586 62.250,244.117 61.413,244.000 56.750 L 243.917 53.417 243.429 52.697 C 242.525 51.364,241.402 51.145,240.061 52.042 C 238.718 52.939,238.667 53.143,238.667 57.679 L 238.667 61.609 238.258 61.993 C 237.910 62.319,237.721 62.365,237.006 62.296 C 235.485 62.150,235.500 62.195,235.500 57.765 C 235.500 53.558,235.446 53.210,234.585 51.813 C 233.845 50.615,233.852 50.392,234.653 49.661 C 235.120 49.234,235.381 48.805,235.570 48.154 C 235.911 46.980,237.287 45.238,238.046 45.019 C 238.993 44.745,240.852 44.798,241.195 45.109 M332.190 45.271 C 332.690 45.723,332.669 61.462,332.168 61.915 C 331.616 62.415,330.239 62.459,329.742 61.993 L 329.333 61.609 329.333 53.566 L 329.333 45.524 329.792 45.162 C 330.334 44.733,331.662 44.793,332.190 45.271 M358.091 45.242 C 359.038 46.189,358.452 47.927,357.198 47.894 C 355.746 47.856,355.333 47.512,355.333 46.336 C 355.333 44.987,357.125 44.276,358.091 45.242 M351.167 46.716 C 351.474 46.871,351.619 47.122,351.721 47.672 C 351.797 48.081,351.891 48.581,351.930 48.781 C 351.971 48.991,352.286 49.306,352.673 49.523 C 353.788 50.150,353.727 50.844,352.415 52.471 L 351.833 53.193 351.833 55.917 L 351.833 58.641 352.492 59.204 C 353.547 60.107,353.869 61.556,353.130 62.074 C 352.656 62.405,350.819 62.421,350.200 62.099 C 348.741 61.340,348.500 60.593,348.500 56.825 C 348.500 53.199,348.484 53.139,347.172 51.667 C 345.736 50.056,345.476 50.820,345.346 57.036 C 345.263 61.052,345.214 61.692,344.971 61.934 C 344.551 62.354,343.143 62.433,342.241 62.089 C 341.546 61.823,341.439 61.822,340.824 62.067 C 339.853 62.456,337.899 62.423,337.214 62.006 C 335.509 60.966,335.167 59.713,335.167 54.507 L 335.167 50.530 335.679 50.098 C 336.520 49.391,337.985 49.668,338.340 50.602 C 338.428 50.833,338.500 52.697,338.500 54.744 L 338.500 58.465 339.089 58.983 C 339.760 59.572,340.052 59.610,341.003 59.229 C 342.113 58.785,342.167 58.554,342.167 54.175 C 342.167 49.827,342.211 49.667,343.426 49.667 C 344.119 49.667,345.513 49.981,345.742 50.189 C 346.024 50.446,346.334 50.345,347.322 49.675 C 348.366 48.965,348.500 48.767,348.500 47.926 C 348.500 46.703,349.892 46.071,351.167 46.716 M274.063 49.905 C 274.990 50.305,276.505 51.867,276.674 52.597 C 276.757 52.956,276.827 55.170,276.829 57.516 C 276.834 62.687,276.939 62.442,274.796 62.259 C 273.187 62.122,272.896 62.122,270.981 62.261 C 269.433 62.374,269.052 62.263,268.130 61.433 C 266.482 59.949,266.523 57.063,268.211 55.627 C 269.434 54.586,269.625 54.511,271.351 54.389 C 273.464 54.239,273.965 53.773,273.025 52.833 C 272.350 52.158,271.526 52.043,270.508 52.481 C 269.156 53.062,267.648 52.896,267.408 52.139 C 267.289 51.764,268.112 50.849,269.290 50.051 C 270.098 49.502,272.931 49.416,274.063 49.905 M323.576 49.926 C 327.562 51.769,328.497 57.817,325.271 60.889 C 323.067 62.987,320.547 63.047,317.964 61.062 C 316.606 60.018,316.083 58.609,316.084 56.000 C 316.085 52.839,316.533 51.973,319.175 50.030 C 319.901 49.496,322.513 49.434,323.576 49.926 M358.083 50.012 C 358.577 50.501,358.605 61.424,358.114 61.966 C 357.502 62.642,355.720 62.556,355.332 61.831 C 355.037 61.280,355.116 50.479,355.418 50.048 C 355.858 49.420,357.464 49.398,358.083 50.012 M368.295 49.850 C 368.531 49.940,369.008 50.255,369.354 50.549 C 369.699 50.843,370.202 51.250,370.470 51.453 C 370.841 51.735,371.063 52.162,371.398 53.236 C 372.340 56.257,373.470 55.787,373.491 52.364 C 373.504 50.141,374.038 49.495,375.653 49.750 C 376.588 49.898,377.030 49.897,379.633 49.742 L 381.683 49.620 382.417 50.408 C 383.868 51.966,383.909 52.145,383.974 57.171 C 384.042 62.427,384.048 62.405,382.447 62.405 C 380.853 62.405,380.882 62.486,380.803 57.783 C 380.728 53.294,380.703 53.184,379.625 52.753 C 377.408 51.866,376.836 52.949,376.834 58.035 C 376.833 61.814,376.782 62.006,375.711 62.275 C 374.221 62.649,373.630 61.964,373.488 59.700 C 373.263 56.133,372.525 55.755,371.491 58.679 C 370.145 62.483,366.103 63.658,362.932 61.167 C 359.346 58.348,360.654 50.417,364.816 49.742 C 365.147 49.688,365.529 49.617,365.667 49.583 C 366.053 49.488,367.814 49.667,368.295 49.850 M217.782 50.016 C 219.579 50.885,220.267 52.860,218.963 53.408 C 218.523 53.594,218.355 53.553,217.197 52.981 C 215.331 52.061,215.109 52.032,214.504 52.637 C 213.570 53.571,213.916 54.093,215.848 54.670 C 218.948 55.596,220.795 57.433,220.323 59.120 C 219.736 61.216,217.822 62.386,215.111 62.306 L 213.221 62.250 212.267 61.513 C 211.010 60.543,210.743 60.039,211.069 59.258 C 211.362 58.558,211.976 58.337,212.564 58.722 C 214.403 59.927,216.279 60.037,216.848 58.972 C 217.248 58.226,216.598 57.748,214.635 57.343 C 214.114 57.235,213.514 57.012,213.302 56.847 C 213.090 56.681,212.592 56.381,212.194 56.179 C 209.824 54.976,210.409 51.480,213.250 49.866 C 213.868 49.515,216.958 49.617,217.782 50.016 M229.606 49.959 C 232.604 51.630,234.283 55.856,232.932 58.333 C 232.757 58.654,232.444 59.254,232.236 59.667 C 230.713 62.693,226.526 63.354,223.933 60.978 C 222.332 59.511,222.259 59.295,222.259 56.000 C 222.259 52.554,223.113 50.901,225.408 49.901 C 226.196 49.558,228.955 49.596,229.606 49.959 M285.125 49.814 C 286.887 49.904,286.507 52.465,284.691 52.735 C 282.770 53.020,282.630 53.354,282.509 57.941 C 282.399 62.151,282.150 62.649,280.356 62.255 C 279.143 61.989,279.167 62.111,279.167 56.008 L 279.167 50.530 279.651 50.122 C 280.127 49.721,281.624 49.637,285.125 49.814 M294.380 49.893 C 296.745 50.889,298.485 54.753,297.105 55.941 C 296.669 56.315,296.533 56.333,294.152 56.333 C 290.569 56.333,290.131 56.570,290.767 58.160 C 291.291 59.469,292.856 59.944,294.280 59.226 C 295.399 58.662,296.833 59.083,296.833 59.976 C 296.833 60.331,295.231 61.927,294.667 62.135 C 293.432 62.589,290.865 62.471,290.112 61.926 C 288.215 60.552,288.057 60.363,286.968 58.167 C 286.576 57.375,286.688 54.368,287.143 53.500 C 287.358 53.087,287.671 52.487,287.836 52.167 C 288.159 51.543,289.733 50.096,290.366 49.842 C 290.971 49.599,293.768 49.635,294.380 49.893 M311.750 49.979 C 313.450 51.037,314.060 52.197,313.407 53.130 C 313.033 53.664,312.474 53.596,310.879 52.825 C 309.394 52.106,309.151 52.095,308.282 52.707 C 307.287 53.408,307.957 54.228,309.872 54.653 C 315.842 55.979,315.397 62.333,309.333 62.333 C 306.610 62.333,304.270 60.731,304.833 59.252 C 305.199 58.288,306.070 58.233,307.349 59.094 C 308.724 60.019,309.877 60.042,310.507 59.157 C 311.122 58.293,310.598 57.747,308.758 57.335 C 302.877 56.017,303.492 49.666,309.500 49.667 C 310.918 49.668,311.345 49.727,311.750 49.979 M291.125 52.783 C 289.957 53.585,290.649 54.333,292.560 54.333 C 294.391 54.333,294.732 53.171,293.066 52.603 C 292.040 52.254,291.873 52.269,291.125 52.783 M226.729 52.615 C 225.724 52.812,225.178 54.646,225.407 57.057 C 225.776 60.945,230.167 59.971,230.167 56.000 C 230.167 53.659,228.711 52.226,226.729 52.615 M320.213 53.056 C 318.971 54.471,318.970 57.778,320.211 59.019 C 321.678 60.485,324.000 58.677,324.000 56.069 C 324.000 53.298,321.645 51.425,320.213 53.056 M365.135 52.883 C 363.790 54.131,363.724 57.750,365.023 59.049 C 366.280 60.306,368.065 59.351,368.586 57.141 C 369.308 54.077,366.965 51.184,365.135 52.883 M271.109 56.522 C 269.920 57.214,270.238 59.667,271.517 59.667 C 272.852 59.667,273.591 58.924,273.455 57.719 C 273.316 56.482,272.178 55.901,271.109 56.522 M164.498 70.748 C 164.616 70.890,164.659 71.174,164.599 71.415 C 164.425 72.107,163.333 71.893,163.333 71.167 C 163.333 70.560,164.110 70.281,164.498 70.748  M -25 0 L -5 0 L -5 20 L -25 20 Z M 405 0 L 425 0 L 425 20 L 405 20 Z" stroke="none" fill="#fbfbfb" fill-rule="evenodd" transform="translate(950,0)"></path></g></svg>