<svg id="splitsvg" version="1.1" xmlns="http://www.w3.org/2000/svg" xmlns:xlink="http://www.w3.org/1999/xlink" width="1380" height="80"><g id="svgg"><path id="path0" d="M33.430 13.116 C 32.710 13.232,30.694 14.491,30.294 15.075 C 30.103 15.355,29.778 15.771,29.571 16.000 C 29.365 16.229,29.005 16.891,28.772 17.470 C 28.538 18.050,28.120 18.782,27.843 19.098 C 27.565 19.414,27.289 19.878,27.229 20.128 C 27.077 20.761,26.697 21.480,26.151 22.167 C 25.896 22.488,25.638 22.952,25.578 23.198 C 25.518 23.445,25.138 24.149,24.735 24.764 C 24.331 25.380,24.000 25.977,24.000 26.091 C 24.000 26.206,23.727 26.701,23.394 27.192 C 23.061 27.682,22.605 28.492,22.381 28.992 C 22.157 29.492,21.766 30.167,21.511 30.492 C 21.256 30.817,20.922 31.467,20.768 31.935 C 20.615 32.403,20.243 33.078,19.943 33.435 C 19.643 33.792,19.259 34.458,19.090 34.917 C 18.920 35.375,18.594 35.975,18.366 36.250 C 18.137 36.525,17.731 37.237,17.463 37.833 C 17.196 38.429,16.869 39.035,16.737 39.181 C 16.606 39.326,16.274 39.907,16.001 40.472 C 15.727 41.036,15.282 41.804,15.010 42.179 C 14.739 42.553,14.430 43.135,14.324 43.471 C 14.217 43.808,13.906 44.370,13.632 44.719 C 13.358 45.069,12.961 45.796,12.750 46.334 C 12.539 46.872,12.178 47.561,11.948 47.864 C 11.717 48.168,11.331 48.866,11.089 49.415 C 10.847 49.964,10.507 50.565,10.333 50.750 C 10.159 50.936,9.854 51.462,9.657 51.919 C 9.459 52.376,9.024 53.153,8.690 53.645 C 7.946 54.743,7.689 57.877,8.246 59.051 C 8.625 59.850,10.327 61.568,11.204 62.036 L 11.917 62.417 105.583 62.417 C 181.171 62.417,199.366 62.376,199.850 62.204 C 200.612 61.933,202.452 60.123,202.853 59.250 C 203.761 57.273,202.562 54.486,200.250 53.196 C 199.785 52.936,193.572 52.911,110.750 52.833 C 38.676 52.766,21.679 52.709,21.375 52.536 C 20.837 52.229,20.898 51.565,21.554 50.581 C 21.858 50.124,22.237 49.413,22.396 49.000 C 22.555 48.587,22.901 47.945,23.165 47.572 C 23.429 47.198,23.841 46.449,24.081 45.907 C 24.321 45.364,24.658 44.769,24.831 44.585 C 25.003 44.401,25.380 43.725,25.667 43.084 C 25.955 42.442,26.298 41.798,26.429 41.653 C 26.561 41.507,26.900 40.907,27.183 40.319 C 27.466 39.731,27.837 39.099,28.007 38.915 C 28.177 38.731,28.511 38.141,28.748 37.603 C 28.986 37.066,29.370 36.378,29.602 36.073 C 29.835 35.769,30.174 35.122,30.357 34.635 C 30.540 34.148,30.920 33.460,31.201 33.106 C 31.483 32.751,31.855 32.088,32.029 31.630 C 32.203 31.173,32.560 30.526,32.824 30.191 C 33.087 29.857,33.474 29.171,33.683 28.667 C 33.893 28.162,34.229 27.525,34.430 27.250 C 34.631 26.975,35.000 26.337,35.250 25.833 C 35.500 25.329,35.886 24.674,36.108 24.378 C 36.331 24.081,36.625 23.522,36.761 23.134 C 36.898 22.747,37.266 22.102,37.578 21.701 C 38.856 20.060,39.023 16.390,37.878 15.124 C 36.929 14.075,34.445 12.954,33.430 13.116 M237.896 45.073 C 237.396 45.291,235.668 47.234,235.666 47.581 C 235.662 48.198,235.231 49.069,234.661 49.609 C 233.889 50.341,233.823 50.819,234.392 51.568 C 235.399 52.893,235.407 52.935,235.460 57.250 C 235.523 62.418,235.494 62.333,237.226 62.333 C 238.599 62.333,238.572 62.419,238.667 57.631 C 238.760 52.875,238.763 52.864,240.040 52.058 C 242.655 50.407,243.991 52.127,244.008 57.167 L 244.018 60.083 244.637 60.996 C 245.441 62.183,245.797 62.358,247.277 62.296 C 249.481 62.202,249.881 60.894,248.184 59.334 L 247.333 58.552 247.333 55.956 L 247.333 53.359 247.882 52.638 C 249.240 50.855,250.408 52.351,251.160 56.836 C 251.753 60.369,252.692 62.333,253.787 62.333 C 255.156 62.333,255.555 61.849,255.989 59.664 C 256.553 56.820,256.717 56.618,257.794 57.439 C 258.495 57.974,258.785 58.635,259.092 60.398 C 259.382 62.060,259.642 62.333,260.935 62.333 C 262.072 62.333,262.402 62.028,262.671 60.723 C 262.782 60.188,263.022 59.375,263.205 58.917 C 263.388 58.458,263.715 57.071,263.933 55.833 C 264.150 54.596,264.528 52.977,264.773 52.236 C 265.303 50.629,265.239 50.116,264.476 49.850 C 263.053 49.354,262.299 49.791,262.000 51.286 C 261.640 53.091,261.492 53.482,260.975 53.999 C 260.038 54.936,259.687 54.530,259.249 52.000 C 258.934 50.176,258.740 49.890,257.718 49.736 C 256.696 49.583,256.220 49.832,256.034 50.618 C 255.951 50.965,255.793 51.624,255.682 52.080 C 255.359 53.413,254.117 54.776,253.609 54.355 C 253.359 54.147,253.072 52.926,252.910 51.373 C 252.732 49.684,252.496 49.540,250.083 49.649 C 248.525 49.719,248.392 49.695,247.846 49.235 C 247.431 48.886,247.333 48.677,247.333 48.139 C 247.333 46.012,244.217 45.855,243.937 47.968 C 243.712 49.663,242.062 50.288,239.923 49.488 C 238.636 49.006,238.649 48.593,239.974 47.848 C 241.367 47.064,241.946 45.803,241.238 45.095 C 240.903 44.760,238.649 44.745,237.896 45.073 M329.708 45.203 L 329.333 45.605 329.333 53.636 C 329.333 61.444,329.343 61.676,329.667 62.000 C 330.219 62.552,331.948 62.403,332.372 61.767 C 332.709 61.262,332.511 45.562,332.164 45.248 C 331.599 44.736,330.169 44.710,329.708 45.203 M356.053 45.001 C 354.881 45.473,355.094 47.500,356.350 47.838 C 357.719 48.206,358.500 47.674,358.500 46.372 C 358.500 45.106,357.367 44.471,356.053 45.001 M349.228 46.581 C 348.644 46.827,348.500 47.104,348.500 47.982 C 348.500 48.747,348.321 48.988,347.195 49.737 L 346.308 50.328 345.326 49.997 C 342.352 48.996,342.095 49.324,342.038 54.193 C 341.983 58.891,342.016 58.715,341.115 59.151 C 340.120 59.633,339.724 59.591,339.067 58.933 L 338.500 58.367 338.500 54.504 L 338.500 50.641 338.013 50.154 C 337.279 49.420,335.592 49.586,335.270 50.424 C 335.039 51.025,335.160 58.749,335.413 59.602 C 336.108 61.943,338.559 63.040,340.953 62.083 C 341.589 61.828,341.674 61.829,342.178 62.089 C 342.891 62.458,344.508 62.362,344.994 61.922 C 345.317 61.630,345.333 61.428,345.333 57.664 C 345.333 50.661,345.873 49.654,347.972 52.737 C 348.411 53.383,348.418 53.434,348.500 56.904 L 348.583 60.417 349.056 61.113 C 349.888 62.340,352.270 62.895,353.178 62.073 C 353.839 61.475,353.570 60.148,352.610 59.266 L 351.833 58.553 351.833 56.016 C 351.833 53.269,351.842 53.234,352.860 51.947 C 353.768 50.797,353.750 50.161,352.792 49.561 C 351.929 49.020,351.839 48.894,351.836 48.219 C 351.829 46.776,350.600 46.004,349.228 46.581 M214.417 49.606 C 213.386 49.748,213.156 49.856,212.189 50.661 C 210.354 52.189,210.168 55.041,211.843 55.962 C 212.131 56.120,212.678 56.449,213.058 56.692 C 213.439 56.935,214.373 57.301,215.134 57.504 C 217.327 58.091,217.565 59.268,215.590 59.763 C 215.206 59.860,212.764 58.960,212.574 58.651 C 212.411 58.388,211.563 58.488,211.278 58.803 C 209.411 60.866,214.828 63.578,217.750 62.044 C 219.115 61.327,220.500 59.520,220.500 58.455 C 220.500 57.223,217.432 54.679,215.925 54.663 C 214.724 54.650,213.767 53.677,214.242 52.952 C 214.868 51.997,215.272 52.027,217.612 53.204 C 218.611 53.707,218.654 53.714,219.078 53.436 C 221.330 51.960,217.886 49.130,214.417 49.606 M226.368 49.663 C 224.759 49.910,222.849 51.576,222.395 53.127 C 221.288 56.909,222.557 60.762,225.333 62.046 C 226.233 62.462,228.974 62.537,229.672 62.165 C 236.058 58.759,233.370 48.589,226.368 49.663 M270.917 49.572 C 270.825 49.609,270.480 49.684,270.151 49.739 C 269.570 49.836,267.732 51.103,267.448 51.602 C 266.848 52.659,268.706 53.188,270.571 52.490 C 271.978 51.964,273.333 52.469,273.333 53.520 C 273.333 54.131,272.936 54.332,271.719 54.337 C 269.539 54.347,267.570 55.518,267.148 57.056 C 266.199 60.523,268.490 63.051,271.872 62.266 C 272.628 62.091,273.124 62.064,273.592 62.173 C 276.732 62.901,276.868 62.700,276.842 57.363 C 276.816 52.233,276.811 52.209,275.462 50.940 C 274.220 49.771,272.040 49.115,270.917 49.572 M291.167 49.647 C 290.283 49.778,290.186 49.832,289.037 50.817 C 288.476 51.298,287.903 52.027,287.454 52.827 L 286.750 54.083 286.750 56.000 L 286.750 57.917 287.473 59.208 C 289.501 62.829,293.775 63.639,296.252 60.871 L 297.038 59.992 296.424 59.413 C 295.709 58.738,295.266 58.691,294.298 59.185 C 292.807 59.946,291.058 59.288,290.662 57.817 C 290.316 56.532,290.795 56.333,294.246 56.333 C 297.382 56.333,297.607 56.203,297.549 54.415 C 297.448 51.279,294.585 49.140,291.167 49.647 M308.083 49.648 C 306.337 49.968,304.430 52.017,304.467 53.534 C 304.503 55.048,306.549 56.817,308.943 57.403 C 310.863 57.873,311.192 58.465,310.101 59.485 C 309.530 60.020,308.235 59.770,307.105 58.907 C 306.098 58.138,305.260 58.213,304.852 59.110 C 303.930 61.133,309.081 63.440,311.583 62.124 C 312.683 61.546,313.807 60.296,314.074 59.356 C 314.398 58.209,313.787 56.447,312.914 56.012 C 312.640 55.876,312.053 55.554,311.609 55.296 C 311.165 55.039,310.454 54.750,310.029 54.654 C 307.583 54.106,307.135 53.150,308.965 52.386 C 309.486 52.168,309.578 52.180,310.222 52.553 C 312.256 53.728,313.164 53.779,313.598 52.741 C 313.912 51.990,313.720 51.547,312.723 50.719 C 311.457 49.667,309.920 49.312,308.083 49.648 M320.000 49.725 C 315.610 50.910,314.414 58.247,318.129 61.203 C 320.673 63.227,323.611 62.886,325.974 60.293 C 326.406 59.819,327.329 56.991,327.331 56.134 C 327.334 54.997,326.075 51.333,325.681 51.333 C 325.601 51.333,325.172 51.031,324.726 50.662 C 323.430 49.587,321.747 49.254,320.000 49.725 M355.886 49.668 C 355.201 49.944,355.167 50.252,355.167 56.054 C 355.167 62.385,355.144 62.273,356.457 62.449 C 358.413 62.711,358.500 62.442,358.500 56.100 C 358.500 49.481,358.197 48.737,355.886 49.668 M365.250 49.603 C 362.379 50.338,360.749 52.687,360.756 56.083 C 360.769 63.004,369.104 65.074,371.491 58.749 C 372.496 56.085,373.287 56.505,373.459 59.797 C 373.581 62.125,374.528 62.931,376.155 62.089 C 376.819 61.746,376.833 61.668,376.841 58.111 C 376.851 53.360,377.238 52.309,378.877 52.571 C 380.641 52.853,380.709 53.039,380.801 57.843 C 380.890 62.468,380.872 62.417,382.417 62.417 C 384.071 62.417,384.040 62.520,383.971 57.169 C 383.905 52.026,383.919 52.093,382.611 50.599 C 381.763 49.629,380.934 49.434,378.833 49.710 C 377.339 49.906,376.898 49.912,375.574 49.750 C 373.927 49.548,373.617 49.929,373.480 52.316 C 373.288 55.661,372.295 55.999,371.333 53.047 C 370.565 50.690,367.589 49.005,365.250 49.603 M279.914 49.868 C 279.171 50.258,279.167 50.299,279.167 56.118 L 279.167 61.672 279.708 62.002 C 280.477 62.471,281.357 62.432,281.987 61.902 L 282.500 61.470 282.500 58.309 C 282.500 53.802,282.793 53.027,284.598 52.757 C 286.092 52.533,286.167 52.466,286.167 51.363 C 286.167 49.842,286.056 49.788,282.870 49.736 C 281.282 49.710,280.113 49.762,279.914 49.868 M293.322 52.802 C 294.668 53.464,294.235 54.333,292.560 54.333 C 290.868 54.333,290.103 53.751,290.875 53.052 C 291.738 52.271,292.156 52.228,293.322 52.802 M228.783 52.983 C 231.132 54.684,229.979 59.809,227.327 59.454 C 225.786 59.247,225.453 58.651,225.441 56.083 C 225.425 52.850,226.818 51.559,228.783 52.983 M323.015 53.129 C 324.742 55.062,323.874 59.250,321.703 59.459 C 319.786 59.643,318.738 57.002,319.618 54.208 C 320.175 52.443,321.909 51.892,323.015 53.129 M367.333 52.792 C 368.933 53.591,369.106 58.101,367.576 59.104 C 365.365 60.552,363.407 57.879,364.313 54.650 C 364.866 52.677,365.868 52.060,367.333 52.792 M272.991 56.657 C 273.655 57.322,273.636 58.795,272.956 59.239 C 271.288 60.331,269.762 59.042,270.612 57.260 C 271.038 56.367,272.364 56.031,272.991 56.657  M -25 0 L -5 0 L -5 20 L -25 20 Z M 405 0 L 425 0 L 425 20 L 405 20 Z" stroke="none" fill="#f04306" fill-rule="evenodd" transform="translate(30,0)"></path><path id="path1" d="M45.370 13.093 C 44.799 13.493,44.874 14.492,45.585 15.931 C 45.907 16.582,46.309 17.754,46.480 18.535 C 46.651 19.317,47.026 20.435,47.313 21.020 C 47.601 21.605,47.950 22.646,48.091 23.333 C 48.231 24.021,48.493 24.771,48.674 25.000 C 48.854 25.229,49.110 25.567,49.242 25.750 C 49.374 25.933,49.589 26.802,49.719 27.681 C 49.917 29.014,50.052 29.418,50.535 30.120 C 51.019 30.823,51.148 31.209,51.321 32.477 C 51.473 33.590,51.635 34.138,51.929 34.538 C 52.502 35.315,52.833 36.082,52.833 36.626 C 52.833 37.424,53.316 38.998,53.730 39.554 C 53.947 39.845,54.253 40.359,54.409 40.697 C 54.793 41.524,55.290 41.667,57.784 41.667 C 61.468 41.667,61.902 41.399,62.274 38.889 C 62.478 37.521,62.612 37.112,63.089 36.417 C 63.560 35.729,63.700 35.312,63.887 34.033 C 64.071 32.783,64.217 32.338,64.637 31.741 C 64.958 31.286,65.293 30.470,65.506 29.625 C 65.697 28.869,66.075 27.820,66.346 27.294 C 66.616 26.768,66.949 25.756,67.085 25.044 C 67.220 24.332,67.566 23.271,67.854 22.686 C 68.141 22.101,68.515 20.986,68.685 20.207 C 68.864 19.390,69.234 18.361,69.562 17.771 C 69.874 17.209,70.180 16.412,70.243 16.000 C 70.305 15.588,70.474 14.880,70.618 14.428 L 70.880 13.606 70.431 13.220 C 70.003 12.852,69.859 12.833,67.421 12.833 C 64.097 12.833,64.576 12.540,62.969 15.556 C 62.814 15.846,62.604 16.721,62.502 17.500 C 62.375 18.478,62.139 19.296,61.743 20.141 C 61.427 20.814,61.090 21.864,60.995 22.474 C 60.787 23.810,60.608 24.409,59.988 25.843 C 59.717 26.471,59.413 27.626,59.275 28.555 C 58.952 30.726,58.447 31.464,57.803 30.708 C 56.503 29.183,56.119 28.350,55.887 26.557 C 55.719 25.258,55.504 24.435,55.085 23.480 C 54.769 22.763,54.428 21.668,54.326 21.047 C 54.079 19.544,53.865 18.881,53.369 18.093 C 53.080 17.634,52.885 16.955,52.724 15.843 C 52.416 13.725,52.275 13.413,51.481 13.095 C 50.541 12.719,45.907 12.717,45.370 13.093 M73.417 13.062 C 72.552 13.443,72.578 12.937,72.667 27.333 L 72.750 40.917 73.500 41.297 L 74.250 41.677 83.108 41.630 C 93.664 41.574,92.667 41.822,92.667 39.256 C 92.667 36.703,93.252 36.932,86.464 36.833 C 81.347 36.759,80.686 36.718,80.284 36.454 L 79.833 36.159 79.833 32.842 L 79.833 29.524 80.272 29.179 C 80.691 28.850,80.915 28.833,84.981 28.832 C 90.886 28.831,91.000 28.785,91.000 26.389 C 91.000 25.181,90.952 24.963,90.598 24.551 L 90.196 24.083 85.365 24.000 C 79.312 23.896,79.833 24.194,79.833 20.833 C 79.833 17.444,79.173 17.770,86.250 17.667 C 93.187 17.566,92.667 17.761,92.667 15.256 C 92.667 12.649,93.776 12.923,83.055 12.879 C 75.782 12.850,73.815 12.887,73.417 13.062 M102.835 13.009 C 102.424 13.094,101.880 13.316,101.626 13.504 C 101.373 13.691,100.885 14.034,100.541 14.267 C 100.198 14.499,99.554 15.059,99.110 15.511 C 98.666 15.963,98.237 16.333,98.156 16.333 C 98.075 16.333,97.884 16.577,97.731 16.875 C 97.579 17.173,97.235 17.696,96.967 18.036 C 96.480 18.656,95.868 20.277,95.067 23.067 C 94.442 25.243,94.527 29.839,95.233 32.000 C 95.487 32.779,95.846 33.979,96.031 34.667 C 96.267 35.549,96.525 36.088,96.906 36.500 C 97.204 36.821,97.646 37.433,97.889 37.861 C 98.333 38.642,99.559 39.833,99.920 39.833 C 100.026 39.833,100.518 40.121,101.015 40.473 C 102.341 41.415,102.787 41.519,105.917 41.616 C 109.096 41.714,111.585 41.497,112.414 41.048 C 114.195 40.085,114.831 39.659,115.700 38.850 C 116.232 38.354,116.667 37.853,116.667 37.735 C 116.667 37.617,116.966 37.174,117.332 36.751 C 118.410 35.506,118.706 32.351,117.833 31.414 L 117.417 30.966 115.333 31.042 C 112.550 31.143,112.520 31.164,111.914 33.390 C 111.629 34.436,111.370 34.746,110.099 35.560 C 109.650 35.848,109.054 36.230,108.775 36.409 C 107.933 36.951,106.227 36.868,105.333 36.243 C 104.945 35.972,104.375 35.595,104.066 35.406 C 102.282 34.314,101.730 32.108,101.878 26.667 C 102.015 21.597,102.362 20.316,103.880 19.280 C 104.359 18.953,105.080 18.456,105.483 18.176 C 106.745 17.300,107.913 17.416,109.686 18.596 C 111.519 19.815,111.638 19.933,111.840 20.735 C 112.152 21.971,112.546 22.682,113.072 22.961 C 113.616 23.250,116.630 23.462,117.411 23.266 C 118.622 22.962,118.686 19.654,117.509 18.163 C 117.254 17.841,116.885 17.261,116.689 16.876 C 116.159 15.839,115.464 15.123,114.470 14.592 C 113.982 14.332,113.432 13.984,113.248 13.818 C 112.361 13.021,111.806 12.930,107.583 12.892 C 105.383 12.871,103.247 12.924,102.835 13.009 M120.337 13.163 C 120.042 13.458,120.000 13.716,120.000 15.238 C 120.000 17.722,119.907 17.667,124.074 17.667 C 126.570 17.667,127.340 17.718,127.593 17.903 C 127.906 18.132,127.919 18.497,128.000 29.482 L 128.083 40.824 128.454 41.195 C 128.854 41.594,132.048 41.851,133.420 41.594 C 134.525 41.386,134.500 41.675,134.500 29.339 C 134.500 16.027,133.931 17.672,138.542 17.653 C 143.640 17.633,143.884 17.512,143.798 15.046 C 143.757 13.879,143.694 13.619,143.370 13.296 L 142.991 12.917 131.832 12.872 C 120.827 12.827,120.669 12.831,120.337 13.163 M152.974 12.990 C 152.639 13.056,151.902 13.385,151.337 13.721 C 150.772 14.058,150.243 14.333,150.162 14.333 C 149.405 14.333,146.115 18.410,145.760 19.790 C 145.612 20.363,145.261 21.483,144.980 22.280 C 142.157 30.279,147.144 40.784,154.119 41.527 C 157.841 41.924,161.526 41.529,162.833 40.594 C 163.246 40.298,163.823 39.961,164.117 39.845 C 164.658 39.630,166.333 37.995,166.333 37.682 C 166.333 37.588,166.659 37.145,167.057 36.696 C 167.636 36.045,167.821 35.678,167.981 34.861 C 168.103 34.241,168.346 33.646,168.601 33.343 C 169.882 31.820,169.876 22.856,168.592 20.989 C 168.269 20.520,167.993 19.869,167.925 19.415 C 167.844 18.873,167.639 18.453,167.245 18.016 C 166.934 17.672,166.505 17.082,166.290 16.704 C 165.833 15.899,164.648 14.810,163.827 14.441 C 163.510 14.298,162.950 13.954,162.583 13.676 C 161.563 12.903,155.604 12.478,152.974 12.990 M173.253 13.232 L 172.833 13.652 172.833 27.150 L 172.833 40.648 173.230 41.109 C 173.619 41.561,173.668 41.571,175.814 41.638 C 179.416 41.750,179.149 42.202,179.207 35.892 C 179.260 30.124,179.093 30.500,181.609 30.500 C 183.624 30.500,183.836 30.621,184.157 31.958 C 184.283 32.485,184.538 32.967,184.848 33.264 C 185.168 33.571,185.456 34.126,185.673 34.856 C 185.872 35.524,186.234 36.249,186.568 36.648 C 186.982 37.143,187.176 37.589,187.310 38.350 C 187.761 40.907,188.837 41.667,192.011 41.667 C 195.651 41.667,196.218 40.828,194.357 38.196 C 194.183 37.951,193.802 37.174,193.510 36.470 C 193.218 35.766,192.874 35.103,192.746 34.996 C 192.617 34.890,192.355 34.379,192.163 33.860 C 191.971 33.341,191.509 32.409,191.136 31.789 C 190.733 31.118,190.426 30.374,190.378 29.951 L 190.298 29.242 191.864 27.746 C 194.954 24.793,195.972 20.548,194.207 17.972 C 193.935 17.575,193.655 17.068,193.586 16.846 C 193.392 16.228,192.014 14.846,191.159 14.413 C 190.739 14.200,190.293 13.903,190.168 13.752 C 189.483 12.926,189.420 12.920,181.295 12.864 L 173.673 12.812 173.253 13.232 M204.502 13.016 C 204.090 13.097,203.563 13.304,203.330 13.476 C 203.097 13.648,202.587 13.952,202.196 14.152 C 201.183 14.668,200.363 15.460,199.412 16.841 L 198.583 18.042 198.583 20.646 L 198.583 23.250 199.402 24.500 C 200.561 26.269,200.775 26.474,202.083 27.075 C 202.725 27.370,203.357 27.741,203.488 27.900 C 203.812 28.294,204.453 28.599,205.250 28.740 C 205.617 28.805,206.392 29.122,206.972 29.445 C 207.678 29.838,208.469 30.109,209.361 30.265 C 213.990 31.073,214.255 36.297,209.691 36.774 C 207.093 37.045,205.363 36.113,204.487 33.969 C 203.787 32.254,202.723 31.831,199.698 32.064 C 197.230 32.253,196.734 32.994,197.811 34.879 C 198.085 35.358,198.399 36.111,198.510 36.551 C 199.038 38.655,202.838 41.221,205.889 41.533 C 209.658 41.920,214.265 41.542,215.353 40.756 C 215.663 40.532,216.292 40.158,216.750 39.923 C 218.033 39.268,218.731 38.315,219.500 36.166 C 220.293 33.954,220.315 33.402,219.661 32.088 C 219.389 31.540,219.167 30.926,219.167 30.723 C 219.167 29.384,216.160 26.531,213.917 25.742 C 213.367 25.548,212.499 25.153,211.990 24.863 C 211.380 24.517,210.585 24.253,209.668 24.093 C 208.610 23.909,208.110 23.727,207.595 23.339 C 207.222 23.059,206.643 22.682,206.307 22.502 C 203.293 20.887,205.454 17.671,209.556 17.668 L 210.696 17.667 211.748 18.678 C 212.586 19.482,212.864 19.882,213.109 20.636 C 213.513 21.880,213.866 22.050,216.232 22.138 C 219.901 22.274,220.423 21.585,219.209 18.208 C 218.433 16.050,215.619 13.503,213.460 13.005 C 212.591 12.805,205.538 12.813,204.502 13.016 M230.833 12.937 C 229.852 13.109,229.645 13.196,229.128 13.649 C 228.828 13.912,228.081 14.354,227.467 14.632 C 226.617 15.017,226.239 15.304,225.884 15.834 C 225.627 16.217,225.188 16.805,224.908 17.140 C 223.701 18.589,222.662 21.069,222.497 22.896 C 222.133 26.927,222.387 32.618,222.985 33.847 C 224.622 37.213,226.054 39.023,227.744 39.867 C 228.297 40.143,228.948 40.554,229.190 40.781 C 230.246 41.772,237.785 42.009,239.475 41.105 C 242.132 39.683,242.399 39.498,243.424 38.375 C 244.370 37.338,245.127 36.216,245.953 34.626 C 246.083 34.374,246.267 33.401,246.361 32.463 C 246.478 31.295,246.645 30.546,246.891 30.087 C 247.432 29.077,247.426 25.237,246.883 24.250 C 246.624 23.780,246.464 23.069,246.340 21.840 C 246.041 18.887,243.875 15.741,241.051 14.160 C 238.659 12.820,239.131 12.919,235.000 12.890 C 232.938 12.875,231.063 12.896,230.833 12.937 M251.500 13.167 C 251.172 13.495,251.167 13.722,251.167 27.174 L 251.167 40.848 251.576 41.258 C 252.316 41.997,256.908 41.795,257.331 41.004 C 257.434 40.813,257.500 38.854,257.500 36.033 C 257.500 31.630,257.518 31.355,257.833 30.954 L 258.167 30.530 262.966 30.474 C 269.010 30.402,268.667 30.544,268.667 28.111 C 268.667 25.462,268.819 25.525,262.387 25.510 L 258.191 25.500 257.845 25.061 C 257.337 24.415,257.315 18.766,257.818 18.143 L 258.137 17.750 263.860 17.660 C 268.049 17.595,269.791 17.508,270.359 17.338 C 271.046 17.133,271.235 17.138,272.003 17.386 C 272.694 17.609,273.529 17.667,276.090 17.667 L 279.309 17.667 279.655 18.106 C 279.996 18.540,280.000 18.666,280.000 29.760 L 280.000 40.976 280.439 41.321 C 281.242 41.953,285.615 41.753,286.121 41.061 C 286.288 40.831,286.333 38.394,286.333 29.581 L 286.333 18.391 286.719 18.029 C 287.089 17.682,287.245 17.667,290.434 17.667 C 293.555 17.667,293.809 17.643,294.506 17.292 L 295.250 16.917 295.299 15.500 C 295.400 12.600,296.456 12.833,283.203 12.833 C 273.776 12.833,272.294 12.867,271.753 13.093 C 271.190 13.328,271.059 13.328,270.369 13.093 C 269.044 12.642,251.958 12.708,251.500 13.167 M335.469 12.993 C 333.415 13.369,330.190 16.152,329.720 17.953 C 329.583 18.475,329.309 19.206,329.111 19.576 C 328.760 20.231,328.748 20.460,328.667 27.750 C 328.564 36.968,328.465 37.401,326.754 36.095 L 325.974 35.500 320.429 35.500 C 316.800 35.500,314.700 35.436,314.353 35.315 C 313.314 34.953,313.333 35.163,313.332 24.550 C 313.331 12.310,313.573 13.145,310.000 13.039 C 307.786 12.974,307.162 13.180,306.589 14.167 C 306.048 15.097,305.967 40.201,306.503 40.882 C 307.091 41.630,307.555 41.665,316.878 41.666 L 325.673 41.667 326.699 41.250 C 327.964 40.736,328.036 40.736,329.301 41.250 C 330.740 41.835,333.387 41.856,334.506 41.292 L 335.250 40.917 335.335 31.083 C 335.439 19.096,335.426 19.167,337.628 19.167 C 339.773 19.167,339.833 19.498,339.833 31.234 C 339.833 41.908,339.728 41.113,341.197 41.508 C 342.389 41.829,345.381 41.654,345.949 41.230 L 346.417 40.881 346.500 31.149 C 346.602 19.202,346.609 19.167,348.915 19.167 C 350.933 19.167,351.000 19.544,351.000 30.939 C 351.000 37.457,351.056 40.442,351.185 40.724 C 351.714 41.884,356.279 42.080,357.369 40.990 L 357.850 40.509 357.800 30.463 L 357.750 20.417 357.316 19.583 C 357.078 19.125,356.793 18.384,356.684 17.936 C 356.260 16.207,352.857 13.310,350.862 12.982 C 348.680 12.622,346.270 12.901,345.044 13.656 C 343.444 14.640,343.345 14.643,341.572 13.757 C 339.876 12.910,337.527 12.616,335.469 12.993 M362.853 13.161 C 362.225 13.316,362.076 13.488,361.835 14.333 C 361.567 15.272,361.610 40.692,361.879 41.061 C 362.244 41.559,363.269 41.659,368.083 41.661 C 373.998 41.665,375.251 41.533,376.491 40.774 C 377.000 40.462,377.733 40.048,378.119 39.853 C 378.506 39.658,378.904 39.345,379.005 39.157 C 379.106 38.969,379.408 38.682,379.677 38.518 C 381.069 37.672,383.374 34.567,384.027 32.658 C 385.495 28.371,385.661 25.993,384.603 24.392 C 384.370 24.039,384.063 23.199,383.922 22.526 C 383.766 21.786,383.477 21.028,383.189 20.609 C 382.928 20.228,382.477 19.533,382.187 19.064 C 381.534 18.006,380.019 16.548,378.917 15.915 C 378.458 15.652,377.879 15.271,377.630 15.067 C 377.381 14.863,376.781 14.569,376.297 14.412 C 375.813 14.255,374.892 13.892,374.250 13.606 L 373.083 13.085 368.250 13.053 C 365.592 13.035,363.163 13.084,362.853 13.161 M158.924 18.408 C 161.375 19.975,161.235 19.828,161.648 21.268 C 161.856 21.991,162.198 23.033,162.409 23.583 C 163.397 26.159,163.481 29.144,162.610 30.734 C 162.304 31.293,161.917 32.268,161.751 32.901 C 161.426 34.140,160.966 34.784,159.977 35.383 C 159.644 35.585,159.065 35.965,158.691 36.227 C 157.718 36.909,156.185 36.946,155.238 36.311 C 154.262 35.657,152.521 34.024,152.260 33.519 C 151.003 31.088,151.129 22.525,152.450 20.618 C 153.447 19.180,155.852 17.761,157.424 17.683 C 157.612 17.674,158.287 18.000,158.924 18.408 M185.386 17.860 C 188.579 19.559,188.637 23.136,185.505 25.225 C 184.809 25.689,180.000 25.627,179.567 25.149 C 179.023 24.547,179.088 18.435,179.643 17.985 C 180.115 17.603,184.715 17.503,185.386 17.860 M236.663 18.561 C 238.458 19.491,239.487 20.822,239.926 22.778 C 240.293 24.414,240.208 31.213,239.808 32.281 C 238.675 35.303,235.423 37.392,233.333 36.440 C 231.458 35.586,230.595 34.919,230.286 34.089 C 230.120 33.641,229.723 32.851,229.403 32.333 C 228.292 30.534,228.351 23.699,229.493 21.797 C 229.839 21.221,230.178 20.563,230.247 20.333 C 230.439 19.695,230.825 19.344,231.916 18.811 C 232.466 18.543,233.179 18.175,233.500 17.995 C 234.291 17.550,234.934 17.665,236.663 18.561 M370.809 19.341 C 371.392 19.436,372.310 19.736,372.849 20.008 C 373.388 20.280,374.203 20.583,374.661 20.681 C 375.518 20.865,375.634 20.966,376.773 22.531 C 377.791 23.928,378.955 27.531,378.676 28.417 C 377.724 31.442,377.398 32.042,375.969 33.392 C 374.148 35.112,373.989 35.183,371.487 35.378 C 367.798 35.665,368.006 36.146,368.002 27.303 C 368.000 19.783,368.020 19.600,368.868 19.355 C 369.600 19.144,369.594 19.144,370.809 19.341  M -25 0 L -5 0 L -5 20 L -25 20 Z M 405 0 L 425 0 L 425 20 L 405 20 Z" stroke="none" fill="#f1f0d9" fill-rule="evenodd" transform="translate(490,0)"></path><path id="path2" d="M0.000 40.000 L 0.000 80.000 200.000 80.000 L 400.000 80.000 400.000 40.000 L 400.000 0.000 200.000 0.000 L 0.000 0.000 0.000 40.000 M51.481 13.095 C 52.275 13.413,52.416 13.725,52.724 15.843 C 52.885 16.955,53.080 17.634,53.369 18.093 C 53.865 18.881,54.079 19.544,54.326 21.047 C 54.428 21.668,54.769 22.763,55.085 23.480 C 55.504 24.435,55.719 25.258,55.887 26.557 C 56.119 28.350,56.503 29.183,57.803 30.708 C 58.447 31.464,58.952 30.726,59.275 28.555 C 59.413 27.626,59.717 26.471,59.988 25.843 C 60.608 24.409,60.787 23.810,60.995 22.474 C 61.090 21.864,61.427 20.814,61.743 20.141 C 62.139 19.296,62.375 18.478,62.502 17.500 C 62.604 16.721,62.814 15.846,62.969 15.556 C 64.576 12.540,64.097 12.833,67.421 12.833 C 69.859 12.833,70.003 12.852,70.431 13.220 L 70.880 13.606 70.618 14.428 C 70.474 14.880,70.305 15.588,70.243 16.000 C 70.180 16.412,69.874 17.209,69.562 17.771 C 69.234 18.361,68.864 19.390,68.685 20.207 C 68.515 20.986,68.141 22.101,67.854 22.686 C 67.566 23.271,67.220 24.332,67.085 25.044 C 66.949 25.756,66.616 26.768,66.346 27.294 C 66.075 27.820,65.697 28.869,65.506 29.625 C 65.293 30.470,64.958 31.286,64.637 31.741 C 64.217 32.338,64.071 32.783,63.887 34.033 C 63.700 35.312,63.560 35.729,63.089 36.417 C 62.612 37.112,62.478 37.521,62.274 38.889 C 61.902 41.399,61.468 41.667,57.784 41.667 C 55.290 41.667,54.793 41.524,54.409 40.697 C 54.253 40.359,53.947 39.845,53.730 39.554 C 53.316 38.998,52.833 37.424,52.833 36.626 C 52.833 36.082,52.502 35.315,51.929 34.538 C 51.635 34.138,51.473 33.590,51.321 32.477 C 51.148 31.209,51.019 30.823,50.535 30.120 C 50.052 29.418,49.917 29.014,49.719 27.681 C 49.589 26.802,49.374 25.933,49.242 25.750 C 49.110 25.567,48.854 25.229,48.674 25.000 C 48.493 24.771,48.231 24.021,48.091 23.333 C 47.950 22.646,47.601 21.605,47.313 21.020 C 47.026 20.435,46.651 19.317,46.480 18.535 C 46.309 17.754,45.907 16.582,45.585 15.931 C 44.874 14.492,44.799 13.493,45.370 13.093 C 45.907 12.717,50.541 12.719,51.481 13.095 M92.430 13.240 C 92.598 13.469,92.667 14.058,92.667 15.256 C 92.667 17.761,93.187 17.566,86.250 17.667 C 79.173 17.770,79.833 17.444,79.833 20.833 C 79.833 24.194,79.312 23.896,85.365 24.000 L 90.196 24.083 90.598 24.551 C 90.952 24.963,91.000 25.181,91.000 26.389 C 91.000 28.785,90.886 28.831,84.981 28.832 C 80.915 28.833,80.691 28.850,80.272 29.179 L 79.833 29.524 79.833 32.842 L 79.833 36.159 80.284 36.454 C 80.686 36.718,81.347 36.759,86.464 36.833 C 93.252 36.932,92.667 36.703,92.667 39.256 C 92.667 41.822,93.664 41.574,83.108 41.630 L 74.250 41.677 73.500 41.297 L 72.750 40.917 72.667 27.333 C 72.578 12.937,72.552 13.443,73.417 13.062 C 74.342 12.655,92.124 12.821,92.430 13.240 M112.248 13.222 C 112.613 13.384,113.063 13.652,113.248 13.818 C 113.432 13.984,113.982 14.332,114.470 14.592 C 115.464 15.123,116.159 15.839,116.689 16.876 C 116.885 17.261,117.254 17.841,117.509 18.163 C 118.686 19.654,118.622 22.962,117.411 23.266 C 116.630 23.462,113.616 23.250,113.072 22.961 C 112.546 22.682,112.152 21.971,111.840 20.735 C 111.638 19.933,111.519 19.815,109.686 18.596 C 107.913 17.416,106.745 17.300,105.483 18.176 C 105.080 18.456,104.359 18.953,103.880 19.280 C 102.362 20.316,102.015 21.597,101.878 26.667 C 101.730 32.108,102.282 34.314,104.066 35.406 C 104.375 35.595,104.945 35.972,105.333 36.243 C 106.227 36.868,107.933 36.951,108.775 36.409 C 109.054 36.230,109.650 35.848,110.099 35.560 C 111.370 34.746,111.629 34.436,111.914 33.390 C 112.520 31.164,112.550 31.143,115.333 31.042 L 117.417 30.966 117.833 31.414 C 118.706 32.351,118.410 35.506,117.332 36.751 C 116.966 37.174,116.667 37.617,116.667 37.735 C 116.667 37.853,116.232 38.354,115.700 38.850 C 114.831 39.659,114.195 40.085,112.414 41.048 C 111.585 41.497,109.096 41.714,105.917 41.616 C 102.787 41.519,102.341 41.415,101.015 40.473 C 100.518 40.121,100.026 39.833,99.920 39.833 C 99.559 39.833,98.333 38.642,97.889 37.861 C 97.646 37.433,97.204 36.821,96.906 36.500 C 96.525 36.088,96.267 35.549,96.031 34.667 C 95.846 33.979,95.487 32.779,95.233 32.000 C 94.527 29.839,94.442 25.243,95.067 23.067 C 95.868 20.277,96.480 18.656,96.967 18.036 C 97.235 17.696,97.579 17.173,97.731 16.875 C 97.884 16.577,98.075 16.333,98.156 16.333 C 98.237 16.333,98.666 15.963,99.110 15.511 C 99.554 15.059,100.198 14.499,100.541 14.267 C 100.885 14.034,101.373 13.691,101.626 13.504 C 102.611 12.775,110.750 12.560,112.248 13.222 M143.370 13.296 C 143.694 13.619,143.757 13.879,143.798 15.046 C 143.884 17.512,143.640 17.633,138.542 17.653 C 133.931 17.672,134.500 16.027,134.500 29.339 C 134.500 41.675,134.525 41.386,133.420 41.594 C 132.048 41.851,128.854 41.594,128.454 41.195 L 128.083 40.824 128.000 29.482 C 127.919 18.497,127.906 18.132,127.593 17.903 C 127.340 17.718,126.570 17.667,124.074 17.667 C 119.907 17.667,120.000 17.722,120.000 15.238 C 120.000 12.541,118.616 12.818,131.832 12.872 L 142.991 12.917 143.370 13.296 M161.019 13.002 C 161.561 13.104,162.181 13.372,162.583 13.676 C 162.950 13.954,163.510 14.298,163.827 14.441 C 164.648 14.810,165.833 15.899,166.290 16.704 C 166.505 17.082,166.934 17.672,167.245 18.016 C 167.639 18.453,167.844 18.873,167.925 19.415 C 167.993 19.869,168.269 20.520,168.592 20.989 C 169.876 22.856,169.882 31.820,168.601 33.343 C 168.346 33.646,168.103 34.241,167.981 34.861 C 167.821 35.678,167.636 36.045,167.057 36.696 C 166.659 37.145,166.333 37.588,166.333 37.682 C 166.333 37.995,164.658 39.630,164.117 39.845 C 163.823 39.961,163.246 40.298,162.833 40.594 C 161.526 41.529,157.841 41.924,154.119 41.527 C 147.144 40.784,142.157 30.279,144.980 22.280 C 145.261 21.483,145.612 20.363,145.760 19.790 C 146.115 18.410,149.405 14.333,150.162 14.333 C 150.243 14.333,150.772 14.058,151.337 13.721 C 151.902 13.385,152.639 13.056,152.974 12.990 C 153.926 12.805,160.019 12.814,161.019 13.002 M189.429 13.197 C 189.710 13.352,190.043 13.601,190.168 13.752 C 190.293 13.903,190.739 14.200,191.159 14.413 C 192.014 14.846,193.392 16.228,193.586 16.846 C 193.655 17.068,193.935 17.575,194.207 17.972 C 195.972 20.548,194.954 24.793,191.864 27.746 L 190.298 29.242 190.378 29.951 C 190.426 30.374,190.733 31.118,191.136 31.789 C 191.509 32.409,191.971 33.341,192.163 33.860 C 192.355 34.379,192.617 34.890,192.746 34.996 C 192.874 35.103,193.218 35.766,193.510 36.470 C 193.802 37.174,194.183 37.951,194.357 38.196 C 196.218 40.828,195.651 41.667,192.011 41.667 C 188.837 41.667,187.761 40.907,187.310 38.350 C 187.176 37.589,186.982 37.143,186.568 36.648 C 186.234 36.249,185.872 35.524,185.673 34.856 C 185.456 34.126,185.168 33.571,184.848 33.264 C 184.538 32.967,184.283 32.485,184.157 31.958 C 183.836 30.621,183.624 30.500,181.609 30.500 C 179.093 30.500,179.260 30.124,179.207 35.892 C 179.149 42.202,179.416 41.750,175.814 41.638 C 173.668 41.571,173.619 41.561,173.230 41.109 L 172.833 40.648 172.833 27.150 L 172.833 13.652 173.253 13.232 L 173.673 12.812 181.295 12.864 C 188.063 12.911,188.974 12.948,189.429 13.197 M213.460 13.005 C 215.619 13.503,218.433 16.050,219.209 18.208 C 220.423 21.585,219.901 22.274,216.232 22.138 C 213.866 22.050,213.513 21.880,213.109 20.636 C 212.864 19.882,212.586 19.482,211.748 18.678 L 210.696 17.667 209.556 17.668 C 205.454 17.671,203.293 20.887,206.307 22.502 C 206.643 22.682,207.222 23.059,207.595 23.339 C 208.110 23.727,208.610 23.909,209.668 24.093 C 210.585 24.253,211.380 24.517,211.990 24.863 C 212.499 25.153,213.367 25.548,213.917 25.742 C 216.160 26.531,219.167 29.384,219.167 30.723 C 219.167 30.926,219.389 31.540,219.661 32.088 C 220.774 34.326,219.150 38.697,216.750 39.923 C 216.292 40.158,215.663 40.532,215.353 40.756 C 214.265 41.542,209.658 41.920,205.889 41.533 C 202.838 41.221,199.038 38.655,198.510 36.551 C 198.399 36.111,198.085 35.358,197.811 34.879 C 196.734 32.994,197.230 32.253,199.698 32.064 C 202.723 31.831,203.787 32.254,204.487 33.969 C 205.096 35.459,206.429 36.592,207.769 36.760 C 212.659 37.371,214.854 33.500,211.139 30.818 C 210.895 30.642,210.095 30.393,209.361 30.265 C 208.469 30.109,207.678 29.838,206.972 29.445 C 206.392 29.122,205.617 28.805,205.250 28.740 C 204.453 28.599,203.812 28.294,203.488 27.900 C 203.357 27.741,202.725 27.370,202.083 27.075 C 200.775 26.474,200.561 26.269,199.402 24.500 L 198.583 23.250 198.583 20.646 L 198.583 18.042 199.412 16.841 C 200.363 15.460,201.183 14.668,202.196 14.152 C 202.587 13.952,203.097 13.648,203.330 13.476 C 204.128 12.886,211.466 12.545,213.460 13.005 M239.417 13.267 C 242.795 15.044,243.669 15.861,245.472 18.924 C 246.102 19.994,246.179 20.252,246.340 21.840 C 246.464 23.069,246.624 23.780,246.883 24.250 C 247.426 25.237,247.432 29.077,246.891 30.087 C 246.645 30.546,246.478 31.295,246.361 32.463 C 246.267 33.401,246.083 34.374,245.953 34.626 C 245.127 36.216,244.370 37.338,243.424 38.375 C 242.399 39.498,242.132 39.683,239.475 41.105 C 237.785 42.009,230.246 41.772,229.190 40.781 C 228.948 40.554,228.297 40.143,227.744 39.867 C 226.054 39.023,224.622 37.213,222.985 33.847 C 222.387 32.618,222.133 26.927,222.497 22.896 C 222.662 21.069,223.701 18.589,224.908 17.140 C 225.188 16.805,225.627 16.217,225.884 15.834 C 226.239 15.304,226.617 15.017,227.467 14.632 C 228.081 14.354,228.828 13.912,229.128 13.649 C 229.645 13.196,229.852 13.109,230.833 12.937 C 232.302 12.678,238.770 12.927,239.417 13.267 M270.369 13.093 C 271.059 13.328,271.190 13.328,271.753 13.093 C 272.294 12.867,273.776 12.833,283.203 12.833 C 296.456 12.833,295.400 12.600,295.299 15.500 L 295.250 16.917 294.506 17.292 C 293.809 17.643,293.555 17.667,290.434 17.667 C 287.245 17.667,287.089 17.682,286.719 18.029 L 286.333 18.391 286.333 29.581 C 286.333 38.394,286.288 40.831,286.121 41.061 C 285.615 41.753,281.242 41.953,280.439 41.321 L 280.000 40.976 280.000 29.760 C 280.000 18.666,279.996 18.540,279.655 18.106 L 279.309 17.667 276.090 17.667 C 273.529 17.667,272.694 17.609,272.003 17.386 C 271.235 17.138,271.046 17.133,270.359 17.338 C 269.791 17.508,268.049 17.595,263.860 17.660 L 258.137 17.750 257.818 18.143 C 257.315 18.766,257.337 24.415,257.845 25.061 L 258.191 25.500 262.387 25.510 C 268.819 25.525,268.667 25.462,268.667 28.111 C 268.667 30.544,269.010 30.402,262.966 30.474 L 258.167 30.530 257.833 30.954 C 257.518 31.355,257.500 31.630,257.500 36.033 C 257.500 38.854,257.434 40.813,257.331 41.004 C 256.908 41.795,252.316 41.997,251.576 41.258 L 251.167 40.848 251.167 27.174 C 251.167 13.722,251.172 13.495,251.500 13.167 C 251.958 12.708,269.044 12.642,270.369 13.093 M341.572 13.757 C 343.345 14.643,343.444 14.640,345.044 13.656 C 346.270 12.901,348.680 12.622,350.862 12.982 C 352.857 13.310,356.260 16.207,356.684 17.936 C 356.793 18.384,357.078 19.125,357.316 19.583 L 357.750 20.417 357.800 30.463 L 357.850 40.509 357.369 40.990 C 356.279 42.080,351.714 41.884,351.185 40.724 C 351.056 40.442,351.000 37.457,351.000 30.939 C 351.000 19.544,350.933 19.167,348.915 19.167 C 346.609 19.167,346.602 19.202,346.500 31.149 L 346.417 40.881 345.949 41.230 C 345.381 41.654,342.389 41.829,341.197 41.508 C 339.728 41.113,339.833 41.908,339.833 31.234 C 339.833 19.498,339.773 19.167,337.628 19.167 C 335.426 19.167,335.439 19.096,335.335 31.083 L 335.250 40.917 334.506 41.292 C 333.387 41.856,330.740 41.835,329.301 41.250 C 328.036 40.736,327.964 40.736,326.699 41.250 L 325.673 41.667 316.878 41.666 C 307.555 41.665,307.091 41.630,306.503 40.882 C 305.967 40.201,306.048 15.097,306.589 14.167 C 307.162 13.180,307.786 12.974,310.000 13.039 C 313.573 13.145,313.331 12.310,313.332 24.550 C 313.333 35.163,313.314 34.953,314.353 35.315 C 314.700 35.436,316.800 35.500,320.429 35.500 L 325.974 35.500 326.754 36.095 C 328.465 37.401,328.564 36.968,328.667 27.750 C 328.748 20.460,328.760 20.231,329.111 19.576 C 329.309 19.206,329.583 18.475,329.720 17.953 C 330.798 13.822,337.180 11.563,341.572 13.757 M36.233 13.990 C 36.983 14.443,37.723 14.953,37.878 15.124 C 39.023 16.390,38.856 20.060,37.578 21.701 C 37.266 22.102,36.898 22.747,36.761 23.134 C 36.625 23.522,36.331 24.081,36.108 24.378 C 35.886 24.674,35.500 25.329,35.250 25.833 C 35.000 26.337,34.631 26.975,34.430 27.250 C 34.229 27.525,33.893 28.162,33.683 28.667 C 33.474 29.171,33.087 29.857,32.824 30.191 C 32.560 30.526,32.203 31.173,32.029 31.630 C 31.855 32.088,31.483 32.751,31.201 33.106 C 30.920 33.460,30.540 34.148,30.357 34.635 C 30.174 35.122,29.835 35.769,29.602 36.073 C 29.370 36.378,28.986 37.066,28.748 37.603 C 28.511 38.141,28.177 38.731,28.007 38.915 C 27.837 39.099,27.466 39.731,27.183 40.319 C 26.900 40.907,26.561 41.507,26.429 41.653 C 26.298 41.798,25.955 42.442,25.667 43.084 C 25.380 43.725,25.003 44.401,24.831 44.585 C 24.658 44.769,24.321 45.364,24.081 45.907 C 23.841 46.449,23.429 47.198,23.165 47.572 C 22.901 47.945,22.555 48.587,22.396 49.000 C 22.237 49.413,21.858 50.124,21.554 50.581 C 20.898 51.565,20.837 52.229,21.375 52.536 C 21.679 52.709,38.676 52.766,110.750 52.833 C 193.572 52.911,199.785 52.936,200.250 53.196 C 202.562 54.486,203.761 57.273,202.853 59.250 C 202.452 60.123,200.612 61.933,199.850 62.204 C 199.366 62.376,181.171 62.417,105.583 62.417 L 11.917 62.417 11.204 62.036 C 10.327 61.568,8.625 59.850,8.246 59.051 C 7.689 57.877,7.946 54.743,8.690 53.645 C 9.024 53.153,9.459 52.376,9.657 51.919 C 9.854 51.462,10.159 50.936,10.333 50.750 C 10.507 50.565,10.847 49.964,11.089 49.415 C 11.331 48.866,11.717 48.168,11.948 47.864 C 12.178 47.561,12.539 46.872,12.750 46.334 C 12.961 45.796,13.358 45.069,13.632 44.719 C 13.906 44.370,14.217 43.808,14.324 43.471 C 14.430 43.135,14.739 42.553,15.010 42.179 C 15.282 41.804,15.727 41.036,16.001 40.472 C 16.274 39.907,16.606 39.326,16.737 39.181 C 16.869 39.035,17.196 38.429,17.463 37.833 C 17.731 37.237,18.137 36.525,18.366 36.250 C 18.594 35.975,18.920 35.375,19.090 34.917 C 19.259 34.458,19.643 33.792,19.943 33.435 C 20.243 33.078,20.615 32.403,20.768 31.935 C 20.922 31.467,21.256 30.817,21.511 30.492 C 21.766 30.167,22.157 29.492,22.381 28.992 C 22.605 28.492,23.061 27.682,23.394 27.192 C 23.727 26.701,24.000 26.206,24.000 26.091 C 24.000 25.977,24.331 25.380,24.735 24.764 C 25.138 24.149,25.518 23.445,25.578 23.198 C 25.638 22.952,25.896 22.488,26.151 22.167 C 26.697 21.480,27.077 20.761,27.229 20.128 C 27.289 19.878,27.565 19.414,27.843 19.098 C 28.120 18.782,28.538 18.050,28.772 17.470 C 29.005 16.891,29.365 16.229,29.571 16.000 C 29.778 15.771,30.103 15.355,30.294 15.075 C 30.485 14.796,31.159 14.258,31.792 13.881 C 33.645 12.776,34.248 12.791,36.233 13.990 M374.250 13.606 C 374.892 13.892,375.813 14.255,376.297 14.412 C 376.781 14.569,377.381 14.863,377.630 15.067 C 377.879 15.271,378.458 15.652,378.917 15.915 C 380.019 16.548,381.534 18.006,382.187 19.064 C 382.477 19.533,382.928 20.228,383.189 20.609 C 383.477 21.028,383.766 21.786,383.922 22.526 C 384.063 23.199,384.370 24.039,384.603 24.392 C 385.661 25.993,385.495 28.371,384.027 32.658 C 383.374 34.567,381.069 37.672,379.677 38.518 C 379.408 38.682,379.106 38.969,379.005 39.157 C 378.904 39.345,378.506 39.658,378.119 39.853 C 377.733 40.048,377.000 40.462,376.491 40.774 C 374.649 41.901,362.666 42.137,361.879 41.061 C 361.610 40.692,361.567 15.272,361.835 14.333 C 362.209 13.021,362.248 13.013,368.250 13.053 L 373.083 13.085 374.250 13.606 M156.479 17.843 C 155.213 18.143,153.209 19.524,152.450 20.618 C 151.129 22.525,151.003 31.088,152.260 33.519 C 152.521 34.024,154.262 35.657,155.238 36.311 C 156.185 36.946,157.718 36.909,158.691 36.227 C 159.065 35.965,159.644 35.585,159.977 35.383 C 160.966 34.784,161.426 34.140,161.751 32.901 C 161.917 32.268,162.304 31.293,162.610 30.734 C 163.481 29.144,163.397 26.159,162.409 23.583 C 162.198 23.033,161.856 21.991,161.648 21.268 C 161.235 19.828,161.375 19.975,158.924 18.408 C 157.735 17.647,157.519 17.597,156.479 17.843 M179.643 17.985 C 179.088 18.435,179.023 24.547,179.567 25.149 C 180.000 25.627,184.809 25.689,185.505 25.225 C 188.637 23.136,188.579 19.559,185.386 17.860 C 184.715 17.503,180.115 17.603,179.643 17.985 M233.500 17.995 C 233.179 18.175,232.466 18.543,231.916 18.811 C 230.825 19.344,230.439 19.695,230.247 20.333 C 230.178 20.563,229.839 21.221,229.493 21.797 C 228.351 23.699,228.292 30.534,229.403 32.333 C 229.723 32.851,230.120 33.641,230.286 34.089 C 230.595 34.919,231.458 35.586,233.333 36.440 C 235.423 37.392,238.675 35.303,239.808 32.281 C 240.208 31.213,240.293 24.414,239.926 22.778 C 239.233 19.690,235.468 16.887,233.500 17.995 M368.868 19.355 C 368.020 19.600,368.000 19.783,368.002 27.303 C 368.006 36.146,367.798 35.665,371.487 35.378 C 373.989 35.183,374.148 35.112,375.969 33.392 C 377.398 32.042,377.724 31.442,378.676 28.417 C 378.955 27.531,377.791 23.928,376.773 22.531 C 375.634 20.966,375.518 20.865,374.661 20.681 C 374.203 20.583,373.388 20.280,372.849 20.008 C 371.487 19.321,369.894 19.059,368.868 19.355 M241.238 45.095 C 241.946 45.803,241.367 47.064,239.974 47.848 C 238.649 48.593,238.636 49.006,239.923 49.488 C 242.062 50.288,243.712 49.663,243.937 47.968 C 244.217 45.855,247.333 46.012,247.333 48.139 C 247.333 48.677,247.431 48.886,247.846 49.235 C 248.392 49.695,248.525 49.719,250.083 49.649 C 252.496 49.540,252.732 49.684,252.910 51.373 C 253.072 52.926,253.359 54.147,253.609 54.355 C 254.117 54.776,255.359 53.413,255.682 52.080 C 255.793 51.624,255.951 50.965,256.034 50.618 C 256.220 49.832,256.696 49.583,257.718 49.736 C 258.740 49.890,258.934 50.176,259.249 52.000 C 259.687 54.530,260.038 54.936,260.975 53.999 C 261.492 53.482,261.640 53.091,262.000 51.286 C 262.299 49.791,263.053 49.354,264.476 49.850 C 265.239 50.116,265.303 50.629,264.773 52.236 C 264.528 52.977,264.150 54.596,263.933 55.833 C 263.715 57.071,263.388 58.458,263.205 58.917 C 263.022 59.375,262.782 60.188,262.671 60.723 C 262.402 62.028,262.072 62.333,260.935 62.333 C 259.642 62.333,259.382 62.060,259.092 60.398 C 258.785 58.635,258.495 57.974,257.794 57.439 C 256.717 56.618,256.553 56.820,255.989 59.664 C 255.555 61.849,255.156 62.333,253.787 62.333 C 252.692 62.333,251.753 60.369,251.160 56.836 C 250.408 52.351,249.240 50.855,247.882 52.638 L 247.333 53.359 247.333 55.956 L 247.333 58.552 248.184 59.334 C 249.881 60.894,249.481 62.202,247.277 62.296 C 245.797 62.358,245.441 62.183,244.637 60.996 L 244.018 60.083 244.008 57.167 C 243.991 52.127,242.655 50.407,240.040 52.058 C 238.763 52.864,238.760 52.875,238.667 57.631 C 238.572 62.419,238.599 62.333,237.226 62.333 C 235.494 62.333,235.523 62.418,235.460 57.250 C 235.407 52.935,235.399 52.893,234.392 51.568 C 233.823 50.819,233.889 50.341,234.661 49.609 C 235.231 49.069,235.662 48.198,235.666 47.581 C 235.668 47.234,237.396 45.291,237.896 45.073 C 238.649 44.745,240.903 44.760,241.238 45.095 M332.164 45.248 C 332.511 45.562,332.709 61.262,332.372 61.767 C 331.948 62.403,330.219 62.552,329.667 62.000 C 329.343 61.676,329.333 61.444,329.333 53.636 L 329.333 45.605 329.708 45.203 C 330.169 44.710,331.599 44.736,332.164 45.248 M358.091 45.242 C 358.892 46.044,358.537 47.689,357.514 47.914 C 355.925 48.263,354.772 46.861,355.511 45.480 C 355.907 44.740,357.446 44.598,358.091 45.242 M351.216 46.700 C 351.580 46.887,351.832 47.505,351.836 48.219 C 351.839 48.894,351.929 49.020,352.792 49.561 C 353.750 50.161,353.768 50.797,352.860 51.947 C 351.842 53.234,351.833 53.269,351.833 56.016 L 351.833 58.553 352.610 59.266 C 353.570 60.148,353.839 61.475,353.178 62.073 C 352.270 62.895,349.888 62.340,349.056 61.113 L 348.583 60.417 348.500 56.904 C 348.418 53.434,348.411 53.383,347.972 52.737 C 345.873 49.654,345.333 50.661,345.333 57.664 C 345.333 61.428,345.317 61.630,344.994 61.922 C 344.508 62.362,342.891 62.458,342.178 62.089 C 341.674 61.829,341.589 61.828,340.953 62.083 C 338.559 63.040,336.108 61.943,335.413 59.602 C 335.160 58.749,335.039 51.025,335.270 50.424 C 335.592 49.586,337.279 49.420,338.013 50.154 L 338.500 50.641 338.500 54.504 L 338.500 58.367 339.067 58.933 C 339.724 59.591,340.120 59.633,341.115 59.151 C 342.016 58.715,341.983 58.891,342.038 54.193 C 342.095 49.324,342.352 48.996,345.326 49.997 L 346.308 50.328 347.195 49.737 C 348.321 48.988,348.500 48.747,348.500 47.982 C 348.500 46.569,349.781 45.964,351.216 46.700 M217.849 50.010 C 219.042 50.615,219.964 51.969,219.684 52.704 C 219.322 53.656,218.774 53.789,217.612 53.204 C 215.272 52.027,214.868 51.997,214.242 52.952 C 213.767 53.677,214.724 54.650,215.925 54.663 C 217.432 54.679,220.500 57.223,220.500 58.455 C 220.500 59.520,219.115 61.327,217.750 62.044 C 214.828 63.578,209.411 60.866,211.278 58.803 C 211.563 58.488,212.411 58.388,212.574 58.651 C 212.764 58.960,215.206 59.860,215.590 59.763 C 217.565 59.268,217.327 58.091,215.134 57.504 C 214.373 57.301,213.439 56.935,213.058 56.692 C 212.678 56.449,212.131 56.120,211.843 55.962 C 209.739 54.805,210.972 50.321,213.549 49.755 C 214.936 49.451,216.986 49.572,217.849 50.010 M229.433 49.840 C 232.707 51.084,234.338 55.975,232.546 59.173 C 230.446 62.920,226.539 63.616,223.629 60.763 C 222.128 59.291,221.581 55.908,222.395 53.127 C 223.160 50.511,226.768 48.826,229.433 49.840 M274.015 49.807 C 274.708 50.071,276.486 51.864,276.660 52.476 C 276.978 53.588,276.904 61.646,276.572 62.012 C 276.246 62.373,274.792 62.451,273.592 62.173 C 273.124 62.064,272.628 62.091,271.872 62.266 C 268.490 63.051,266.199 60.523,267.148 57.056 C 267.570 55.518,269.539 54.347,271.719 54.337 C 272.936 54.332,273.333 54.131,273.333 53.520 C 273.333 52.469,271.978 51.964,270.571 52.490 C 268.706 53.188,266.848 52.659,267.448 51.602 C 267.732 51.103,269.570 49.836,270.151 49.739 C 270.480 49.684,270.825 49.609,270.917 49.572 C 271.193 49.459,273.576 49.640,274.015 49.807 M294.756 50.087 C 297.037 51.394,298.381 54.620,297.179 55.902 C 296.779 56.329,296.751 56.333,294.246 56.333 C 290.795 56.333,290.316 56.532,290.662 57.817 C 291.058 59.288,292.807 59.946,294.298 59.185 C 295.266 58.691,295.709 58.738,296.424 59.413 L 297.038 59.992 296.252 60.871 C 293.775 63.639,289.501 62.829,287.473 59.208 L 286.750 57.917 286.750 56.000 L 286.750 54.083 287.454 52.827 C 288.080 51.710,289.214 50.491,290.167 49.911 C 291.004 49.401,293.742 49.506,294.756 50.087 M311.583 49.875 C 313.119 50.675,313.961 51.872,313.598 52.741 C 313.164 53.779,312.256 53.728,310.222 52.553 C 309.578 52.180,309.486 52.168,308.965 52.386 C 307.135 53.150,307.583 54.106,310.029 54.654 C 310.454 54.750,311.165 55.039,311.609 55.296 C 312.053 55.554,312.640 55.876,312.914 56.012 C 313.787 56.447,314.398 58.209,314.074 59.356 C 313.130 62.686,307.990 63.587,305.458 60.866 C 304.624 59.968,304.553 59.764,304.852 59.110 C 305.260 58.213,306.098 58.138,307.105 58.907 C 308.235 59.770,309.530 60.020,310.101 59.485 C 311.192 58.465,310.863 57.873,308.943 57.403 C 304.219 56.247,303.065 52.069,306.908 50.039 C 307.906 49.512,310.698 49.414,311.583 49.875 M323.095 49.745 C 323.547 49.880,324.281 50.293,324.726 50.662 C 325.172 51.031,325.601 51.333,325.681 51.333 C 326.075 51.333,327.334 54.997,327.331 56.134 C 327.329 56.991,326.406 59.819,325.974 60.293 C 320.885 65.878,313.666 60.067,316.618 52.761 C 317.609 50.308,320.489 48.967,323.095 49.745 M357.734 49.690 C 357.963 49.794,358.229 50.105,358.325 50.381 C 358.573 51.092,358.561 61.183,358.312 61.731 C 357.921 62.588,356.079 62.756,355.460 61.992 C 355.109 61.559,355.004 50.782,355.344 50.146 C 355.667 49.544,356.898 49.309,357.734 49.690 M368.353 49.902 C 369.842 50.584,370.892 51.691,371.333 53.047 C 372.295 55.999,373.288 55.661,373.480 52.316 C 373.617 49.929,373.927 49.548,375.574 49.750 C 376.898 49.912,377.339 49.906,378.833 49.710 C 380.934 49.434,381.763 49.629,382.611 50.599 C 383.919 52.093,383.905 52.026,383.971 57.169 C 384.040 62.520,384.071 62.417,382.417 62.417 C 380.872 62.417,380.890 62.468,380.801 57.843 C 380.709 53.039,380.641 52.853,378.877 52.571 C 377.238 52.309,376.851 53.360,376.841 58.111 C 376.833 61.668,376.819 61.746,376.155 62.089 C 374.528 62.931,373.581 62.125,373.459 59.797 C 373.287 56.505,372.496 56.085,371.491 58.749 C 369.104 65.074,360.769 63.004,360.756 56.083 C 360.749 52.687,362.379 50.338,365.250 49.603 C 365.845 49.451,367.774 49.637,368.353 49.902 M285.832 50.082 C 286.095 50.320,286.167 50.595,286.167 51.363 C 286.167 52.466,286.092 52.533,284.598 52.757 C 282.793 53.027,282.500 53.802,282.500 58.309 L 282.500 61.470 281.987 61.902 C 281.357 62.432,280.477 62.471,279.708 62.002 L 279.167 61.672 279.167 56.118 C 279.167 50.299,279.171 50.258,279.914 49.868 C 280.524 49.546,285.436 49.724,285.832 50.082 M291.583 52.524 C 290.424 53.179,290.243 53.743,291.078 54.092 C 292.449 54.665,294.536 54.172,294.072 53.385 C 293.703 52.760,292.130 52.215,291.583 52.524 M226.535 52.751 C 225.138 53.358,224.909 58.220,226.236 59.090 C 228.083 60.299,229.988 58.757,229.996 56.045 C 230.004 53.401,228.449 51.920,226.535 52.751 M320.402 52.884 C 319.033 54.036,318.955 57.655,320.271 58.971 C 321.545 60.245,323.200 59.411,323.736 57.225 C 324.494 54.129,322.307 51.281,320.402 52.884 M365.165 52.958 C 363.667 54.314,363.810 58.462,365.383 59.276 C 367.659 60.453,369.524 57.066,368.287 54.000 C 367.690 52.521,366.199 52.023,365.165 52.958 M271.320 56.517 C 270.387 56.860,270.054 58.483,270.760 59.245 C 271.448 59.987,273.188 59.554,273.432 58.580 C 273.819 57.038,272.749 55.993,271.320 56.517  M -25 0 L -5 0 L -5 20 L -25 20 Z M 405 0 L 425 0 L 425 20 L 405 20 Z" stroke="none" fill="#343433" fill-rule="evenodd" transform="translate(950,0)"></path></g></svg>